<?xml version="1.0" encoding="UTF-8"?>
<!DOCTYPE svg PUBLIC "-//W3C//DTD SVG 1.1//EN" "http://www.w3.org/Graphics/SVG/1.1/DTD/svg11.dtd">
<!-- Creator: CorelDRAW 2019 (64-Bit) -->
<svg xmlns="http://www.w3.org/2000/svg" xml:space="preserve" width="6.5523in" height="6.55229in" version="1.1" style="shape-rendering:geometricPrecision; text-rendering:geometricPrecision; image-rendering:optimizeQuality; fill-rule:evenodd; clip-rule:evenodd"
viewBox="0 0 802.95 802.95"
 xmlns:xlink="http://www.w3.org/1999/xlink">
 <defs>
  <style type="text/css">
   <![CDATA[
    .fil0 {fill:#181822}
   ]]>
  </style>
 </defs>
 <g id="Layer_x0020_1">
  <metadata id="CorelCorpID_0Corel-Layer"/>
  <path class="fil0" d="M429.77 206.61c95.37,13.73 168.63,95.74 168.63,194.88 0,108.76 -88.16,196.92 -196.92,196.92 -48.69,0 -93.26,-17.7 -127.63,-46.98 9.25,1.3 18.67,2.04 28.28,2.04 108.76,0 196.92,-88.16 196.92,-196.91 0,-60.08 -26.88,-113.81 -69.29,-149.94zm-47.12 168.4c15.75,51.26 5.78,41.29 57.04,57.04 -51.26,15.75 -41.29,5.77 -57.04,57.03 -15.75,-51.26 -5.77,-41.28 -57.03,-57.03 51.26,-15.75 41.28,-5.78 57.03,-57.04zm-48.58 -47.68c7.87,25.63 2.89,20.64 28.52,28.52 -25.63,7.87 -20.64,2.89 -28.52,28.52 -7.87,-25.63 -2.89,-20.64 -28.52,-28.52 25.63,-7.87 20.65,-2.89 28.52,-28.52zm67.41 -327.32c221.73,0 401.48,179.75 401.48,401.48 0,221.73 -179.75,401.48 -401.48,401.48 -221.73,0 -401.48,-179.75 -401.48,-401.48 0,-221.73 179.75,-401.48 401.48,-401.48zm0 26.93c206.86,0 374.55,167.69 374.55,374.55 0,206.86 -167.69,374.55 -374.55,374.55 -206.86,0 -374.55,-167.69 -374.55,-374.55 0,-206.86 167.69,-374.55 374.55,-374.55z"/>
 </g>
</svg>
