<svg xmlns="http://www.w3.org/2000/svg" width="39.753" height="39.753" viewBox="0 0 39.753 39.753">
  <g id="DarkAffiliates" transform="translate(-47.575 -28.302)">
    <path id="Path_2" data-name="Path 2" d="M67.451,29.636A18.543,18.543,0,1,1,48.909,48.178,18.544,18.544,0,0,1,67.451,29.636M87.328,48.178A19.877,19.877,0,1,0,67.451,68.055,19.876,19.876,0,0,0,87.328,48.178Z" fill="#181822" fill-rule="evenodd"/>
    <path id="Path_3" data-name="Path 3" d="M68.6,45.108l.672.672L65.22,49.83l-.672-.671Zm-2.164,0,.672.672L64.14,48.747l-.672-.672Zm-2.164,0,.672.672-1.885,1.885-.672-.672Zm7.574,1.082.672.672-5.131,5.131-.672-.672Zm-1.081-1.082.671.672L66.3,50.911l-.672-.672Z" fill="#181822" fill-rule="evenodd"/>
    <path id="Path_4" data-name="Path 4" d="M67.452,41.448a6.73,6.73,0,1,1-6.731,6.73,6.731,6.731,0,0,1,6.731-6.73m0-1.1a7.833,7.833,0,1,1-7.834,7.833A7.833,7.833,0,0,1,67.452,40.345Z" fill="#181822" fill-rule="evenodd"/>
    <path id="Path_5" data-name="Path 5" d="M67.019,55.278h.865v4.63a1.776,1.776,0,1,1-.865,0Zm.433-22.329a1.777,1.777,0,0,1,.432,3.5v4.629h-.865V36.449a1.777,1.777,0,0,1,.433-3.5Z" fill="#181822" fill-rule="evenodd"/>
    <path id="Path_6" data-name="Path 6" d="M61.086,51.354l.433.75L57.51,54.418a1.777,1.777,0,1,1-.433-.749Zm19.555-10.79a1.777,1.777,0,0,1-2.815,2.125L73.817,45l-.433-.75,4.01-2.314a1.776,1.776,0,0,1,3.247-1.375Z" fill="#181822" fill-rule="evenodd"/>
    <path id="Path_7" data-name="Path 7" d="M61.519,44.253l-.433.75-4.009-2.314a1.777,1.777,0,1,1,.433-.75ZM80.641,55.794a1.777,1.777,0,0,1-3.247-1.376L73.384,52.1l.433-.75,4.009,2.315a1.777,1.777,0,0,1,2.815,2.125Z" fill="#181822" fill-rule="evenodd"/>
  </g>
</svg>
