<?xml version="1.0" encoding="UTF-8"?>
<!DOCTYPE svg PUBLIC "-//W3C//DTD SVG 1.1//EN" "http://www.w3.org/Graphics/SVG/1.1/DTD/svg11.dtd">
<!-- Creator: CorelDRAW 2019 (64-Bit) -->
<svg xmlns="http://www.w3.org/2000/svg" xml:space="preserve" width="6.55229in" height="6.55229in" version="1.1" style="shape-rendering:geometricPrecision; text-rendering:geometricPrecision; image-rendering:optimizeQuality; fill-rule:evenodd; clip-rule:evenodd"
viewBox="0 0 1205.35 1205.35"
 xmlns:xlink="http://www.w3.org/1999/xlink">
 <defs>
  <style type="text/css">
   <![CDATA[
    .fil0 {fill:#181822}
   ]]>
  </style>
 </defs>
 <g id="Layer_x0020_1">
  <metadata id="CorelCorpID_0Corel-Layer"/>
  <path class="fil0" d="M602.67 0c332.85,0 602.67,269.83 602.67,602.67 0,332.85 -269.83,602.67 -602.67,602.67 -332.85,0 -602.67,-269.83 -602.67,-602.67 0,-332.85 269.83,-602.67 602.67,-602.67zm165.59 916.82l-165.6 -165.6 -165.6 165.6 -70.43 0 200.82 -200.82 35.22 -35.22 35.22 35.22 200.82 200.82 -70.44 0zm148.55 -550.19l0 70.44 -165.61 165.6 165.61 165.61 0 70.44 -200.82 -200.82 -35.22 -35.22 35.22 -35.22 200.82 -200.82zm-628.29 472.08l0 -70.44 165.59 -165.6 -165.59 -165.59 0 -70.44 200.81 200.82 35.22 35.22 -35.22 35.22 -200.81 200.82zm78.1 -550.19l70.44 0 165.6 165.6 165.61 -165.6 70.43 0 -200.82 200.82 -35.22 35.22 -35.22 -35.22 -200.82 -200.82zm311.31 269.89l11.51 11.51 -87.9 87.9 -11.51 -11.51 87.89 -87.89zm-129.74 -18.54l11.51 11.51 -32.29 32.29 -11.51 -11.51 32.29 -32.29zm37.07 0l11.51 11.51 -50.83 50.83 -11.51 -11.51 50.83 -50.83zm37.07 0l11.51 11.51 -69.39 69.38 -11.51 -11.51 69.39 -69.38zm37.07 0l11.51 11.51 -87.9 87.9 -11.51 -11.51 87.9 -87.9zm-56.73 -499.46c310.52,0 562.25,251.73 562.25,562.25 0,310.52 -251.73,562.25 -562.25,562.25 -310.52,0 -562.25,-251.73 -562.25,-562.25 0,-310.52 251.73,-562.25 562.25,-562.25z"/>
 </g>
</svg>
