<svg xmlns="http://www.w3.org/2000/svg" width="196.392" height="196.389" viewBox="0 0 196.392 196.389">
  <g id="DarkHome" transform="translate(-411.232 -34.304)">
    <path id="Path_1" data-name="Path 1" d="M523.086,98.824l7.993,8-48.2,48.2-7.993-8Zm-25.752,0,7.994,8-35.309,35.308-8-7.993Zm-25.753,0,7.994,8-22.433,22.433-7.995-7.994ZM561.709,111.7l8,7.992-61.063,61.063-7.992-8ZM548.837,98.824l7.994,8-61.061,61.06-7.994-7.992Z" fill="#181822" fill-rule="evenodd"/>
    <path id="Path_2" data-name="Path 2" d="M509.428,40.89A91.608,91.608,0,1,1,417.82,132.5,91.608,91.608,0,0,1,509.428,40.89m98.2,91.609a98.2,98.2,0,1,0-98.2,98.194A98.2,98.2,0,0,0,607.624,132.5Z" fill="#181822" fill-rule="evenodd"/>
  </g>
</svg>
