<?xml version="1.0" encoding="UTF-8"?>
<!DOCTYPE svg PUBLIC "-//W3C//DTD SVG 1.1//EN" "http://www.w3.org/Graphics/SVG/1.1/DTD/svg11.dtd">
<!-- Creator: CorelDRAW 2019 (64-Bit) -->
<svg xmlns="http://www.w3.org/2000/svg" xml:space="preserve" width="6.55229in" height="6.5523in" version="1.1" style="shape-rendering:geometricPrecision; text-rendering:geometricPrecision; image-rendering:optimizeQuality; fill-rule:evenodd; clip-rule:evenodd"
viewBox="0 0 1205.35 1205.35"
 xmlns:xlink="http://www.w3.org/1999/xlink">
 <defs>
  <style type="text/css">
   <![CDATA[
    .fil0 {fill:#181822}
   ]]>
  </style>
 </defs>
 <g id="Layer_x0020_1">
  <metadata id="CorelCorpID_0Corel-Layer"/>
  <path class="fil0" d="M693.36 569.06l13.87 13.87 -105.9 105.9 -13.87 -13.87 105.91 -105.91zm-156.32 -22.33l13.87 13.87 -38.91 38.91 -13.87 -13.87 38.91 -38.91zm44.67 0l13.86 13.87 -61.24 61.25 -13.87 -13.87 61.25 -61.24zm44.66 0l13.87 13.87 -83.61 83.61 -13.87 -13.87 83.61 -83.61zm-303.45 326.24l-54.91 4.53 -5.88 -131.09 55.1 -0.4 5.69 126.95zm279.76 -872.96c332.85,0 602.67,269.83 602.67,602.67 0,332.85 -269.83,602.67 -602.67,602.67 -332.85,0 -602.67,-269.83 -602.67,-602.67 0,-332.85 269.83,-602.67 602.67,-602.67zm68.35 546.72l13.87 13.87 -105.91 105.91 -13.87 -13.87 105.9 -105.9zm-68.35 -506.3c310.52,0 562.25,251.73 562.25,562.25 0,310.52 -251.73,562.25 -562.25,562.25 -310.52,0 -562.25,-251.73 -562.25,-562.25 0,-310.52 251.73,-562.25 562.25,-562.25zm-270.24 290.07l60.9 -2.73 97.4 -4.37c27.88,-1.25 51.76,21.47 52.47,36.99l163 -13.44 5.1 113.68 -0.02 0 -163.54 1.18c-3.37,26.07 -38.91,46.61 -78.44,67.79 -0.38,-12.79 -0.97,-30.67 -1.34,-43.46l-0.61 0.03 -86.57 3.87 -71.72 3.22c-9.18,0.41 -17.03,-6.76 -17.44,-15.94l0 0c-0.41,-9.19 6.76,-17.03 15.95,-17.44l75.81 -3.4 0.72 -9.33 -66.76 2.99c-9.17,0.42 -17.03,-6.76 -17.44,-15.95l0 0c-0.41,-9.17 6.76,-17.03 15.94,-17.44l70.85 -3.17 0.72 -9.33 -61.78 2.77c-9.19,0.41 -17.03,-6.77 -17.45,-15.95l0 0c-0.41,-9.18 6.77,-17.03 15.95,-17.44l65.88 -2.95 0.72 -9.33 -56.81 2.55c-9.19,0.41 -17.03,-6.76 -17.44,-15.95l0 0c-0.42,-9.18 6.76,-17.03 15.94,-17.44zm542.42 1.94l2.73 60.9 4.37 97.4c1.25,27.88 -21.47,51.77 -36.99,52.47l13.44 163 -113.68 5.1 0 -0.02 -1.18 -163.54c-26.07,-3.37 -46.61,-38.91 -67.79,-78.44 12.79,-0.37 30.67,-0.97 43.46,-1.34l-0.03 -0.61 -3.87 -86.57 -3.22 -71.72c-0.41,-9.18 6.76,-17.03 15.94,-17.44l0 0c9.19,-0.41 17.03,6.76 17.44,15.95l3.4 75.81 9.33 0.72 -2.99 -66.76c-0.42,-9.17 6.76,-17.03 15.95,-17.44l0 0c9.17,-0.41 17.03,6.76 17.44,15.94l3.17 70.85 9.33 0.72 -2.77 -61.78c-0.41,-9.19 6.77,-17.04 15.95,-17.45l0 0c9.18,-0.41 17.03,6.77 17.44,15.95l2.95 65.88 9.33 0.72 -2.55 -56.81c-0.41,-9.19 6.76,-17.04 15.95,-17.44l0 0c9.18,-0.42 17.03,6.76 17.44,15.94zm7.58 -0.04l54.91 -4.53 5.88 131.09 -55.1 0.4 -5.69 -126.95zm-9.52 542.46l-60.9 2.73 -97.4 4.37c-27.88,1.25 -51.77,-21.47 -52.47,-36.99l-163 13.44 -5.1 -113.68 0.02 0 163.54 -1.18c3.37,-26.07 38.91,-46.61 78.44,-67.79 0.38,12.79 0.97,30.67 1.34,43.46l0.61 -0.03 86.57 -3.88 71.72 -3.21c9.18,-0.41 17.04,6.76 17.44,15.94l0 0c0.41,9.19 -6.76,17.03 -15.95,17.44l-75.81 3.4 -0.72 9.33 66.76 -2.99c9.17,-0.42 17.03,6.76 17.44,15.95l0 0c0.41,9.17 -6.76,17.03 -15.94,17.44l-70.85 3.17 -0.72 9.33 61.78 -2.77c9.19,-0.41 17.04,6.77 17.45,15.95l0 0c0.41,9.18 -6.77,17.03 -15.95,17.44l-65.88 2.95 -0.72 9.33 56.81 -2.55c9.19,-0.41 17.04,6.76 17.44,15.95l0 0c0.42,9.18 -6.76,17.03 -15.94,17.44zm0.04 7.58l4.54 54.91 -131.09 5.88 -0.4 -55.1 126.95 -5.69zm-542.46 -9.52l-2.73 -60.9 -4.37 -97.4c-1.25,-27.88 21.47,-51.76 36.99,-52.47l-13.44 -163 113.68 -5.1 0 0.02 1.18 163.54c26.07,3.38 46.61,38.91 67.79,78.44 -12.79,0.38 -30.67,0.97 -43.46,1.34l0.03 0.61 3.88 86.57 3.21 71.72c0.41,9.18 -6.76,17.03 -15.94,17.44l0 0c-9.19,0.41 -17.04,-6.76 -17.44,-15.95l-3.4 -75.81 -9.33 -0.72 2.99 66.76c0.42,9.17 -6.76,17.03 -15.95,17.44l0 0c-9.17,0.41 -17.03,-6.76 -17.44,-15.94l-3.17 -70.85 -9.33 -0.72 2.77 61.78c0.41,9.19 -6.77,17.03 -15.95,17.45l0 0c-9.18,0.41 -17.03,-6.77 -17.44,-15.95l-2.95 -65.88 -9.33 -0.72 2.55 56.81c0.41,9.19 -6.76,17.03 -15.95,17.44l0 0c-9.18,0.42 -17.03,-6.76 -17.44,-15.94zm1.9 -550.01l-4.53 -54.91 131.09 -5.88 0.4 55.1 -126.95 5.69z"/>
 </g>
</svg>
