<?xml version="1.0" encoding="UTF-8"?>
<!DOCTYPE svg PUBLIC "-//W3C//DTD SVG 1.1//EN" "http://www.w3.org/Graphics/SVG/1.1/DTD/svg11.dtd">
<!-- Creator: CorelDRAW 2019 (64-Bit) -->
<svg xmlns="http://www.w3.org/2000/svg" xml:space="preserve" width="6.55229in" height="6.55229in" version="1.1" style="shape-rendering:geometricPrecision; text-rendering:geometricPrecision; image-rendering:optimizeQuality; fill-rule:evenodd; clip-rule:evenodd"
viewBox="0 0 527467.38 527467.06"
 xmlns:xlink="http://www.w3.org/1999/xlink">
 <defs>
  <style type="text/css">
   <![CDATA[
    .fil0 {fill:#181822}
   ]]>
  </style>
 </defs>
 <g id="Layer_x0020_1">
  <metadata id="CorelCorpID_0Corel-Layer"/>
  <path class="fil0" d="M263733.69 -0.32c145656.16,0 263733.69,118077.53 263733.69,263733.69 0,145656.48 -118077.53,263733.69 -263733.69,263733.69 -145656.48,0 -263733.69,-118077.21 -263733.69,-263733.69 0,-145656.16 118077.21,-263733.69 263733.69,-263733.69zm15.21 197401.33c-36674.64,0 -66368.81,29669.77 -66368.81,66347.58 0,36674.64 29694.17,66344.41 66368.81,66344.41 36653.4,0 66347.58,-29669.77 66347.58,-66344.41 0,-36677.81 -29694.17,-66347.58 -66347.58,-66347.58zm64408.57 -45232.49l0 0c1817.3,1018.31 2470.82,3370.28 1407.19,5163.49l-18498.48 32046.14c-1042.4,1817.3 -3391.51,2422.01 -5211.98,1404.02l0 0c-1817.3,-1066.48 -2446.41,-3391.51 -1379.61,-5211.98l18495.31 -32021.73c1017.99,-1817.3 3370.28,-2446.41 5187.57,-1379.93zm-64408.57 -17282.72l0 0c2084.79,0 3807.96,1720 3807.96,3804.79l0 36990.94c0,2108.88 -1723.17,3804.79 -3807.96,3804.79l0 0c-2109.2,0 -3804.79,-1695.91 -3804.79,-3804.79l0 -36990.94c0,-2084.79 1695.6,-3804.79 3804.79,-3804.79zm0 213097.79l0 0c2084.79,0 3807.96,1720.32 3807.96,3804.79l0 36993.79c0,2109.2 -1723.17,3804.79 -3807.96,3804.79l0 0c-2109.2,0 -3804.79,-1695.6 -3804.79,-3804.79l0 -36993.79c0,-2084.47 1695.6,-3804.79 3804.79,-3804.79zm111604.15 -19829.29l0 0c-1066.48,1844.56 -3418.77,2473.67 -5211.66,1406.87l-32046.45 -18495.31c-1817.3,-1042.4 -2422.01,-3370.28 -1379.61,-5163.17l0 0c1042.4,-1841.7 3367.11,-2498.07 5187.57,-1431.59l32022.05 18495.63c1817.3,1042.4 2446.41,3394.36 1428.1,5187.57zm-184567.72 -106538.28l0 0c-1066.48,1820.15 -3394.36,2449.27 -5211.66,1406.87l-32022.05 -18495.31c-1817.3,-1042.4 -2449.58,-3394.68 -1407.19,-5211.98l0 0c1042.4,-1817.3 3394.68,-2449.27 5211.98,-1382.78l32022.05 18498.48c1820.47,1017.99 2425.18,3367.42 1406.87,5184.72zm201801.95 42108.15l0 0c0,2109.2 -1720,3829.2 -3804.79,3829.2l-36990.62 0c-2084.79,0 -3804.79,-1720 -3804.79,-3804.79l0 0c0,-2108.88 1720,-3807.96 3804.79,-3807.96l36990.62 0c2084.79,0 3804.79,1699.08 3804.79,3783.56zm-213097.79 24.4l0 0c0,2084.79 -1720,3804.79 -3804.79,3804.79l-36993.79 0c-2084.79,0 -3804.79,-1720 -3804.79,-3780.39l0 0c0,-2133.28 1720,-3832.36 3804.79,-3832.36l36993.79 0c2084.79,0 3804.79,1699.08 3804.79,3807.96zm195839.48 -64432.98l0 0c1042.4,1817.3 413.28,4169.58 -1404.02,5211.98l-32022.05 18495.31c-1820.47,1042.4 -4145.18,413.28 -5187.57,-1428.1l0 0c-1042.4,-1796.06 -437.69,-4145.5 1379.61,-5163.49l32046.45 -18498.48c1792.9,-1066.48 4145.18,-434.52 5187.57,1382.78zm-184543.63 106587.09l0 0c1018.31,1792.9 413.6,4120.77 -1406.87,5163.17l-32022.05 18495.31c-1817.3,1066.8 -4169.58,437.69 -5187.57,-1406.87l0 0c-1066.8,-1793.21 -434.52,-4145.18 1382.78,-5187.57l32022.05 -18495.63c1817.3,-1066.48 4145.18,-410.11 5211.66,1431.59zm30833.86 30809.46l0 0c1817.3,1042.4 2449.58,3370.28 1382.78,5187.57l-18495.31 32021.73c-1018.31,1817.3 -3370.28,2473.99 -5163.49,1407.19l0 0c-1844.56,-1042.4 -2473.67,-3394.68 -1431.27,-5211.98l18495.31 -32022.05c1042.4,-1820.15 3394.68,-2424.86 5211.98,-1382.47zm106538.28 38616.49l0 0c-1817.3,1066.8 -4169.58,410.11 -5187.57,-1407.19l-18495.31 -32021.73c-1066.8,-1817.3 -437.69,-4145.18 1379.61,-5187.57l0 0c1820.47,-1042.4 4169.58,-437.69 5211.98,1382.47l18498.48 32022.05c1063.63,1817.3 410.11,4169.58 -1407.19,5211.98zm-106562.68 -184546.49l0 0c-1792.9,1017.99 -4145.18,413.28 -5187.57,-1404.02l-18495.31 -32046.14c-1042.4,-1793.21 -413.28,-4145.18 1407.19,-5163.49l0 0c1817.3,-1066.48 4169.27,-437.37 5187.57,1379.93l18495.31 32021.73c1066.8,1820.47 434.52,4145.5 -1407.19,5211.98zm42138.9 -173092.5c135886.04,0 246043.71,110157.98 246043.71,246043.71 0,135886.04 -110157.66,246043.71 -246043.71,246043.71 -135886.04,0 -246043.71,-110157.66 -246043.71,-246043.71 0,-135885.72 110157.66,-246043.71 246043.71,-246043.71z"/>
 </g>
</svg>
