<svg xmlns="http://www.w3.org/2000/svg" width="52.499" height="52.498" viewBox="0 0 52.499 52.498">
  <g id="DarkLock" transform="translate(-35.926 -60.661)">
    <path id="Path_5" data-name="Path 5" d="M62.175,71.87a8.692,8.692,0,0,1,8.692,8.692v4.863H68.2V80.562a6.023,6.023,0,1,0-12.047,0v4.863H53.484V80.562a8.691,8.691,0,0,1,8.691-8.692" fill="#181822" fill-rule="evenodd"/>
    <path id="Path_6" data-name="Path 6" d="M63.73,89.555l.909.909-5.485,5.485-.91-.91Zm-2.931,0,.91.909-4.018,4.018-.91-.91Zm-2.93,0,.91.909-2.553,2.553-.91-.91ZM68.124,91.02l.91.909-6.948,6.948-.909-.91ZM66.66,89.555l.909.909-6.948,6.948-.909-.91ZM52.148,85.883H72.2V101.95H52.148Z" fill="#181822" fill-rule="evenodd"/>
    <path id="Path_7" data-name="Path 7" d="M62.175,62.421A24.489,24.489,0,1,1,37.687,86.91,24.49,24.49,0,0,1,62.175,62.421M88.425,86.91a26.25,26.25,0,1,0-26.25,26.249A26.25,26.25,0,0,0,88.425,86.91Z" fill="#181822" fill-rule="evenodd"/>
  </g>
</svg>
