<?xml version="1.0" encoding="UTF-8"?>
<!DOCTYPE svg PUBLIC "-//W3C//DTD SVG 1.1//EN" "http://www.w3.org/Graphics/SVG/1.1/DTD/svg11.dtd">
<!-- Creator: CorelDRAW 2019 (64-Bit) -->
<svg xmlns="http://www.w3.org/2000/svg" xml:space="preserve" width="6.55229in" height="6.55229in" version="1.1" style="shape-rendering:geometricPrecision; text-rendering:geometricPrecision; image-rendering:optimizeQuality; fill-rule:evenodd; clip-rule:evenodd"
viewBox="0 0 527467.38 527467.38"
 xmlns:xlink="http://www.w3.org/1999/xlink">
 <defs>
  <style type="text/css">
   <![CDATA[
    .fil0 {fill:white}
   ]]>
  </style>
 </defs>
 <g id="Layer_x0020_1">
  <metadata id="CorelCorpID_0Corel-Layer"/>
  <path class="fil0" d="M282317.11 135721.87c62648.96,9016.77 110777.9,62889.19 110777.9,128018.16 0,71446.72 -57911.43,129358.15 -129358.15,129358.15 -31982.75,0 -61266.49,-11627.35 -83840.11,-30864.29 6077.84,854.14 12262.49,1337.14 18580.57,1337.14 71446.72,0 129358.15,-57911.11 129358.15,-129354.98 0,-39464.61 -17659.87,-74759.63 -45518.36,-98494.18zm-30952.08 110622.92c10344.72,33672.01 3795.6,27122.89 37467.61,37467.61 -33672.01,10344.72 -27122.89,3792.75 -37467.61,37464.76 -10344.72,-33672.01 -3792.75,-27120.03 -37464.76,-37464.76 33672.01,-10344.72 27120.03,-3795.6 37464.76,-37467.61zm-31915.56 -31323.21c5172.36,16836.16 1896.22,13560.02 18732.38,18732.38 -16836.16,5172.36 -13560.02,1896.53 -18732.38,18732.38 -5172.36,-16835.85 -1896.53,-13560.02 -18735.55,-18732.38 16839.01,-5172.36 13563.19,-1896.22 18735.55,-18732.38zm44284.22 -215021.58c145656.16,0 263733.69,118077.53 263733.69,263733.69 0,145656.48 -118077.53,263733.69 -263733.69,263733.69 -145656.48,0 -263733.69,-118077.21 -263733.69,-263733.69 0,-145656.16 118077.21,-263733.69 263733.69,-263733.69zm0 17690.3c135886.04,0 246043.71,110157.66 246043.71,246043.39 0,135886.04 -110157.66,246043.71 -246043.71,246043.71 -135886.04,0 -246043.71,-110157.66 -246043.71,-246043.71 0,-135885.72 110157.66,-246043.39 246043.71,-246043.39z"/>
 </g>
</svg>
