<svg xmlns="http://www.w3.org/2000/svg" width="39.753" height="39.753" viewBox="0 0 39.753 39.753">
  <g id="LightAffiliates" transform="translate(-132.109 -28.302)">
    <path id="Path_9" data-name="Path 9" d="M151.985,29.636a18.543,18.543,0,1,1-18.542,18.542,18.542,18.542,0,0,1,18.542-18.542m19.877,18.542a19.877,19.877,0,1,0-19.877,19.877A19.876,19.876,0,0,0,171.862,48.178Z" fill="#fff" fill-rule="evenodd"/>
    <path id="Path_10" data-name="Path 10" d="M153.134,45.108l.672.672-4.052,4.05-.671-.671Zm-2.164,0,.672.672-2.968,2.967L148,48.075Zm-2.164,0,.671.672-1.885,1.885-.672-.672Zm7.574,1.082.672.672-5.132,5.131-.672-.672ZM155.3,45.108l.672.672-5.132,5.131-.672-.672Z" fill="#fff" fill-rule="evenodd"/>
    <path id="Path_11" data-name="Path 11" d="M151.985,41.448a6.73,6.73,0,1,1-6.73,6.73,6.731,6.731,0,0,1,6.73-6.73m0-1.1a7.833,7.833,0,1,1-7.833,7.833A7.833,7.833,0,0,1,151.985,40.345Z" fill="#fff" fill-rule="evenodd"/>
    <path id="Path_12" data-name="Path 12" d="M151.553,55.278h.866v4.63a1.777,1.777,0,1,1-.866,0Zm.432-22.329a1.777,1.777,0,0,1,.434,3.5v4.629h-.866V36.449a1.777,1.777,0,0,1,.432-3.5Z" fill="#fff" fill-rule="evenodd"/>
    <path id="Path_13" data-name="Path 13" d="M145.621,51.354l.433.75-4.01,2.314a1.778,1.778,0,1,1-.433-.749Zm19.555-10.79a1.777,1.777,0,0,1-2.815,2.125L158.352,45l-.434-.75,4.01-2.314a1.777,1.777,0,0,1,3.248-1.375Z" fill="#fff" fill-rule="evenodd"/>
    <path id="Path_14" data-name="Path 14" d="M146.054,44.253l-.433.75-4.01-2.314a1.778,1.778,0,1,1,.433-.75Zm19.122,11.541a1.777,1.777,0,0,1-3.248-1.376l-4.01-2.314.434-.75,4.009,2.315a1.777,1.777,0,0,1,2.815,2.125Z" fill="#fff" fill-rule="evenodd"/>
  </g>
</svg>
