<svg xmlns="http://www.w3.org/2000/svg" width="52.499" height="52.498" viewBox="0 0 52.499 52.498">
  <g id="LightLock" transform="translate(-151.575 -60.661)">
    <path id="Path_1" data-name="Path 1" d="M177.824,71.87a8.691,8.691,0,0,1,8.692,8.692v4.863h-2.668V80.562a6.023,6.023,0,1,0-12.046,0v4.863h-2.669V80.562a8.691,8.691,0,0,1,8.691-8.692" fill="#fff" fill-rule="evenodd"/>
    <path id="Path_2" data-name="Path 2" d="M179.379,89.555l.909.909L174.8,95.949l-.909-.91Zm-2.931,0,.909.909-4.017,4.018-.909-.91Zm-2.93,0,.91.909-2.553,2.553-.909-.91Zm10.255,1.465.911.909-6.949,6.948-.909-.91Zm-1.464-1.465.909.909-6.948,6.948-.91-.91ZM167.8,85.883h20.054V101.95H167.8Z" fill="#fff" fill-rule="evenodd"/>
    <path id="Path_3" data-name="Path 3" d="M177.824,62.421A24.489,24.489,0,1,1,153.336,86.91a24.488,24.488,0,0,1,24.488-24.489m26.25,24.489a26.25,26.25,0,1,0-26.25,26.249A26.25,26.25,0,0,0,204.074,86.91Z" fill="#fff" fill-rule="evenodd"/>
  </g>
</svg>
