<svg xmlns="http://www.w3.org/2000/svg" width="196.391" height="196.389" viewBox="0 0 196.391 196.389">
  <g id="BrightHome" transform="translate(-52.63 -34.304)">
    <path id="Path_4" data-name="Path 4" d="M164.483,98.824l7.993,8-48.2,48.2-7.993-8Zm-25.752,0,7.994,8-35.31,35.308-7.994-7.993Zm-25.753,0,7.994,8L98.539,129.252l-7.994-7.994ZM203.106,111.7l8,7.992-61.063,61.063-7.992-8ZM190.234,98.824l8,8-61.061,61.06-7.994-7.992Z" fill="#fff" fill-rule="evenodd"/>
    <path id="Path_5" data-name="Path 5" d="M150.825,40.89A91.608,91.608,0,1,1,59.218,132.5,91.609,91.609,0,0,1,150.825,40.89m98.2,91.609a98.2,98.2,0,1,0-98.2,98.194A98.2,98.2,0,0,0,249.021,132.5Z" fill="#fff" fill-rule="evenodd"/>
  </g>
</svg>
