<?xml version="1.0" encoding="UTF-8"?>
<!DOCTYPE svg PUBLIC "-//W3C//DTD SVG 1.1//EN" "http://www.w3.org/Graphics/SVG/1.1/DTD/svg11.dtd">
<!-- Creator: CorelDRAW 2019 (64-Bit) -->
<svg xmlns="http://www.w3.org/2000/svg" xml:space="preserve" width="6.5523in" height="6.55229in" version="1.1" style="shape-rendering:geometricPrecision; text-rendering:geometricPrecision; image-rendering:optimizeQuality; fill-rule:evenodd; clip-rule:evenodd"
viewBox="0 0 802.95 802.95"
 xmlns:xlink="http://www.w3.org/1999/xlink">
 <defs>
  <style type="text/css">
   <![CDATA[
    .fil0 {fill:white}
   ]]>
  </style>
 </defs>
 <g id="Layer_x0020_1">
  <metadata id="CorelCorpID_0Corel-Layer"/>
  <path class="fil0" d="M401.48 -0c221.73,0 401.48,179.75 401.48,401.48 0,221.73 -179.75,401.48 -401.48,401.48 -221.73,0 -401.48,-179.75 -401.48,-401.48 0,-221.73 179.75,-401.48 401.48,-401.48zm0.02 300.5c-55.83,0 -101.03,45.17 -101.03,101 0,55.83 45.2,100.99 101.03,100.99 55.8,0 101,-45.17 101,-100.99 0,-55.83 -45.2,-101 -101,-101zm98.05 -68.86l0 0c2.77,1.55 3.76,5.13 2.14,7.86l-28.16 48.78c-1.59,2.77 -5.16,3.69 -7.93,2.14l0 0c-2.77,-1.62 -3.72,-5.16 -2.1,-7.93l28.16 -48.75c1.55,-2.77 5.13,-3.72 7.9,-2.1zm-98.05 -26.31l0 0c3.17,0 5.8,2.62 5.8,5.79l0 56.31c0,3.21 -2.62,5.79 -5.8,5.79l0 0c-3.21,0 -5.79,-2.58 -5.79,-5.79l0 -56.31c0,-3.17 2.58,-5.79 5.79,-5.79zm0 324.39l0 0c3.17,0 5.8,2.62 5.8,5.79l0 56.31c0,3.21 -2.62,5.79 -5.8,5.79l0 0c-3.21,0 -5.79,-2.58 -5.79,-5.79l0 -56.31c0,-3.17 2.58,-5.79 5.79,-5.79zm169.89 -30.19l0 0c-1.62,2.81 -5.2,3.77 -7.93,2.14l-48.78 -28.16c-2.77,-1.59 -3.69,-5.13 -2.1,-7.86l0 0c1.59,-2.8 5.13,-3.8 7.9,-2.18l48.75 28.16c2.77,1.59 3.72,5.17 2.17,7.9zm-280.96 -162.18l0 0c-1.62,2.77 -5.17,3.73 -7.93,2.14l-48.75 -28.16c-2.77,-1.59 -3.73,-5.17 -2.14,-7.93l0 0c1.59,-2.77 5.17,-3.73 7.93,-2.1l48.75 28.16c2.77,1.55 3.69,5.13 2.14,7.89zm307.2 64.1l0 0c0,3.21 -2.62,5.83 -5.79,5.83l-56.31 0c-3.17,0 -5.79,-2.62 -5.79,-5.79l0 0c0,-3.21 2.62,-5.8 5.79,-5.8l56.31 0c3.17,0 5.79,2.59 5.79,5.76zm-324.39 0.04l0 0c0,3.17 -2.62,5.79 -5.79,5.79l-56.31 0c-3.17,0 -5.79,-2.62 -5.79,-5.75l0 0c0,-3.25 2.62,-5.83 5.79,-5.83l56.31 0c3.17,0 5.79,2.59 5.79,5.8zm298.12 -98.09l0 0c1.59,2.77 0.63,6.35 -2.14,7.93l-48.75 28.16c-2.77,1.59 -6.31,0.63 -7.9,-2.17l0 0c-1.59,-2.73 -0.67,-6.31 2.1,-7.86l48.78 -28.16c2.73,-1.62 6.31,-0.66 7.9,2.1zm-280.93 162.26l0 0c1.55,2.73 0.63,6.27 -2.14,7.86l-48.75 28.16c-2.77,1.62 -6.35,0.67 -7.9,-2.14l0 0c-1.62,-2.73 -0.66,-6.31 2.1,-7.9l48.75 -28.16c2.77,-1.62 6.31,-0.62 7.93,2.18zm46.94 46.9l0 0c2.77,1.59 3.73,5.13 2.1,7.9l-28.16 48.75c-1.55,2.77 -5.13,3.77 -7.86,2.14l0 0c-2.81,-1.59 -3.77,-5.17 -2.18,-7.93l28.16 -48.75c1.59,-2.77 5.17,-3.69 7.93,-2.1zm162.18 58.79l0 0c-2.77,1.62 -6.35,0.62 -7.9,-2.14l-28.16 -48.75c-1.62,-2.77 -0.67,-6.31 2.1,-7.9l0 0c2.77,-1.59 6.35,-0.67 7.93,2.1l28.16 48.75c1.62,2.77 0.62,6.35 -2.14,7.93zm-162.22 -280.93l0 0c-2.73,1.55 -6.31,0.63 -7.9,-2.14l-28.16 -48.78c-1.59,-2.73 -0.63,-6.31 2.14,-7.86l0 0c2.77,-1.62 6.35,-0.67 7.9,2.1l28.16 48.75c1.62,2.77 0.66,6.31 -2.14,7.93zm64.15 -263.5c206.86,0 374.55,167.69 374.55,374.55 0,206.86 -167.69,374.55 -374.55,374.55 -206.86,0 -374.55,-167.69 -374.55,-374.55 0,-206.86 167.69,-374.55 374.55,-374.55z"/>
 </g>
</svg>
