<?xml version="1.0" encoding="UTF-8"?>
<!DOCTYPE svg PUBLIC "-//W3C//DTD SVG 1.1//EN" "http://www.w3.org/Graphics/SVG/1.1/DTD/svg11.dtd">
<!-- Creator: CorelDRAW 2019 (64-Bit) -->
<svg xmlns="http://www.w3.org/2000/svg" xml:space="preserve" width="6.55229in" height="6.55229in" version="1.1" style="shape-rendering:geometricPrecision; text-rendering:geometricPrecision; image-rendering:optimizeQuality; fill-rule:evenodd; clip-rule:evenodd"
viewBox="0 0 2416.22 2416.22"
 xmlns:xlink="http://www.w3.org/1999/xlink">
 <defs>
  <style type="text/css">
   <![CDATA[
    .fil0 {fill:white}
   ]]>
  </style>
 </defs>
 <g id="Layer_x0020_1">
  <metadata id="CorelCorpID_0Corel-Layer"/>
  <path class="fil0" d="M1208.11 0c667.22,0 1208.11,540.89 1208.11,1208.11 0,667.22 -540.89,1208.11 -1208.11,1208.11 -667.22,0 -1208.11,-540.89 -1208.11,-1208.11 0,-667.22 540.89,-1208.11 1208.11,-1208.11zm570.89 1253.25l31.75 29.35 -242.49 414.15 -31.75 -29.36 242.49 -414.14zm-357.92 72.91l31.74 29.35 -89.08 152.17 -31.75 -29.36 89.09 -152.16zm102.26 -40.05l31.75 29.35 -140.23 239.48 -31.75 -29.35 140.23 -239.48zm102.26 -40.08l31.75 29.36 -191.43 326.94 -31.75 -29.35 191.43 -326.95zm102.26 -40.05l31.75 29.36 -242.49 414.14 -31.75 -29.36 242.49 -414.14zm-617.27 -211.02l0 -76.79 131.96 0 0 76.79 -131.96 0zm137.82 151.74l579.97 -335.55c22.17,-12.84 19.39,-35.43 -6.18,-50.23l-567.59 -328.4c-25.57,-14.8 -64.62,-16.41 -86.8,-3.58l-579.97 335.57c-22.18,12.82 -19.39,35.42 6.18,50.21l567.6 328.4c25.57,14.8 64.62,16.4 86.78,3.58zm-2.23 -270.36l-135.59 0c0,-33.23 5.57,-55.57 16.68,-67.03 11.12,-11.47 38.91,-22.16 83.39,-32.09 44.46,-9.94 73.46,-16.82 86.99,-20.63 13.53,-3.83 20.3,-16.25 20.3,-37.25 0,-18.33 -6.88,-30.65 -20.66,-36.96 -13.78,-6.31 -38.55,-9.45 -74.31,-9.45l-15.94 0c-42.54,0 -71.3,2.77 -86.28,8.31 -14.99,5.54 -22.48,18.24 -22.48,38.1l0 17.76 -130.48 0 0.71 -18.91c0,-20.24 2.42,-36.58 7.25,-48.99 4.84,-12.43 17.4,-23.21 37.71,-32.38 20.28,-9.17 47.23,-15.47 80.83,-18.92 33.59,-3.44 68.51,-5.15 104.76,-5.15 87.97,0 151.53,6.31 190.68,18.91 39.15,12.61 58.72,39.73 58.72,81.37 0,19.1 -2.28,34.76 -6.88,47 -4.59,12.22 -14.14,22.64 -28.65,31.22 -14.49,8.6 -45.9,17.96 -94.23,28.08 -48.35,10.12 -72.5,24.54 -72.5,43.27l0 13.74zm-105.41 324l-571.21 -338.15c-22.66,-13.42 -41.19,0.64 -41.19,31.24l0 679.25c0,30.6 18.53,66.6 41.19,80l571.21 338.17c22.65,13.42 41.19,-0.64 41.19,-31.24l0 -679.24c0,-30.6 -18.54,-66.61 -41.19,-80.03zm-292.16 94.18c63.69,34.12 109.7,64.55 138.06,91.29 28.34,26.74 42.51,59.18 42.51,97.34 0,17.48 -1.66,30.95 -4.98,40.37 -3.33,9.41 -10.23,15.24 -20.73,17.5 -10.51,2.24 -33.26,-1.38 -68.24,-10.84 -35.01,-9.49 -52.5,-5.67 -52.5,11.48l0 12.6 -98.17 -52.61c0,-30.44 4.04,-48.75 12.08,-54.93 8.05,-6.18 28.18,-5.21 60.36,2.95 32.2,8.16 53.19,13.11 62.99,14.87 9.8,1.74 14.7,-7 14.7,-26.26 0,-16.8 -4.98,-30.75 -14.97,-41.87 -9.97,-11.12 -27.91,-23.61 -53.81,-37.5l-11.55 -6.18c-30.79,-16.51 -51.61,-25.13 -62.46,-25.87 -10.85,-0.74 -16.27,7.99 -16.27,26.18l0 16.27 -94.48 -50.63 0.53 -17.04c0,-18.54 1.75,-32.58 5.25,-42.07 3.49,-9.49 12.6,-14.51 27.3,-15.03 14.7,-0.52 34.2,4.16 58.52,14.05 24.32,9.88 49.6,21.86 75.86,35.93zm-64.05 245.46l95.54 51.2 0 70.34 -95.54 -51.2 0 -70.34zm1062.09 -677.79l-571.19 338.17c-22.66,13.41 -41.19,49.41 -41.19,80.02l0 679.24c0,30.6 18.53,44.66 41.19,31.24l571.19 -338.16c22.66,-13.42 41.19,-49.42 41.19,-80.02l0 -679.25c0,-30.6 -18.53,-44.66 -41.19,-31.24zm-638.54 -781.15c622.47,0 1127.07,504.61 1127.07,1127.07 0,622.46 -504.61,1127.07 -1127.07,1127.07 -622.47,0 -1127.07,-504.61 -1127.07,-1127.07 0,-622.47 504.61,-1127.07 1127.07,-1127.07z"/>
 </g>
</svg>
