<svg xmlns="http://www.w3.org/2000/svg" width="101.693" height="101.692" viewBox="0 0 101.693 101.692">
  <g id="WinnersLight" transform="translate(-334.024 -123.963)">
    <path id="Path_4" data-name="Path 4" d="M384.87,127.374a47.435,47.435,0,1,1-47.435,47.436,47.436,47.436,0,0,1,47.435-47.436m50.847,47.436a50.847,50.847,0,1,0-50.847,50.845A50.847,50.847,0,0,0,435.717,174.81Z" fill="#fff" fill-rule="evenodd"/>
    <path id="Path_5" data-name="Path 5" d="M369.185,146.916c1.5-1.458,4.755-.544,7.264,2.043s3.323,5.864,1.82,7.322-4.754.544-7.264-2.042-3.323-5.865-1.82-7.323m3.95,1.3.75.211,1.434,5.771-.75-.211Zm-.9.878.749.211,1.133,4.555-.749-.211Zm-.9.877.749.211.83,3.337-.75-.21Zm-.9.878.75.211.527,2.12-.75-.211Zm3.921-2.293.75.211,1.434,5.771-.75-.211ZM384.871,211.9l22.286-9.178V187l-15.892,6.545-6.394-10.158-6.394,10.158L362.584,187v15.719Zm-4.918-72.7c1-.4,2.887,2,4.213,5.349s1.591,6.387.59,6.783-2.887-2-4.213-5.349S378.952,139.6,379.953,139.2Zm2.292,3.056.438.551.443,5.354-.438-.551Zm-.611.242.437.551.35,4.226-.438-.55Zm-.612.242.438.551.257,3.1-.439-.551Zm-.611.242.438.551.162,1.968-.437-.552Zm2.539.161.437.551.443,5.354-.437-.551Zm-3.553-5.347c1.455-.576,3.96,2.3,5.593,6.426s1.778,7.937.322,8.513-3.96-2.3-5.593-6.425S377.941,138.372,379.4,137.795Zm-16.185,22.051c-.585.9,1.39,3.224,4.414,5.184s5.949,2.817,6.534,1.914-1.391-3.224-4.414-5.184S363.8,158.943,363.212,159.846Zm2.545,2.849.453.538,5.163,1.488-.454-.537Zm.357-.551.454.537,4.076,1.175-.455-.538Zm.358-.552.454.537,2.985.861-.454-.538Zm.358-.552.453.538,1.9.547-.454-.538Zm-.343,2.521.454.537,5.162,1.488-.454-.537Zm26.779-22.556c-2.074-.3-4.167,2.356-4.676,5.923s.759,6.7,2.832,6.994,4.167-2.356,4.676-5.923S395.339,141.3,393.266,141.005Zm-2.43,3.376-.483.611,2.232,5.512.482-.611Zm1.247.178-.482.611,1.762,4.351.483-.611Zm1.248.178-.482.611,1.291,3.187.482-.611Zm1.248.178-.482.611.819,2.025.482-.611Zm-4.52.45-.483.611,2.233,5.512.482-.611Zm3.419-5.855c-2.8-.4-5.586,2.837-6.213,7.229s1.139,8.278,3.944,8.678,5.587-2.836,6.214-7.228S396.284,139.911,393.478,139.51Zm-6.517,22.779a6.524,6.524,0,1,1-8.271,4.089A6.524,6.524,0,0,1,386.961,162.289Zm1.962,4.554.423.853-6.518,3.223-.422-.854Zm-2.054-.7.422.854-5.145,2.543-.421-.853Zm-2.054-.694.422.853-3.768,1.863-.422-.853Zm-2.053-.695.422.853L380.79,166.8l-.423-.854Zm6.84,3.458.423.853-6.517,3.224-.422-.854Zm-2.157-7.358a8.034,8.034,0,1,1-10.184,5.036c.03-.09.062-.178.1-.266l-1.887.777a1.546,1.546,0,0,1-.041,1.359c-.852,1.314-4.561.423-8.284-1.991s-6.05-5.436-5.2-6.749c.439-.676,1.634-.768,3.2-.369l6.007-2.473a12.4,12.4,0,0,1-1.106-1.012c-3.09-3.185-3.945-7.366-1.911-9.339s6.186-.99,9.276,2.194,3.944,7.366,1.91,9.339a3.4,3.4,0,0,1-1.065.7l3.9,2.634a8.155,8.155,0,0,0-1.676,1.044A8.024,8.024,0,0,1,387.445,160.859Zm15.532-5.991c-1.666-1.27-4.787.024-6.971,2.889s-2.606,6.218-.94,7.487,4.786-.023,6.971-2.889S404.643,156.138,402.977,154.868Zm-3.768,1.761-.72.3-.74,5.9.719-.3Zm1,.765-.719.3-.585,4.658.719-.3Zm1,.763-.719.3-.429,3.412.72-.3Zm1,.764-.719.3-.272,2.168.719-.3Zm-4.164-1.812-.72.3-.74,5.9.719-.3Zm5.842-3.442c-1.863-1.419-4.922-.664-7.447,1.633l-.54-.223-7.826,5.289.029.01a8.025,8.025,0,0,1,5.215,5.64l.614.253c.069.061.139.12.212.176,2.254,1.718,6.261.25,8.952-3.278S406.145,155.385,403.893,153.667Zm-41.309,18.046,7.9-3.256a20.029,20.029,0,0,1-3.821-1.959c-3.314-2.149-5.523-4.78-5.366-6.258l-9.752,4.016,11.035,7.457-6.869,10.914L378,191.8l6.87-10.914L391.74,191.8l22.286-9.178-6.869-10.914,11.035-7.457-12.064-4.969a13.087,13.087,0,0,1-2.159,4.127c-2.015,2.642-4.617,4.243-6.606,4.265l9.794,4.034-22.286,9.178Z" fill="#fff" fill-rule="evenodd"/>
  </g>
</svg>
