<svg xmlns="http://www.w3.org/2000/svg" xmlns:xlink="http://www.w3.org/1999/xlink" width="29.562" height="32.799" viewBox="0 0 29.562 32.799">
  <defs>
    <clipPath id="clip-path">
      <path id="Path_30" data-name="Path 30" d="M494.81,146.726h0l-.019,0-.02,0h0a2.354,2.354,0,0,0-1.672.693l-12.375,12.374a2.365,2.365,0,0,0,3.344,3.345l8.38-8.379v22.4a2.364,2.364,0,0,0,4.729,0V154.842l8.38,8.379a2.364,2.364,0,0,0,3.343-3.344l-12.219-12.22a2.351,2.351,0,0,0-1.869-.931" fill="none" clip-rule="evenodd"/>
    </clipPath>
    <linearGradient id="linear-gradient" x1="0.985" y1="0.5" x2="0.015" y2="0.5" gradientUnits="objectBoundingBox">
      <stop offset="0" stop-color="#ffa7b3"/>
      <stop offset="0.132" stop-color="#fba3b7"/>
      <stop offset="0.288" stop-color="#f199c6"/>
      <stop offset="0.456" stop-color="#df87dd"/>
      <stop offset="0.48" stop-color="#dd85e2"/>
      <stop offset="0.804" stop-color="#c67ff2"/>
      <stop offset="1" stop-color="#b77bff"/>
    </linearGradient>
  </defs>
  <g id="BigArrowVDark" transform="translate(-480.029 -146.726)">
    <g id="Group_19" data-name="Group 19" clip-path="url(#clip-path)">
      <rect id="Rectangle_14" data-name="Rectangle 14" width="30.024" height="32.799" transform="translate(479.798 146.726)" fill="url(#linear-gradient)"/>
    </g>
  </g>
</svg>
