<svg xmlns="http://www.w3.org/2000/svg" width="24.196" height="24.196" viewBox="0 0 24.196 24.196">
  <g id="BNB" transform="translate(-12966.805 -452)">
    <circle id="Ellipse_15" data-name="Ellipse 15" cx="12.098" cy="12.098" r="12.098" transform="translate(12966.805 452)" fill="#0b0e11"/>
    <path id="Path_514" data-name="Path 514" d="M12975.509,462.7l3.394-3.393,3.4,3.395,1.975-1.974-5.37-5.37-5.368,5.368Zm-3.369-.58,1.975,1.975-1.976,1.974-1.974-1.974Zm3.369,3.369,3.394,3.394,3.395-3.4,1.977,1.974h0l-5.37,5.37-5.368-5.368,0,0Zm12.131-1.394-1.975,1.975-1.975-1.975,1.975-1.975Z" fill="#f0b90b"/>
    <path id="Path_515" data-name="Path 515" d="M12980.905,464.1h0l-2-2-2,2.005,0,0,2,2,2-2.005Z" fill="#f0b90b"/>
  </g>
</svg>
