<svg xmlns="http://www.w3.org/2000/svg" xmlns:xlink="http://www.w3.org/1999/xlink" width="230.903" height="15.009" viewBox="0 0 230.903 15.009">
  <defs>
    <clipPath id="clip-path">
      <path id="Path_586" data-name="Path 586" d="M9981.835,31.476V46.263h-7.394l-7.75-11.58v11.58h-4.365V31.476h7.327l7.615,11.557V31.476Zm-22.76,0V46.263h-4.343V31.476Zm-13.829,0,7.661,14.787h-4.7c-2.092-4.02-3.957-8.051-6.1-12.092-2.1,4.045-3.978,8.032-5.991,12.092h-4.832l7.526-14.787ZM9930.459,41.1q0,3.118-1.37,4.13a6.476,6.476,0,0,1-3.908,1.014q-1.09,0-2.738.067l-1.671.067q-5.5,0-7.783-1.181t-2.282-4.676V37.755q0-3.941,2.193-5.154t7.182-1.215h1.96q4.7,0,6.547.9t1.849,3.909h-4.609a1.709,1.709,0,0,0-.556-1.459,3.548,3.548,0,0,0-2.006-.412h-4.5q-2.225,0-2.771.825a4.821,4.821,0,0,0-.546,2.6v2.829q0,1.983.924,2.394a13.944,13.944,0,0,0,4.4.412,27.16,27.16,0,0,0,3.92-.2q1.223-.2,1.225-2.294h-5.634v-2.65h10.177Z" fill="#3c3c3b"/>
    </clipPath>
    <clipPath id="clip-path-2">
      <path id="Path_588" data-name="Path 588" d="M9938.448,46.263h7.383c-1.277-2.455-2.415-4.915-3.725-7.382-1.284,2.469-2.429,4.9-3.658,7.382" fill="none" clip-rule="evenodd"/>
    </clipPath>
    <linearGradient id="linear-gradient" x1="0.5" x2="0.5" y2="1" gradientUnits="objectBoundingBox">
      <stop offset="0" stop-color="#ecb42a"/>
      <stop offset="0.41" stop-color="#e8a839"/>
      <stop offset="0.71" stop-color="#c637c1"/>
      <stop offset="1" stop-color="#bb12ee"/>
    </linearGradient>
  </defs>
  <g id="brand" transform="translate(-9910.706 -31.386)">
    <g id="Group_551" data-name="Group 551">
      <g id="Group_547" data-name="Group 547">
        <path id="Path_585" data-name="Path 585" d="M9981.835,31.476V46.263h-7.394l-7.75-11.58v11.58h-4.365V31.476h7.327l7.615,11.557V31.476Zm-22.76,0V46.263h-4.343V31.476Zm-13.829,0,7.661,14.787h-4.7c-2.092-4.02-3.957-8.051-6.1-12.092-2.1,4.045-3.978,8.032-5.991,12.092h-4.832l7.526-14.787ZM9930.459,41.1q0,3.118-1.37,4.13a6.476,6.476,0,0,1-3.908,1.014q-1.09,0-2.738.067l-1.671.067q-5.5,0-7.783-1.181t-2.282-4.676V37.755q0-3.941,2.193-5.154t7.182-1.215h1.96q4.7,0,6.547.9t1.849,3.909h-4.609a1.709,1.709,0,0,0-.556-1.459,3.548,3.548,0,0,0-2.006-.412h-4.5q-2.225,0-2.771.825a4.821,4.821,0,0,0-.546,2.6v2.829q0,1.983.924,2.394a13.944,13.944,0,0,0,4.4.412,27.16,27.16,0,0,0,3.92-.2q1.223-.2,1.225-2.294h-5.634v-2.65h10.177Z" fill="#3c3c3b"/>
        <g id="Group_546" data-name="Group 546" clip-path="url(#clip-path)">
          <g id="Group_545" data-name="Group 545">
            <rect id="Rectangle_148" data-name="Rectangle 148" width="71.129" height="14.988" transform="translate(9910.706 31.386)" fill="#3c3c3b"/>
          </g>
        </g>
      </g>
      <g id="Group_548" data-name="Group 548">
        <path id="Path_587" data-name="Path 587" d="M10141.609,46.4h-13.655V31.408h1.994V44.749h11.661Zm-17.666-5.957V38.457a21.223,21.223,0,0,0-.123-2.741,3.167,3.167,0,0,0-.881-1.965,2.714,2.714,0,0,0-1.379-.565,14.98,14.98,0,0,0-2.178-.133h-5.644c-1.279,0-2.085.02-2.429.062a2.407,2.407,0,0,0-1.684.73,4.256,4.256,0,0,0-.771,1.994,20.644,20.644,0,0,0-.095,2.417v2.121a9.583,9.583,0,0,0,.224,2.164,3.385,3.385,0,0,0,.6,1.4,2.307,2.307,0,0,0,1.4.6,22.335,22.335,0,0,0,3.122.16h5.212a18.784,18.784,0,0,0,2.055-.093,3.208,3.208,0,0,0,1.563-.464,2.77,2.77,0,0,0,.8-1.562A9.94,9.94,0,0,0,10123.943,40.438Zm2.013.458a9.393,9.393,0,0,1-.309,2.5,4.161,4.161,0,0,1-1.159,2.038,3.524,3.524,0,0,1-1.64.7,17.044,17.044,0,0,1-3.418.255h-6.974a11.22,11.22,0,0,1-2.411-.232,3.456,3.456,0,0,1-2.259-1.266,5.539,5.539,0,0,1-.727-1.664,10.618,10.618,0,0,1-.294-2.673v-2.9a12.421,12.421,0,0,1,.34-3.089,4.162,4.162,0,0,1,1.223-2.219,4.694,4.694,0,0,1,2.3-.788,19.319,19.319,0,0,1,2.66-.155h6.354a16.815,16.815,0,0,1,2.382.138,4.353,4.353,0,0,1,2.659,1.114,4.693,4.693,0,0,1,.969,2.062,13.8,13.8,0,0,1,.3,3.05Zm-21.183,1.688a5.4,5.4,0,0,1-.134,1.284,2.859,2.859,0,0,1-.531,1.049,3.863,3.863,0,0,1-2.428,1.262,12.668,12.668,0,0,1-2.522.216h-5.661a11.591,11.591,0,0,1-3.744-.448,3.6,3.6,0,0,1-1.414-.975,5.1,5.1,0,0,1-.951-2.553,14.726,14.726,0,0,1-.216-2.443V37.982a15.6,15.6,0,0,1,.216-2.83,4.646,4.646,0,0,1,1.221-2.663,3.817,3.817,0,0,1,1.917-.926,13.012,13.012,0,0,1,2.36-.155h5.565a12.71,12.71,0,0,1,3.953.432,2.945,2.945,0,0,1,1.562,1.2,3.537,3.537,0,0,1,.462,1.128,4.565,4.565,0,0,1,.095.958V36.31h-1.9V35.3a4.4,4.4,0,0,0-.063-.93,1.369,1.369,0,0,0-.492-.761,2.369,2.369,0,0,0-1.168-.458,14.1,14.1,0,0,0-1.9-.1h-6.4a8.933,8.933,0,0,0-1.718.123,1.57,1.57,0,0,0-.926.575,3.848,3.848,0,0,0-.727,2.01,23.372,23.372,0,0,0-.109,2.707v1.763a12.463,12.463,0,0,0,.123,1.826,4.6,4.6,0,0,0,.6,1.811,2.261,2.261,0,0,0,1.469.726,10.253,10.253,0,0,0,1.9.155h5.331a17.977,17.977,0,0,0,1.87-.077,3.964,3.964,0,0,0,1.724-.488,1.6,1.6,0,0,0,.639-1.246c.021-.216.032-.528.032-.942v-.725h1.956Zm-21.691-2.146V38.457a21.271,21.271,0,0,0-.122-2.741,3.156,3.156,0,0,0-.882-1.965,2.7,2.7,0,0,0-1.378-.565,14.98,14.98,0,0,0-2.178-.133h-5.645c-1.278,0-2.085.02-2.427.062a2.417,2.417,0,0,0-1.686.73,4.285,4.285,0,0,0-.77,1.994,20.207,20.207,0,0,0-.095,2.417v2.121a9.528,9.528,0,0,0,.224,2.164,3.4,3.4,0,0,0,.6,1.4,2.319,2.319,0,0,0,1.4.6,22.329,22.329,0,0,0,3.121.16h5.212a18.746,18.746,0,0,0,2.055-.093,3.2,3.2,0,0,0,1.563-.464,2.765,2.765,0,0,0,.8-1.562A10.077,10.077,0,0,0,10083.082,40.438Zm2.014.458a9.312,9.312,0,0,1-.31,2.5,4.16,4.16,0,0,1-1.158,2.038,3.529,3.529,0,0,1-1.639.7,17.044,17.044,0,0,1-3.418.255h-6.976a11.229,11.229,0,0,1-2.41-.232,3.456,3.456,0,0,1-2.259-1.266,5.562,5.562,0,0,1-.726-1.664,10.529,10.529,0,0,1-.294-2.673v-2.9a12.424,12.424,0,0,1,.339-3.089,4.149,4.149,0,0,1,1.223-2.219,4.687,4.687,0,0,1,2.306-.788,19.244,19.244,0,0,1,2.657-.155h6.355a16.8,16.8,0,0,1,2.382.138,4.356,4.356,0,0,1,2.659,1.114,4.692,4.692,0,0,1,.968,2.062,13.675,13.675,0,0,1,.3,3.05Zm-20.76-7.843h-7.32V46.4h-1.723V33.053h-7.572V31.408h16.615Zm-20.18,7.385V38.457a21.176,21.176,0,0,0-.124-2.741,3.161,3.161,0,0,0-.88-1.965,2.711,2.711,0,0,0-1.378-.565,15.019,15.019,0,0,0-2.18-.133h-5.644c-1.278,0-2.085.02-2.428.062a2.412,2.412,0,0,0-1.685.73,4.265,4.265,0,0,0-.771,1.994,20.644,20.644,0,0,0-.095,2.417v2.121a9.583,9.583,0,0,0,.224,2.164,3.372,3.372,0,0,0,.6,1.4,2.3,2.3,0,0,0,1.4.6,22.345,22.345,0,0,0,3.122.16h5.212a18.746,18.746,0,0,0,2.055-.093,3.217,3.217,0,0,0,1.563-.464,2.77,2.77,0,0,0,.8-1.562A9.94,9.94,0,0,0,10044.156,40.438Zm2.013.458a9.353,9.353,0,0,1-.309,2.5,4.168,4.168,0,0,1-1.159,2.038,3.528,3.528,0,0,1-1.641.7,17.017,17.017,0,0,1-3.418.255h-6.973a11.22,11.22,0,0,1-2.411-.232A3.459,3.459,0,0,1,10028,44.9a5.562,5.562,0,0,1-.726-1.664,10.577,10.577,0,0,1-.293-2.673v-2.9a12.378,12.378,0,0,1,.339-3.089,4.168,4.168,0,0,1,1.222-2.219,4.7,4.7,0,0,1,2.3-.788,19.309,19.309,0,0,1,2.66-.155h6.354a16.781,16.781,0,0,1,2.381.138,4.35,4.35,0,0,1,2.659,1.114,4.682,4.682,0,0,1,.969,2.062,13.733,13.733,0,0,1,.3,3.05Zm-23.1-4.195v-.823a3.865,3.865,0,0,0-.155-1.227,2.349,2.349,0,0,0-.74-1.006,3.034,3.034,0,0,0-1.762-.592h-10.282l-.016,5.79h10.221a4.849,4.849,0,0,0,1.142-.109,1.888,1.888,0,0,0,.837-.458,2.566,2.566,0,0,0,.57-.714A1.878,1.878,0,0,0,10023.069,36.7Zm1.878,0a4.192,4.192,0,0,1-.2,1.308,1.934,1.934,0,0,1-.635.952,4.461,4.461,0,0,1-.9.558c-.475.145-.717.216-.727.216a4.624,4.624,0,0,1,1.007.443,2.8,2.8,0,0,1,1.32,1.635,4.057,4.057,0,0,1,.133,1.1V46.4h-2.033V42.5a1.686,1.686,0,0,0-.211-.859,3.336,3.336,0,0,0-.642-.765,1.2,1.2,0,0,0-.63-.3,4.713,4.713,0,0,0-.89-.072h-10.428V46.4h-1.955V31.408h12.506a5.005,5.005,0,0,1,3.185.958,2.624,2.624,0,0,1,.864,1.379,5.657,5.657,0,0,1,.233,1.675Zm-20.79-.964a3.956,3.956,0,0,0-.188-1.3,2.072,2.072,0,0,0-.677-.946,1.621,1.621,0,0,0-.714-.326,4.291,4.291,0,0,0-.987-.11h-10.408v5.79h9.985a7.7,7.7,0,0,0,1.194-.061,2.926,2.926,0,0,0,1.081-.467,1.448,1.448,0,0,0,.559-.676,2.61,2.61,0,0,0,.155-.955Zm1.955,1.023a4.388,4.388,0,0,1-.187,1.316,2.823,2.823,0,0,1-.9,1.407,4.947,4.947,0,0,1-1.272.769,3.877,3.877,0,0,1-1.446.254h-11.121V46.4h-1.956V31.408h12.7a8.632,8.632,0,0,1,1.769.149,2.874,2.874,0,0,1,1.3.654,2.916,2.916,0,0,1,.858,1.285,5.616,5.616,0,0,1,.262,1.8Z" fill="#3c3c3b"/>
      </g>
      <g id="Group_550" data-name="Group 550">
        <g id="Group_549" data-name="Group 549" clip-path="url(#clip-path-2)">
          <rect id="Rectangle_149" data-name="Rectangle 149" width="7.382" height="7.383" transform="translate(9938.448 38.881)" fill="url(#linear-gradient)"/>
        </g>
      </g>
    </g>
  </g>
</svg>
