<svg width="20" height="20" viewBox="0 0 20 20" fill="none" xmlns="http://www.w3.org/2000/svg">
<path d="M17.1172 8.93414C16.9318 8.93417 16.7506 8.88085 16.5947 8.78058C16.4388 8.68031 16.3142 8.53733 16.2373 8.36865C16.1605 8.19998 16.1345 8.01272 16.1611 7.82928C16.1878 7.64585 16.266 7.47396 16.3877 7.33411L17.5752 5.96912C17.7196 5.8025 17.799 5.58963 17.7998 5.36914V2.66913C17.7995 2.5168 17.7387 2.3708 17.6309 2.26318C17.5231 2.15557 17.3769 2.09509 17.2246 2.09509H3.36621C3.21388 2.09509 3.06777 2.15557 2.95996 2.26318C2.85216 2.3708 2.79128 2.5168 2.79102 2.66913V5.36914C2.79178 5.58963 2.87122 5.8025 3.01562 5.96912L4.20312 7.33411C4.28951 7.42927 4.35571 7.54071 4.39844 7.66193C4.44116 7.78314 4.45977 7.91168 4.45215 8.03998C4.44453 8.16828 4.41127 8.29376 4.35449 8.40906C4.29771 8.52436 4.21814 8.62717 4.12109 8.71143C4.02404 8.79569 3.91119 8.85975 3.78906 8.89978C3.66693 8.93981 3.53825 8.95504 3.41016 8.94458C3.28206 8.93412 3.15698 8.89812 3.04297 8.83881C2.92895 8.77949 2.82818 8.69801 2.74609 8.59912L1.55859 7.23511C1.10793 6.71705 0.860147 6.05377 0.859375 5.36713V2.66711C0.860165 2.00385 1.12327 1.3679 1.5918 0.898438C2.06032 0.428974 2.69612 0.164225 3.35938 0.162109H17.2178C17.8821 0.162639 18.5194 0.426727 18.9893 0.896362C19.4591 1.366 19.7228 2.00282 19.7236 2.66711V5.36713C19.7227 6.05374 19.4749 6.71696 19.0244 7.23511L17.8369 8.59912C17.7477 8.70299 17.6369 8.78659 17.5127 8.84436C17.3885 8.90213 17.2541 8.93277 17.1172 8.93414V8.93414Z" fill="url(#paint0_linear)"/>
<path d="M15.4776 11.3542L10.9776 6.84918C10.7966 6.66843 10.5517 6.56689 10.2959 6.56689C10.0402 6.56689 9.79524 6.66843 9.61429 6.84918V6.84918L5.11429 11.3492C5.0221 11.4382 4.94808 11.5447 4.8975 11.6625C4.84691 11.7802 4.82046 11.9069 4.81937 12.0351C4.81828 12.1633 4.84307 12.2904 4.89164 12.409C4.9402 12.5276 5.01191 12.6354 5.10257 12.726C5.19324 12.8165 5.30033 12.8882 5.41898 12.9366C5.53763 12.9851 5.66484 13.0095 5.793 13.0083C5.92117 13.0071 6.04832 12.9804 6.16605 12.9297C6.28378 12.8791 6.38958 12.8055 6.47855 12.7132L9.335 9.85516V18.5002C9.335 18.7561 9.43625 19.0016 9.61722 19.1826C9.79819 19.3635 10.0439 19.4652 10.2998 19.4652C10.5558 19.4652 10.8015 19.3635 10.9825 19.1826C11.1634 19.0016 11.2647 18.7561 11.2647 18.5002V9.86517L14.1182 12.7192C14.2992 12.9002 14.5448 13.0019 14.8008 13.0019C15.0568 13.0019 15.3024 12.9002 15.4834 12.7192C15.6644 12.5382 15.7657 12.2927 15.7657 12.0367C15.7657 11.7807 15.6644 11.5352 15.4834 11.3542H15.4776Z" fill="#CFB4F7"/>
<defs>
<linearGradient id="paint0_linear" x1="10.2915" y1="0.162109" x2="10.2915" y2="8.94778" gradientUnits="userSpaceOnUse">
<stop stop-color="#CFB5F7"/>
<stop offset="1" stop-color="#CFB5F7"/>
</linearGradient>
</defs>
</svg>
