<svg xmlns="http://www.w3.org/2000/svg" width="19.728" height="20.25" viewBox="0 0 19.728 20.25">
  <g id="CopyAddress" transform="translate(-8705.003 -561.161)">
    <g id="Group_585" data-name="Group 585">
      <path id="Path_652" data-name="Path 652" d="M8722.117,569.934a.966.966,0,0,1-.729-1.6l1.187-1.365a.921.921,0,0,0,.225-.6v-2.7a.575.575,0,0,0-.575-.574h-13.859a.575.575,0,0,0-.575.574v2.7a.921.921,0,0,0,.225.6l1.187,1.365a.965.965,0,1,1-1.457,1.265l-1.187-1.364a2.851,2.851,0,0,1-.7-1.868v-2.7a2.508,2.508,0,0,1,2.5-2.505h13.859a2.508,2.508,0,0,1,2.506,2.505v2.7a2.853,2.853,0,0,1-.7,1.868l-1.187,1.364A.962.962,0,0,1,8722.117,569.934Z" fill="#bb12ee"/>
      <path id="Path_653" data-name="Path 653" d="M8720.478,572.354l-4.5-4.505a.965.965,0,0,0-1.364,0l0,0-4.5,4.5a.965.965,0,1,0,1.365,1.364l2.856-2.858V579.5a.965.965,0,1,0,1.93,0v-8.635l2.853,2.854a.965.965,0,0,0,1.365-1.365Z" fill="#ecb42a"/>
    </g>
    <g id="Group_586" data-name="Group 586" opacity="0.15">
      <path id="Path_654" data-name="Path 654" d="M8721.26,570.88a.965.965,0,0,1-.728-1.6l1.186-1.364a.914.914,0,0,0,.225-.6v-2.7a.575.575,0,0,0-.574-.575h-13.86a.576.576,0,0,0-.575.575v2.7a.913.913,0,0,0,.227.6l1.185,1.364a.965.965,0,1,1-1.457,1.266l-1.186-1.364a2.851,2.851,0,0,1-.7-1.868v-2.7a2.508,2.508,0,0,1,2.5-2.505h13.86a2.508,2.508,0,0,1,2.5,2.505v2.7a2.847,2.847,0,0,1-.7,1.868l-1.186,1.364A.963.963,0,0,1,8721.26,570.88Z" fill="#ff6ad3"/>
      <path id="Path_655" data-name="Path 655" d="M8709.934,574.948a.965.965,0,0,1-.683-1.647l4.5-4.506a.966.966,0,0,1,1.366,1.365l-4.5,4.505A.964.964,0,0,1,8709.934,574.948Z" fill="#ff6ad3"/>
      <path id="Path_656" data-name="Path 656" d="M8718.937,574.948a.964.964,0,0,1-.682-.283l-4.5-4.506a.965.965,0,1,1,1.366-1.364l4.5,4.505a.966.966,0,0,1-.684,1.648Z" fill="#ff6ad3"/>
      <path id="Path_657" data-name="Path 657" d="M8714.438,581.411a.966.966,0,0,1-.967-.965V569.705a.966.966,0,0,1,1.932,0v10.741A.965.965,0,0,1,8714.438,581.411Z" fill="#ff6ad3"/>
    </g>
  </g>
</svg>
