<svg xmlns="http://www.w3.org/2000/svg" xmlns:xlink="http://www.w3.org/1999/xlink" width="175" height="22.33" viewBox="0 0 175 22.33">
  <defs>
    <clipPath id="clip-path">
      <path id="Path_124" data-name="Path 124" d="M3066.17,3538.624l2.179,2.179-16.642,16.642-2.179-2.179Zm-7.019,0,2.18,2.179-13.138,13.138-2.179-2.179Zm-7.018,0,2.179,2.179-9.624,9.624-2.179-2.18Zm-7.018,0,2.179,2.179-6.115,6.114-2.179-2.179Zm24.564,3.509,2.179,2.179-16.642,16.642-2.179-2.178Z" fill="none" clip-rule="evenodd"/>
    </clipPath>
    <linearGradient id="linear-gradient" x1="0.5" y1="1.013" x2="0.5" y2="0.007" gradientUnits="objectBoundingBox">
      <stop offset="0" stop-color="#ecb42a"/>
      <stop offset="0.48" stop-color="#e8a839"/>
      <stop offset="0.81" stop-color="#c637c1"/>
      <stop offset="1" stop-color="#bb12ee"/>
    </linearGradient>
    <clipPath id="clip-path-2">
      <path id="Path_126" data-name="Path 126" d="M3120.555,3545.2v8.648h-4.324l-4.533-6.772v6.772h-2.553V3545.2h4.285l4.455,6.76v-6.76Zm-13.311,0v8.648h-2.54V3545.2Zm-8.088,0,4.48,8.648h-2.748c-1.224-2.351-2.315-4.708-3.569-7.072-1.23,2.366-2.326,4.7-3.5,7.072h-2.826l4.4-8.648Zm-8.649,5.627a2.884,2.884,0,0,1-.8,2.416,3.8,3.8,0,0,1-2.286.592q-.637,0-1.6.04l-.977.039a10.7,10.7,0,0,1-4.552-.691,2.784,2.784,0,0,1-1.335-2.735v-1.615q0-2.306,1.283-3.015a9.176,9.176,0,0,1,4.2-.71h1.146a9.66,9.66,0,0,1,3.829.527,2.285,2.285,0,0,1,1.081,2.286h-2.7a1,1,0,0,0-.325-.853,2.067,2.067,0,0,0-1.173-.241h-2.631q-1.3,0-1.621.482a2.823,2.823,0,0,0-.319,1.524v1.654q0,1.159.54,1.4a8.143,8.143,0,0,0,2.572.241,15.846,15.846,0,0,0,2.293-.117q.716-.117.716-1.342h-3.3v-1.549h5.952Z" fill="#7a71a7"/>
    </clipPath>
    <clipPath id="clip-path-3">
      <path id="Path_128" data-name="Path 128" d="M3095.18,3553.85h4.318c-.747-1.435-1.413-2.874-2.179-4.317-.751,1.444-1.42,2.867-2.139,4.317" fill="none" clip-rule="evenodd"/>
    </clipPath>
    <linearGradient id="linear-gradient-2" x1="0.5" x2="0.5" y2="1" gradientUnits="objectBoundingBox">
      <stop offset="0" stop-color="#ecb42a"/>
      <stop offset="0.41" stop-color="#e8a839"/>
      <stop offset="0.71" stop-color="#c637c1"/>
      <stop offset="1" stop-color="#bb12ee"/>
    </linearGradient>
  </defs>
  <g id="GAINPROTOCOL" transform="translate(-3039 -3538.624)">
    <g id="Group_141" data-name="Group 141">
      <g id="Group_140" data-name="Group 140" clip-path="url(#clip-path)">
        <rect id="Rectangle_49" data-name="Rectangle 49" width="32.858" height="22.33" transform="translate(3039 3538.624)" fill="url(#linear-gradient)"/>
      </g>
    </g>
    <g id="Group_145" data-name="Group 145">
      <g id="Group_144" data-name="Group 144">
        <path id="Path_125" data-name="Path 125" d="M3120.555,3545.2v8.648h-4.324l-4.533-6.772v6.772h-2.553V3545.2h4.285l4.455,6.76v-6.76Zm-13.311,0v8.648h-2.54V3545.2Zm-8.088,0,4.48,8.648h-2.748c-1.224-2.351-2.315-4.708-3.569-7.072-1.23,2.366-2.326,4.7-3.5,7.072h-2.826l4.4-8.648Zm-8.649,5.627a2.884,2.884,0,0,1-.8,2.416,3.8,3.8,0,0,1-2.286.592q-.637,0-1.6.04l-.977.039a10.7,10.7,0,0,1-4.552-.691,2.784,2.784,0,0,1-1.335-2.735v-1.615q0-2.306,1.283-3.015a9.176,9.176,0,0,1,4.2-.71h1.146a9.66,9.66,0,0,1,3.829.527,2.285,2.285,0,0,1,1.081,2.286h-2.7a1,1,0,0,0-.325-.853,2.067,2.067,0,0,0-1.173-.241h-2.631q-1.3,0-1.621.482a2.823,2.823,0,0,0-.319,1.524v1.654q0,1.159.54,1.4a8.143,8.143,0,0,0,2.572.241,15.846,15.846,0,0,0,2.293-.117q.716-.117.716-1.342h-3.3v-1.549h5.952Z" fill="#7a71a7"/>
        <g id="Group_143" data-name="Group 143" clip-path="url(#clip-path-2)">
          <g id="Group_142" data-name="Group 142">
            <rect id="Rectangle_50" data-name="Rectangle 50" width="41.6" height="8.766" transform="translate(3078.954 3545.15)" fill="#7a71a7"/>
          </g>
        </g>
      </g>
    </g>
    <path id="Path_127" data-name="Path 127" d="M3214,3553.927h-7.986v-8.765h1.166v7.8H3214Zm-10.332-3.483v-1.159a12.464,12.464,0,0,0-.072-1.6,1.854,1.854,0,0,0-.515-1.15,1.593,1.593,0,0,0-.806-.33,8.754,8.754,0,0,0-1.274-.078h-3.3c-.748,0-1.219.012-1.42.037a1.41,1.41,0,0,0-.985.426,2.506,2.506,0,0,0-.451,1.167,12.121,12.121,0,0,0-.055,1.413v1.241a5.664,5.664,0,0,0,.13,1.266,2,2,0,0,0,.353.821,1.342,1.342,0,0,0,.819.353,12.948,12.948,0,0,0,1.826.094h3.048a10.753,10.753,0,0,0,1.2-.055,1.866,1.866,0,0,0,.914-.271,1.617,1.617,0,0,0,.47-.913A5.866,5.866,0,0,0,3203.668,3550.444Zm1.177.267a5.507,5.507,0,0,1-.18,1.464,2.445,2.445,0,0,1-.678,1.192,2.059,2.059,0,0,1-.959.411,9.912,9.912,0,0,1-2,.149h-4.079a6.54,6.54,0,0,1-1.41-.135,2.023,2.023,0,0,1-1.321-.74,3.244,3.244,0,0,1-.425-.974,6.169,6.169,0,0,1-.172-1.563v-1.7a7.237,7.237,0,0,1,.2-1.806,2.434,2.434,0,0,1,.715-1.3,2.739,2.739,0,0,1,1.348-.461,11.235,11.235,0,0,1,1.555-.091h3.716a9.889,9.889,0,0,1,1.393.081,2.546,2.546,0,0,1,1.555.651,2.741,2.741,0,0,1,.567,1.207,8.02,8.02,0,0,1,.175,1.783Zm-12.389.987a3.212,3.212,0,0,1-.077.752,1.672,1.672,0,0,1-.312.613,2.251,2.251,0,0,1-1.419.738,7.4,7.4,0,0,1-1.476.126h-3.311a6.789,6.789,0,0,1-2.189-.261,2.1,2.1,0,0,1-.827-.57,2.985,2.985,0,0,1-.557-1.494,8.592,8.592,0,0,1-.126-1.428v-1.167a9.111,9.111,0,0,1,.126-1.655,2.718,2.718,0,0,1,.714-1.557,2.227,2.227,0,0,1,1.121-.542,7.591,7.591,0,0,1,1.381-.091h3.255a7.428,7.428,0,0,1,2.312.253,1.721,1.721,0,0,1,.913.7,2.042,2.042,0,0,1,.27.659,2.675,2.675,0,0,1,.055.561v.692h-1.11v-.588a2.693,2.693,0,0,0-.036-.545.805.805,0,0,0-.289-.445,1.382,1.382,0,0,0-.683-.267,8.164,8.164,0,0,0-1.108-.06h-3.743a5.148,5.148,0,0,0-1,.073.91.91,0,0,0-.541.335,2.26,2.26,0,0,0-.426,1.176,13.84,13.84,0,0,0-.063,1.584v1.031a7.238,7.238,0,0,0,.072,1.068,2.678,2.678,0,0,0,.352,1.059,1.32,1.32,0,0,0,.859.424,5.971,5.971,0,0,0,1.112.091h3.117a10.463,10.463,0,0,0,1.094-.045,2.332,2.332,0,0,0,1.008-.285.935.935,0,0,0,.373-.729c.013-.127.019-.309.019-.551v-.424h1.144Zm-12.686-1.254v-1.159a12.512,12.512,0,0,0-.071-1.6,1.85,1.85,0,0,0-.516-1.15,1.59,1.59,0,0,0-.806-.33,8.745,8.745,0,0,0-1.274-.078h-3.3c-.747,0-1.219.012-1.419.037a1.412,1.412,0,0,0-.986.426,2.505,2.505,0,0,0-.45,1.167,11.845,11.845,0,0,0-.055,1.413v1.241a5.607,5.607,0,0,0,.13,1.266,2,2,0,0,0,.352.821,1.347,1.347,0,0,0,.82.353,12.942,12.942,0,0,0,1.825.094h3.048a10.731,10.731,0,0,0,1.2-.055,1.866,1.866,0,0,0,.914-.271,1.608,1.608,0,0,0,.47-.913A5.866,5.866,0,0,0,3179.77,3550.444Zm1.178.267a5.466,5.466,0,0,1-.181,1.464,2.444,2.444,0,0,1-.677,1.192,2.063,2.063,0,0,1-.959.411,9.919,9.919,0,0,1-2,.149h-4.079a6.533,6.533,0,0,1-1.41-.135,2.026,2.026,0,0,1-1.322-.74,3.267,3.267,0,0,1-.424-.974,6.169,6.169,0,0,1-.172-1.563v-1.7a7.286,7.286,0,0,1,.2-1.806,2.428,2.428,0,0,1,.716-1.3,2.731,2.731,0,0,1,1.347-.461,11.248,11.248,0,0,1,1.556-.091h3.716a9.883,9.883,0,0,1,1.393.081,2.549,2.549,0,0,1,1.555.651,2.741,2.741,0,0,1,.566,1.207,7.973,7.973,0,0,1,.176,1.783Zm-12.142-4.587h-4.281v7.8h-1.008v-7.8h-4.428v-.962h9.717Zm-11.8,4.32v-1.159a12.464,12.464,0,0,0-.072-1.6,1.849,1.849,0,0,0-.516-1.15,1.585,1.585,0,0,0-.8-.33,8.765,8.765,0,0,0-1.275-.078h-3.3c-.747,0-1.219.012-1.419.037a1.407,1.407,0,0,0-.985.426,2.5,2.5,0,0,0-.452,1.167,12.351,12.351,0,0,0-.055,1.413v1.241a5.6,5.6,0,0,0,.131,1.266,1.985,1.985,0,0,0,.353.821,1.342,1.342,0,0,0,.819.353,12.944,12.944,0,0,0,1.825.094h3.049a10.75,10.75,0,0,0,1.2-.055,1.862,1.862,0,0,0,.913-.271,1.611,1.611,0,0,0,.47-.913A5.783,5.783,0,0,0,3157,3550.444Zm1.177.267a5.456,5.456,0,0,1-.181,1.464,2.43,2.43,0,0,1-.678,1.192,2.049,2.049,0,0,1-.959.411,9.9,9.9,0,0,1-2,.149h-4.079a6.533,6.533,0,0,1-1.41-.135,2.029,2.029,0,0,1-1.322-.74,3.249,3.249,0,0,1-.424-.974,6.169,6.169,0,0,1-.172-1.563v-1.7a7.237,7.237,0,0,1,.2-1.806,2.426,2.426,0,0,1,.715-1.3,2.739,2.739,0,0,1,1.347-.461,11.26,11.26,0,0,1,1.556-.091h3.716a9.887,9.887,0,0,1,1.393.081,2.548,2.548,0,0,1,1.555.651,2.744,2.744,0,0,1,.567,1.207,8.036,8.036,0,0,1,.175,1.783Zm-13.51-2.453v-.482a2.248,2.248,0,0,0-.091-.717,1.384,1.384,0,0,0-.432-.588,1.777,1.777,0,0,0-1.031-.347H3137.1l-.01,3.387h5.978a2.853,2.853,0,0,0,.668-.064,1.105,1.105,0,0,0,.489-.268,1.508,1.508,0,0,0,.334-.418A1.094,1.094,0,0,0,3144.671,3548.258Zm1.1,0a2.445,2.445,0,0,1-.117.765,1.137,1.137,0,0,1-.372.557,2.581,2.581,0,0,1-.524.326c-.278.085-.419.126-.425.126a2.757,2.757,0,0,1,.589.259,1.635,1.635,0,0,1,.772.957,2.366,2.366,0,0,1,.077.646v2.032h-1.189v-2.276a.983.983,0,0,0-.123-.5,1.966,1.966,0,0,0-.375-.447.694.694,0,0,0-.368-.175,2.735,2.735,0,0,0-.521-.042h-6.1v3.442h-1.144v-8.765h7.315a2.929,2.929,0,0,1,1.863.561,1.529,1.529,0,0,1,.505.806,3.318,3.318,0,0,1,.136.98Zm-12.159-.564a2.318,2.318,0,0,0-.11-.762,1.207,1.207,0,0,0-.4-.554.947.947,0,0,0-.417-.19,2.5,2.5,0,0,0-.577-.065h-6.088v3.387h5.84a4.448,4.448,0,0,0,.7-.036,1.716,1.716,0,0,0,.633-.273.847.847,0,0,0,.326-.4,1.52,1.52,0,0,0,.091-.559Zm1.144.6a2.565,2.565,0,0,1-.11.77,1.652,1.652,0,0,1-.528.822,2.892,2.892,0,0,1-.744.45,2.263,2.263,0,0,1-.846.149h-6.5v3.442h-1.144v-8.765h7.426a5.041,5.041,0,0,1,1.034.087,1.687,1.687,0,0,1,.761.383,1.715,1.715,0,0,1,.5.751,3.3,3.3,0,0,1,.153,1.052Z" fill="#7a71a7"/>
    <g id="Group_147" data-name="Group 147">
      <g id="Group_146" data-name="Group 146" clip-path="url(#clip-path-3)">
        <rect id="Rectangle_51" data-name="Rectangle 51" width="4.318" height="4.318" transform="translate(3095.18 3549.533)" fill="url(#linear-gradient-2)"/>
      </g>
    </g>
  </g>
</svg>
