<svg xmlns="http://www.w3.org/2000/svg" xmlns:xlink="http://www.w3.org/1999/xlink" width="1940" height="1079.83" viewBox="0 0 1940 1079.83">
  <defs>
    <clipPath id="clip-path">
      <rect id="Rectangle_53" data-name="Rectangle 53" width="1940" height="1079.83" transform="translate(-10 2993.17)" fill="none"/>
    </clipPath>
    <linearGradient id="linear-gradient" y1="0.5" x2="0.782" y2="0.5" gradientUnits="objectBoundingBox">
      <stop offset="0.009" stop-color="#e8a839"/>
      <stop offset="0.81" stop-color="#c637c1"/>
      <stop offset="1" stop-color="#bb12ee"/>
    </linearGradient>
    <linearGradient id="linear-gradient-2" x1="0.162" y1="0.5" x2="0.944" y2="0.5" xlink:href="#linear-gradient"/>
    <linearGradient id="linear-gradient-3" x1="0" y1="0.5" x2="1" y2="0.5" xlink:href="#linear-gradient"/>
  </defs>
  <g id="Group_165" data-name="Group 165" transform="translate(10 -2993.17)" clip-path="url(#clip-path)">
    <g id="Group_164" data-name="Group 164">
      <path id="LeftBottom" d="M178.466,3810.4c-146.619-8.15-273.143,123.172-277.212,196.362s111.491,139.133,258.109,147.283,268.773-44.576,272.842-117.767S325.083,3818.547,178.466,3810.4Z" fill="url(#linear-gradient)"/>
      <path id="TopRight" d="M1674,3009.962c-132.857,54.608-218.461,152.641-191.2,218.963s186.333,147.038,319.192,92.43S1991.18,3097.5,1963.92,3031.172,1806.859,2955.354,1674,3009.962Z" fill="url(#linear-gradient-2)"/>
      <path id="LeftTop" d="M103.119,2928.97c-99.372,40.845-163.4,114.17-143.011,163.776s139.37,109.978,238.742,69.135,141.505-167.44,121.116-217.045S202.491,2888.126,103.119,2928.97Z" fill="url(#linear-gradient-3)"/>
      <path id="RightBottom" d="M1547.256,3574.478c-265.059,76.016-408.421,386.989-370.473,519.306s283.582,177.958,548.642,101.941,449.171-244.9,411.224-377.221S1812.317,3498.461,1547.256,3574.478Z" fill="url(#linear-gradient-2)"/>
    </g>
  </g>
</svg>
