<svg width="26" height="26" viewBox="0 0 26 26" fill="none" xmlns="http://www.w3.org/2000/svg">
<g clip-path="url(#clip0)">
<path d="M12.8912 22.4327H1.27028C0.933543 22.4327 0.610478 22.2934 0.372369 22.0455C0.13426 21.7976 0 21.4614 0 21.1109C0 20.7603 0.13426 20.4241 0.372369 20.1762C0.610478 19.9283 0.933543 19.7891 1.27028 19.7891H12.8912C13.2279 19.7891 13.551 19.9283 13.7891 20.1762C14.0272 20.4241 14.1606 20.7603 14.1606 21.1109C14.1606 21.4614 14.0272 21.7976 13.7891 22.0455C13.551 22.2934 13.2279 22.4327 12.8912 22.4327Z" fill="#CC3CC3"/>
<path d="M23.4868 22.4327H16.8572C16.5205 22.4327 16.1974 22.2934 15.9593 22.0455C15.7212 21.7976 15.5869 21.4614 15.5869 21.1109C15.5869 20.7603 15.7212 20.4241 15.9593 20.1762C16.1974 19.9283 16.5205 19.7891 16.8572 19.7891H23.4868C23.8235 19.7891 24.1466 19.9283 24.3847 20.1762C24.6228 20.4241 24.7562 20.7603 24.7562 21.1109C24.7562 21.4614 24.6228 21.7976 24.3847 22.0455C24.1466 22.2934 23.8235 22.4327 23.4868 22.4327Z" fill="#CC3CC3"/>
<path d="M14.5974 4.86488H1.27135C1.10468 4.86488 0.939413 4.8307 0.785424 4.7643C0.631436 4.69789 0.491299 4.60057 0.373442 4.47787C0.255584 4.35517 0.162571 4.20951 0.0987866 4.0492C0.0350025 3.88888 0.00195312 3.71706 0.00195312 3.54354C0.00195312 3.37001 0.0350025 3.19819 0.0987866 3.03788C0.162571 2.87756 0.255584 2.7319 0.373442 2.6092C0.491299 2.4865 0.631436 2.38915 0.785424 2.32275C0.939413 2.25635 1.10468 2.22217 1.27135 2.22217H14.5974C14.7641 2.22217 14.9293 2.25635 15.0833 2.32275C15.2373 2.38915 15.3775 2.4865 15.4953 2.6092C15.6132 2.7319 15.7062 2.87756 15.77 3.03788C15.8338 3.19819 15.8668 3.37001 15.8668 3.54354C15.8668 3.71706 15.8338 3.88888 15.77 4.0492C15.7062 4.20951 15.6132 4.35517 15.4953 4.47787C15.3775 4.60057 15.2373 4.69789 15.0833 4.7643C14.9293 4.8307 14.7641 4.86488 14.5974 4.86488V4.86488Z" fill="#CC3CC3"/>
<path d="M23.4856 4.86488H18.5506C18.384 4.86488 18.2187 4.8307 18.0647 4.7643C17.9107 4.69789 17.7706 4.60057 17.6527 4.47787C17.5349 4.35517 17.4419 4.20951 17.3781 4.0492C17.3143 3.88888 17.2812 3.71706 17.2812 3.54354C17.2812 3.37001 17.3143 3.19819 17.3781 3.03788C17.4419 2.87756 17.5349 2.7319 17.6527 2.6092C17.7706 2.4865 17.9107 2.38915 18.0647 2.32275C18.2187 2.25635 18.384 2.22217 18.5506 2.22217H23.4856C23.6523 2.22217 23.8176 2.25635 23.9716 2.32275C24.1256 2.38915 24.2657 2.4865 24.3835 2.6092C24.5014 2.7319 24.5944 2.87756 24.6582 3.03788C24.722 3.19819 24.755 3.37001 24.755 3.54354C24.755 3.71706 24.722 3.88888 24.6582 4.0492C24.5944 4.20951 24.5014 4.35517 24.3835 4.47787C24.2657 4.60057 24.1256 4.69789 23.9716 4.7643C23.8176 4.8307 23.6523 4.86488 23.4856 4.86488V4.86488Z" fill="#CC3CC3"/>
<path d="M3.4905 13.6491H1.27038C0.933759 13.6491 0.610489 13.5098 0.372465 13.262C0.134441 13.0142 0.000976562 12.6781 0.000976563 12.3277C0.000976562 11.9772 0.134441 11.6412 0.372465 11.3934C0.610489 11.1456 0.933759 11.0063 1.27038 11.0063H3.4905C3.82712 11.0063 4.14951 11.1456 4.38753 11.3934C4.62556 11.6412 4.75902 11.9772 4.75902 12.3277C4.75902 12.6781 4.62556 13.0142 4.38753 13.262C4.14951 13.5098 3.82712 13.6491 3.4905 13.6491V13.6491Z" fill="#EAA248"/>
<path d="M7.62526 13.65C7.28852 13.65 6.96546 13.5107 6.72735 13.2628C6.48924 13.0149 6.35498 12.6787 6.35498 12.3282C6.35498 11.9776 6.48924 11.6414 6.72735 11.3935C6.96546 11.1456 7.28852 11.0063 7.62526 11.0063H23.4901C23.8267 11.0063 24.15 11.1456 24.388 11.3934C24.626 11.6412 24.7595 11.9772 24.7595 12.3277C24.7595 12.6781 24.626 13.0142 24.388 13.262C24.15 13.5098 23.8267 13.6491 23.4901 13.6491L7.62526 13.65Z" fill="#EAA248"/>
<path d="M12.8914 24.8269C12.5547 24.8269 12.2316 24.6877 11.9935 24.44C11.7553 24.1922 11.6213 23.8561 11.6211 23.5056V19.062C11.6299 18.7175 11.7678 18.3902 12.0049 18.1498C12.2421 17.9094 12.5595 17.7749 12.8905 17.7749C13.2215 17.7749 13.5398 17.9094 13.777 18.1498C14.0141 18.3902 14.152 18.7175 14.1608 19.062V23.5056C14.1605 23.8559 14.0264 24.1919 13.7884 24.4396C13.5504 24.6874 13.2279 24.8267 12.8914 24.8269Z" fill="#CC3CC3"/>
<path d="M14.6112 7.08633C14.4445 7.08645 14.2793 7.05236 14.1253 6.986C13.9712 6.91964 13.8312 6.8223 13.7133 6.69958C13.5954 6.57686 13.5015 6.43116 13.4378 6.27079C13.374 6.11042 13.3417 5.93855 13.3418 5.76499V1.32232C13.3418 0.971873 13.4753 0.635783 13.7133 0.387982C13.9513 0.140181 14.2746 0.000976562 14.6112 0.000976562C14.9478 0.000976562 15.2702 0.140181 15.5082 0.387982C15.7462 0.635783 15.8806 0.971873 15.8806 1.32232V5.76499C15.8806 5.93851 15.8475 6.11033 15.7838 6.27065C15.72 6.43096 15.6261 6.57662 15.5082 6.69932C15.3904 6.82202 15.2511 6.91934 15.0971 6.98575C14.9431 7.05215 14.7779 7.08633 14.6112 7.08633V7.08633Z" fill="#CC3CC3"/>
<path d="M7.08034 15.8704C6.74371 15.8701 6.42142 15.7309 6.18331 15.4832C5.94519 15.2354 5.81054 14.8995 5.81006 14.549V10.1054C5.81888 9.76098 5.95672 9.43368 6.19387 9.19328C6.43102 8.95288 6.74934 8.81836 7.08034 8.81836C7.41134 8.81836 7.72878 8.95288 7.96592 9.19328C8.20307 9.43368 8.34092 9.76098 8.34974 10.1054V14.549C8.3495 14.8994 8.21534 15.2354 7.97737 15.4831C7.7394 15.7309 7.41688 15.8701 7.08034 15.8704Z" fill="#CC3CC3"/>
<g opacity="0.15">
<g opacity="0.15">
<g opacity="0.15">
<path opacity="0.15" d="M14.1351 23.6065H2.51417C2.18329 23.5973 1.8683 23.4541 1.63739 23.2072C1.40648 22.9603 1.27734 22.6293 1.27734 22.2847C1.27734 21.9401 1.40648 21.6091 1.63739 21.3622C1.8683 21.1154 2.18329 20.9721 2.51417 20.9629H14.1351C14.3047 20.9582 14.4736 20.9889 14.6316 21.0532C14.7896 21.1175 14.9334 21.2141 15.055 21.3373C15.1765 21.4605 15.2734 21.6078 15.3393 21.7706C15.4053 21.9333 15.4388 22.1081 15.4388 22.2847C15.4388 22.4613 15.4053 22.6361 15.3393 22.7988C15.2734 22.9615 15.1765 23.1089 15.055 23.2321C14.9334 23.3553 14.7896 23.4519 14.6316 23.5162C14.4736 23.5805 14.3047 23.6112 14.1351 23.6065V23.6065Z" fill="#FF6AD3"/>
<path opacity="0.15" d="M24.7303 23.6065H18.1016C17.7707 23.5974 17.4557 23.4541 17.2248 23.2072C16.9939 22.9603 16.8647 22.6293 16.8647 22.2847C16.8647 21.9401 16.9939 21.6092 17.2248 21.3623C17.4557 21.1154 17.7707 20.9721 18.1016 20.9629H24.7303C25.0611 20.9721 25.3753 21.1154 25.6062 21.3623C25.8371 21.6092 25.9671 21.9401 25.9671 22.2847C25.9671 22.6293 25.8371 22.9603 25.6062 23.2072C25.3753 23.4541 25.0611 23.5974 24.7303 23.6065V23.6065Z" fill="#FF6AD3"/>
<path opacity="0.15" d="M2.51408 6.03865C2.3445 6.04336 2.17559 6.01264 2.01759 5.94833C1.8596 5.88401 1.71571 5.7874 1.59417 5.66419C1.47262 5.54099 1.37579 5.39368 1.30983 5.23096C1.24387 5.06825 1.20947 4.89344 1.20947 4.71683C1.20947 4.54022 1.24387 4.3654 1.30983 4.20269C1.37579 4.03998 1.47262 3.89267 1.59417 3.76946C1.71571 3.64625 1.8596 3.54964 2.01759 3.48533C2.17559 3.42102 2.3445 3.3903 2.51408 3.395H15.8419C16.1728 3.40418 16.4869 3.54749 16.7178 3.79438C16.9487 4.04127 17.0778 4.37223 17.0778 4.71683C17.0778 5.06142 16.9487 5.39242 16.7178 5.63931C16.4869 5.88619 16.1728 6.02948 15.8419 6.03865H2.51408Z" fill="#FF6AD3"/>
<path opacity="0.15" d="M24.7294 6.03867H19.7944C19.4636 6.02949 19.1486 5.88621 18.9177 5.63932C18.6867 5.39244 18.5576 5.06144 18.5576 4.71685C18.5576 4.37225 18.6867 4.04129 18.9177 3.7944C19.1486 3.54751 19.4636 3.4042 19.7944 3.39502H24.7294C25.0603 3.4042 25.3744 3.54751 25.6053 3.7944C25.8362 4.04129 25.9663 4.37225 25.9663 4.71685C25.9663 5.06144 25.8362 5.39244 25.6053 5.63932C25.3744 5.88621 25.0603 6.02949 24.7294 6.03867V6.03867Z" fill="#FF6AD3"/>
<path opacity="0.15" d="M4.73406 14.8228H2.51393C2.1772 14.8228 1.85413 14.6836 1.61602 14.4357C1.37791 14.1878 1.24365 13.8516 1.24365 13.501C1.24365 13.1505 1.37791 12.8142 1.61602 12.5663C1.85413 12.3185 2.1772 12.1792 2.51393 12.1792H4.73406C5.0708 12.1792 5.39386 12.3185 5.63197 12.5663C5.87008 12.8142 6.00346 13.1505 6.00346 13.501C6.00346 13.8516 5.87008 14.1878 5.63197 14.4357C5.39386 14.6836 5.0708 14.8228 4.73406 14.8228Z" fill="#FF6AD3"/>
<path opacity="0.15" d="M24.7302 14.8228H8.87243C8.53569 14.8228 8.21262 14.6836 7.97452 14.4357C7.73641 14.1878 7.60303 13.8516 7.60303 13.501C7.60303 13.1505 7.73641 12.8142 7.97452 12.5663C8.21262 12.3185 8.53569 12.1792 8.87243 12.1792H24.7373C25.074 12.1792 25.3971 12.3185 25.6352 12.5663C25.8733 12.8142 26.0076 13.1505 26.0076 13.501C26.0076 13.8516 25.8733 14.1878 25.6352 14.4357C25.3971 14.6836 25.074 14.8228 24.7373 14.8228H24.7302Z" fill="#FF6AD3"/>
</g>
</g>
<path opacity="0.15" d="M14.135 25.9998C13.9683 25.9999 13.8032 25.9659 13.6491 25.8995C13.495 25.8332 13.3551 25.7359 13.2371 25.6131C13.1192 25.4904 13.0254 25.3447 12.9616 25.1844C12.8977 25.024 12.8647 24.8521 12.8647 24.6785V20.2358C12.8736 19.8913 13.0114 19.564 13.2486 19.3237C13.4857 19.0833 13.804 18.9487 14.135 18.9487C14.466 18.9487 14.7835 19.0833 15.0206 19.3237C15.2578 19.564 15.3956 19.8913 15.4044 20.2358V24.6785C15.4044 25.0289 15.271 25.365 15.0329 25.6128C14.7949 25.8606 14.4716 25.9998 14.135 25.9998V25.9998Z" fill="#FF6AD3"/>
<path opacity="0.15" d="M15.8553 8.26019C15.6887 8.26019 15.5234 8.22601 15.3694 8.1596C15.2154 8.0932 15.0753 7.99585 14.9574 7.87315C14.8396 7.75045 14.7466 7.60479 14.6828 7.44448C14.619 7.28416 14.5859 7.11234 14.5859 6.93882V2.49617C14.5859 2.14573 14.7194 1.80964 14.9574 1.56184C15.1955 1.31404 15.5187 1.1748 15.8553 1.1748C16.192 1.1748 16.5143 1.31404 16.7524 1.56184C16.9904 1.80964 17.1247 2.14573 17.1247 2.49617V6.93882C17.1247 7.11234 17.0917 7.28416 17.0279 7.44448C16.9641 7.60479 16.8702 7.75045 16.7524 7.87315C16.6345 7.99585 16.4953 8.0932 16.3413 8.1596C16.1873 8.22601 16.022 8.26019 15.8553 8.26019V8.26019Z" fill="#FF6AD3"/>
<path opacity="0.15" d="M8.32418 17.0443C7.98748 17.0441 7.66515 16.9047 7.42715 16.6567C7.18915 16.4088 7.05566 16.0726 7.05566 15.7221V11.2803C7.05566 10.9299 7.18913 10.5938 7.42715 10.346C7.66518 10.0982 7.98757 9.95898 8.32418 9.95898C8.6608 9.95898 8.98407 10.0982 9.22209 10.346C9.46012 10.5938 9.59358 10.9299 9.59358 11.2803V15.723C9.59334 16.0734 9.46007 16.4093 9.22209 16.657C8.98412 16.9048 8.66073 17.0441 8.32418 17.0443Z" fill="#FF6AD3"/>
</g>
</g>
<defs>
<clipPath id="clip0">
<rect width="26" height="26" fill="white"/>
</clipPath>
</defs>
</svg>
