<svg xmlns="http://www.w3.org/2000/svg" width="28.843" height="27.705" viewBox="0 0 28.843 27.705">
  <g id="MenuIcon" transform="translate(-10962.157 -319.38)">
    <g id="Group_556" data-name="Group 556">
      <g id="Group_555" data-name="Group 555">
        <g id="Group_554" data-name="Group 554">
          <path id="Path_593" data-name="Path 593" d="M10976.458,343.284h-12.892a1.408,1.408,0,0,1,0-2.817h12.892a1.408,1.408,0,1,1,0,2.817Z" fill="#bb12ee"/>
          <path id="Path_594" data-name="Path 594" d="M10988.212,343.284h-7.355a1.408,1.408,0,0,1,0-2.817h7.355a1.408,1.408,0,0,1,0,2.817Z" fill="#bb12ee"/>
          <path id="Path_595" data-name="Path 595" d="M10978.351,324.564h-14.784a1.408,1.408,0,1,1,0-2.816h14.784a1.408,1.408,0,1,1,0,2.816Z" fill="#bb12ee"/>
          <path id="Path_596" data-name="Path 596" d="M10988.211,324.564h-5.475a1.408,1.408,0,1,1,0-2.816h5.475a1.408,1.408,0,1,1,0,2.816Z" fill="#bb12ee"/>
          <path id="Path_597" data-name="Path 597" d="M10966.029,333.924h-2.463a1.408,1.408,0,1,1,0-2.816h2.463a1.408,1.408,0,1,1,0,2.816Z" fill="#ecb42a"/>
          <path id="Path_598" data-name="Path 598" d="M10970.616,333.925a1.408,1.408,0,0,1,0-2.817h17.6a1.408,1.408,0,1,1,0,2.816Z" fill="#ecb42a"/>
        </g>
      </g>
      <path id="Path_599" data-name="Path 599" d="M10976.458,345.835a1.409,1.409,0,0,1-1.409-1.408v-4.735a1.409,1.409,0,0,1,2.817,0v4.735A1.409,1.409,0,0,1,10976.458,345.835Z" fill="#bb12ee"/>
      <path id="Path_600" data-name="Path 600" d="M10978.366,326.931a1.407,1.407,0,0,1-1.408-1.408v-4.734a1.408,1.408,0,1,1,2.816,0v4.734A1.408,1.408,0,0,1,10978.366,326.931Z" fill="#bb12ee"/>
      <path id="Path_601" data-name="Path 601" d="M10970.012,336.291a1.41,1.41,0,0,1-1.409-1.408v-4.735a1.409,1.409,0,0,1,2.817,0v4.735A1.409,1.409,0,0,1,10970.012,336.291Z" fill="#bb12ee"/>
    </g>
    <g id="Group_559" data-name="Group 559" opacity="0.15">
      <g id="Group_558" data-name="Group 558">
        <g id="Group_557" data-name="Group 557">
          <path id="Path_602" data-name="Path 602" d="M10977.838,344.535h-12.892a1.409,1.409,0,0,1,0-2.817h12.892a1.409,1.409,0,1,1,0,2.817Z" fill="#ff6ad3"/>
          <path id="Path_603" data-name="Path 603" d="M10989.592,344.535h-7.354a1.409,1.409,0,0,1,0-2.817h7.354a1.409,1.409,0,0,1,0,2.817Z" fill="#ff6ad3"/>
          <path id="Path_604" data-name="Path 604" d="M10964.946,325.815a1.409,1.409,0,1,1,0-2.817h14.785a1.409,1.409,0,0,1,0,2.817Z" fill="#ff6ad3"/>
          <path id="Path_605" data-name="Path 605" d="M10989.591,325.815h-5.475a1.409,1.409,0,0,1,0-2.817h5.475a1.409,1.409,0,0,1,0,2.817Z" fill="#ff6ad3"/>
          <path id="Path_606" data-name="Path 606" d="M10967.409,335.175h-2.463a1.408,1.408,0,0,1,0-2.817h2.463a1.408,1.408,0,1,1,0,2.817Z" fill="#ff6ad3"/>
          <path id="Path_607" data-name="Path 607" d="M10989.592,335.175H10972a1.408,1.408,0,0,1,0-2.817h17.6a1.408,1.408,0,0,1,0,2.817Z" fill="#ff6ad3"/>
        </g>
      </g>
      <path id="Path_608" data-name="Path 608" d="M10977.838,347.085a1.408,1.408,0,0,1-1.409-1.408v-4.734a1.409,1.409,0,0,1,2.817,0v4.734A1.408,1.408,0,0,1,10977.838,347.085Z" fill="#ff6ad3"/>
      <path id="Path_609" data-name="Path 609" d="M10979.746,328.182a1.408,1.408,0,0,1-1.408-1.408V322.04a1.408,1.408,0,1,1,2.816,0v4.734A1.408,1.408,0,0,1,10979.746,328.182Z" fill="#ff6ad3"/>
      <path id="Path_610" data-name="Path 610" d="M10971.392,337.542a1.409,1.409,0,0,1-1.408-1.409V331.4a1.408,1.408,0,0,1,2.816,0v4.734A1.409,1.409,0,0,1,10971.392,337.542Z" fill="#ff6ad3"/>
    </g>
  </g>
</svg>
