<svg xmlns="http://www.w3.org/2000/svg" width="31.08" height="32.325" viewBox="0 0 31.08 32.325">
  <g id="MetaMask" transform="translate(-10110.92 -2085.32)">
    <g id="Group_51" data-name="Group 51">
      <path id="Path_62" data-name="Path 62" d="M10118.2,2113.061l-3.664,1-1.866-6.31Z" fill="#e4761b"/>
      <path id="Path_63" data-name="Path 63" d="M10112.592,2107.625l5.684,5.455-3.766,1.029Zm.155.255,1.814,6.136,3.563-.974Z" fill="#e4761b"/>
    </g>
    <g id="Group_52" data-name="Group 52">
      <path id="Path_64" data-name="Path 64" d="M10112.67,2107.753l2,.466,3.534,4.842Z" fill="#e4761b"/>
      <path id="Path_65" data-name="Path 65" d="M10112.542,2107.684l2.146.5,3.8,5.2Zm.255.137,5.115,4.911-3.27-4.479Z" fill="#e4761b"/>
    </g>
    <g id="Group_53" data-name="Group 53">
      <path id="Path_66" data-name="Path 66" d="M10114.666,2108.219l-2-.466,2.745-4.758Zm-2-.466.979-5.982,1.766,1.224Z" fill="#f6851b"/>
      <path id="Path_67" data-name="Path 67" d="M10112.688,2107.8l-.091.157.028-.171-.015,0,.021-.039.988-6.034,1.782,1.235.078-.136-.024.173.009.007-.014.024-.754,5.258Zm.039-.069,1.906.445.715-4.986Zm.949-5.89-.936,5.715,2.624-4.546Z" fill="#f6851b"/>
    </g>
    <g id="Group_54" data-name="Group 54">
      <path id="Path_68" data-name="Path 68" d="M10112.838,2098.459l-.253-1.139,5.079,2.08Zm0,0,4.826.941-4.666.428Z" fill="#763d16"/>
      <path id="Path_69" data-name="Path 69" d="M10112.8,2098.466l-.268-1.209,5.143,2.106.259.051-.11.01.215.088-.376-.073-4.66.428-.037,0Zm.082.041.15,1.28,4.361-.4Zm-.012-.08,4.42.861-4.651-1.905Z" fill="#763d16"/>
    </g>
    <g id="Group_55" data-name="Group 55">
      <path id="Path_70" data-name="Path 70" d="M10117.664,2099.4l-4.015,2.371-.651-1.943Zm-5.079-2.08.253,1.139-.856-.657Zm-.428,1.7.681-.566.16,1.369Z" fill="#763d16"/>
      <path id="Path_71" data-name="Path 71" d="M10112.965,2099.85l-.865-.827.678-.562-.858-.659.69-.55.253,1.138.006,0,.008.068.022.1-.013-.009.146,1.242,4.8-.441-4.2,2.482Zm.085.012.62,1.852,3.828-2.26Zm-.835-.835.733.7-.141-1.194Zm-.172-1.226.735.564-.218-.977Z" fill="#763d16"/>
    </g>
    <g id="Group_56" data-name="Group 56">
      <path id="Path_72" data-name="Path 72" d="M10118.2,2113.061l2.669-1.132,1.27-.406Z" fill="#e2761b"/>
      <path id="Path_73" data-name="Path 73" d="M10118.185,2113.025l2.669-1.132h0l1.271-.406.026.072-3.94,1.537Zm2.7-1.06-.237.1.351-.136Z" fill="#e2761b"/>
    </g>
    <g id="Group_57" data-name="Group 57">
      <path id="Path_74" data-name="Path 74" d="M10112.44,2100.257l.558-.429.651,1.943Zm5.224-.857,1.255.635-5.27,1.736Z" fill="#763d16"/>
      <path id="Path_75" data-name="Path 75" d="M10113.635,2101.816l-.311.1.267-.157-1.205-1.511.632-.485.652,1.949,3.993-2.357,1.354.685-5.32,1.754.056.168Zm4.031-2.372-3.693,2.18,4.847-1.6Zm-5.172.819,1.05,1.316-.565-1.688Z" fill="#763d16"/>
    </g>
    <g id="Group_58" data-name="Group 58">
      <path id="Path_76" data-name="Path 76" d="M10118.919,2100.035l-1.255-.635-1.254-5.958Z" fill="#763d16"/>
      <path id="Path_77" data-name="Path 77" d="M10117.63,2099.426l-1.357-6.455,2.717,7.143Zm.068-.052,1.149.582-2.3-6.044Z" fill="#763d16"/>
    </g>
    <g id="Group_59" data-name="Group 59">
      <path id="Path_78" data-name="Path 78" d="M10116.41,2093.442l1.254,5.958-5.079-2.08Z" fill="#763d16"/>
      <path id="Path_79" data-name="Path 79" d="M10112.518,2097.333l3.915-3.969,1.283,6.1Zm.136-.027,4.959,2.031-1.226-5.818Z" fill="#763d16"/>
    </g>
    <g id="Group_60" data-name="Group 60">
      <path id="Path_80" data-name="Path 80" d="M10112.585,2097.32l-1.476-4.49,5.3.612Z" fill="#763d16"/>
      <path id="Path_81" data-name="Path 81" d="M10111.054,2092.785l5.438.628-3.923,3.978Zm.11.09,1.438,4.373,3.726-3.777Z" fill="#763d16"/>
    </g>
    <g id="Group_61" data-name="Group 61">
      <path id="Path_82" data-name="Path 82" d="M10118.919,2100.035l-3.5,2.96-1.766-1.224Z" fill="#f6851b"/>
      <path id="Path_83" data-name="Path 83" d="M10113.564,2101.759l5.529-1.822-3.676,3.106Zm.169.025,1.68,1.163,3.33-2.814Z" fill="#f6851b"/>
    </g>
    <g id="Group_62" data-name="Group 62">
      <path id="Path_84" data-name="Path 84" d="M10116.41,2093.442l-5.3-.612.229-4.291Z" fill="#763d16"/>
      <path id="Path_85" data-name="Path 85" d="M10111.105,2092.868l-.036,0,.235-4.411,5.212,5.04Zm.044-.072,5.152.6-4.93-4.766Z" fill="#763d16"/>
    </g>
    <g id="Group_63" data-name="Group 63">
      <path id="Path_86" data-name="Path 86" d="M10122.07,2091.017l-.139,5.224-10.593-7.7Z" fill="#e2761b"/>
      <path id="Path_87" data-name="Path 87" d="M10111.164,2088.459l10.914,2.521.031.007-.142,5.328Zm.349.16,10.384,7.549.135-5.121Z" fill="#e2761b"/>
    </g>
    <g id="Group_64" data-name="Group 64">
      <path id="Path_88" data-name="Path 88" d="M10121.932,2096.241l.139-5.224,7.878-.627Z" fill="#f6851b"/>
      <path id="Path_89" data-name="Path 89" d="M10122.032,2090.982l8.048-.641-8.188,5.977Zm.075.071-.136,5.111,7.845-5.725Z" fill="#f6851b"/>
    </g>
    <g id="Group_65" data-name="Group 65">
      <path id="Path_90" data-name="Path 90" d="M10116.41,2093.442l5.521,2.8-3.013,3.794Z" fill="#763d16"/>
      <path id="Path_91" data-name="Path 91" d="M10116.339,2093.363l5.61,2.844.042.021-3.084,3.883Zm.143.158,2.448,6.438,2.943-3.705Z" fill="#763d16"/>
    </g>
    <g id="Group_66" data-name="Group 66">
      <path id="Path_92" data-name="Path 92" d="M10120.334,2103.538l-4.919-.543,3.5-2.96Z" fill="#e4761b"/>
      <path id="Path_93" data-name="Path 93" d="M10115.323,2103.023l3.61-3.051,1.459,3.611Zm.185-.056,4.767.526-1.371-3.4Z" fill="#e4761b"/>
    </g>
    <g id="Group_67" data-name="Group 67">
      <path id="Path_94" data-name="Path 94" d="M10118.919,2100.035l3.013-3.794-1.6,7.3Z" fill="#e4761b"/>
      <path id="Path_95" data-name="Path 95" d="M10118.875,2100.029l3.13-3.941-1.661,7.579Zm.087.012,1.361,3.368,1.536-7.015Z" fill="#e4761b"/>
    </g>
    <g id="Group_68" data-name="Group 68">
      <path id="Path_96" data-name="Path 96" d="M10111.339,2088.539l10.593,7.7-5.521-2.8Z" fill="#763d16"/>
      <path id="Path_97" data-name="Path 97" d="M10116.392,2093.476l0,0-5.467-5.286,11.422,8.3Zm.04-.066,5.092,2.581-9.766-7.1Z" fill="#763d16"/>
    </g>
    <g id="Group_69" data-name="Group 69">
      <path id="Path_98" data-name="Path 98" d="M10130.782,2112.449l-3.4,3.1,2.5-2.609Z" fill="#c0ad9e"/>
      <path id="Path_99" data-name="Path 99" d="M10127.35,2115.52l2.507-2.612,1.185-.643-3.637,3.31Zm2.554-2.551-1.72,1.792,2.34-2.128Z" fill="#c0ad9e"/>
    </g>
    <g id="Group_70" data-name="Group 70">
      <path id="Path_100" data-name="Path 100" d="M10114.666,2108.219l2.348.337,1.187,4.505Z" fill="#cd6116"/>
      <path id="Path_101" data-name="Path 101" d="M10114.581,2108.168l2.438.35.026,0,1.243,4.726Zm.169.1,3.361,4.6-1.128-4.285Z" fill="#cd6116"/>
    </g>
    <g id="Group_71" data-name="Group 71">
      <path id="Path_102" data-name="Path 102" d="M10139.463,2099.844l-3.771-4.008,4.329,4.551Z" fill="#e2761b"/>
      <path id="Path_103" data-name="Path 103" d="M10139.994,2100.414l.055-.054-4.329-4.551-.056.052,3.771,4.009h0Z" fill="#e2761b"/>
    </g>
    <g id="Group_72" data-name="Group 72">
      <path id="Path_104" data-name="Path 104" d="M10115.415,2103l1.6,5.561-2.348-.337Zm14.533-12.605-3.8,5.714-4.216.137Z" fill="#f6851b"/>
      <path id="Path_105" data-name="Path 105" d="M10114.623,2108.251l.78-5.438,1.647,5.732.017.057Zm.086-.064,2.252.322-1.533-5.332Zm15.389-17.954-3.931,5.908-4.358.142Zm-.3.314-7.742,5.652,4.071-.133Z" fill="#f6851b"/>
    </g>
    <g id="Group_73" data-name="Group 73">
      <path id="Path_106" data-name="Path 106" d="M10117.144,2105.84l-.13,2.716-1.6-5.561Z" fill="#e4751f"/>
      <path id="Path_107" data-name="Path 107" d="M10115.3,2102.731l1.883,3.1-.142,2.958Zm.231.528,1.456,5.064.118-2.473Z" fill="#e4751f"/>
    </g>
    <g id="Group_74" data-name="Group 74">
      <path id="Path_108" data-name="Path 108" d="M10117.144,2105.84l-1.729-2.845,4.919.543Z" fill="#cd6116"/>
      <path id="Path_109" data-name="Path 109" d="M10115.342,2102.948l5.094.563-3.3,2.385Zm.146.094,1.667,2.743,3.076-2.22Z" fill="#cd6116"/>
    </g>
    <g id="Group_75" data-name="Group 75">
      <path id="Path_110" data-name="Path 110" d="M10120.334,2103.538l1.6-7.3,4.216-.137Z" fill="#f6851b"/>
      <path id="Path_111" data-name="Path 111" d="M10121.895,2096.233l.007-.029,4.325-.141-5.967,7.631Zm.068.045-1.556,7.1,5.659-7.238Z" fill="#f6851b"/>
    </g>
    <g id="Group_76" data-name="Group 76">
      <path id="Path_112" data-name="Path 112" d="M10129.948,2090.39l7.571-4.811-11.372,10.525Zm11.862,19.672-1.973,7.534-9.882-3.059Z" fill="#e4761b"/>
      <path id="Path_113" data-name="Path 113" d="M10129.838,2114.54l12.029-4.54-1.992,7.606-.01.039Zm.235-.007,9.737,3.015,1.944-7.424Zm-.152-24.171,7.936-5.042-11.92,11.03Zm.054.056-3.618,5.439,10.827-10.019Z" fill="#e4761b"/>
    </g>
    <g id="Group_77" data-name="Group 77">
      <path id="Path_114" data-name="Path 114" d="M10131.692,2100.066l3.128-.727,3.732,2.929Z" fill="#763d16"/>
      <path id="Path_115" data-name="Path 115" d="M10131.548,2100.06l3.281-.762,3.915,3.072Zm.287.011,6.526,2.1-3.551-2.787Z" fill="#763d16"/>
    </g>
    <g id="Group_78" data-name="Group 78">
      <path id="Path_116" data-name="Path 116" d="M10133.145,2092.425l1.676,6.914-3.128.727Z" fill="#763d16"/>
      <path id="Path_117" data-name="Path 117" d="M10133.141,2092.244l1.726,7.123-3.224.749Zm.01.362-1.41,7.409,3.034-.7Z" fill="#763d16"/>
    </g>
    <g id="Group_79" data-name="Group 79">
      <path id="Path_118" data-name="Path 118" d="M10138.553,2102.268l-3.732-2.929,4.643.5Z" fill="#763d16"/>
      <path id="Path_119" data-name="Path 119" d="M10134.691,2099.286l4.824.525-.945,2.52Zm.258.105,3.586,2.815.875-2.33Z" fill="#763d16"/>
    </g>
    <g id="Group_80" data-name="Group 80">
      <path id="Path_120" data-name="Path 120" d="M10120.334,2103.538l-1.263,1.331-1.928.971Z" fill="#cd6116"/>
      <path id="Path_121" data-name="Path 121" d="M10120.642,2103.268l-1.547,1.632-2.363,1.191Zm-.616.54-2.469,1.781,1.491-.751Z" fill="#cd6116"/>
    </g>
    <g id="Group_81" data-name="Group 81">
      <path id="Path_122" data-name="Path 122" d="M10134.82,2099.339l4.972-1.231-.329,1.736Z" fill="#763d16"/>
      <path id="Path_123" data-name="Path 123" d="M10134.6,2099.354l5.238-1.3-.346,1.83Zm.438-.03,4.393.478.312-1.643Z" fill="#763d16"/>
    </g>
    <g id="Group_82" data-name="Group 82">
      <path id="Path_124" data-name="Path 124" d="M10117.144,2105.84l1.928-.971.4,2.187Z" fill="#233447"/>
      <path id="Path_125" data-name="Path 125" d="M10117.06,2105.84l2.04-1.028.422,2.315Zm.168,0,2.19,1.145-.375-2.06Z" fill="#233447"/>
    </g>
    <g id="Group_83" data-name="Group 83">
      <path id="Path_126" data-name="Path 126" d="M10117.144,2105.84l2.325,1.216-2.455,1.5Z" fill="#f6851b"/>
      <path id="Path_127" data-name="Path 127" d="M10117.109,2105.779l2.438,1.275-2.575,1.572Zm.069.123-.123,2.583,2.336-1.426Z" fill="#f6851b"/>
    </g>
    <g id="Group_84" data-name="Group 84">
      <path id="Path_128" data-name="Path 128" d="M10140.2,2096.647l-.405,1.461-4.972,1.231Zm0,0-5.377,2.692-1.676-6.914Zm-8.5,3.419-5.545-3.962,7-3.679Z" fill="#763d16"/>
      <path id="Path_129" data-name="Path 129" d="M10126.074,2096.1l7.026-3.694-.015-.06.061.036.051-.027-.009.051,7.011,4.2.058-.029-.015.055.035.021-.049.023-.405,1.466-4.99,1.236-.039.02,0-.01-.3.074.281-.141-1.626-6.712-1.422,7.467-.011.058Zm.145.01,5.446,3.891,1.428-7.5Zm6.985-3.6,1.642,6.779,5.272-2.639Zm6.933,4.215-4.992,2.5,4.616-1.143Z" fill="#763d16"/>
    </g>
    <g id="Group_85" data-name="Group 85">
      <path id="Path_130" data-name="Path 130" d="M10123.676,2103.653l2.472-7.549,5.545,3.962Zm8.017-3.587-.353,3.426-7.664.161Z" fill="#e4761b"/>
      <path id="Path_131" data-name="Path 131" d="M10123.623,2103.692l-.135,0,.156-.07,2.466-7.533.016-.05,5.57,3.98.041-.018,0,.043.035.026-.04.018-.353,3.439-7.69.161-.071.032Zm8.024-3.564-7.783,3.483,7.44-.156Zm-5.48-3.963-2.428,7.418,7.876-3.525Z" fill="#e4761b"/>
    </g>
    <g id="Group_86" data-name="Group 86">
      <path id="Path_132" data-name="Path 132" d="M10131.34,2103.492l.353-3.426,6.86,2.2Zm-5.192-7.388-2.472,7.549-3.342-.115Z" fill="#f6851b"/>
      <path id="Path_133" data-name="Path 133" d="M10120.257,2103.574l5.994-7.666-2.548,7.784Zm.153-.072,3.239.112,2.393-7.315Zm11.249-3.487,7.055,2.265-7.417,1.258Zm.065.1-.342,3.33,7.009-1.189Z" fill="#f6851b"/>
    </g>
    <g id="Group_87" data-name="Group 87">
      <path id="Path_134" data-name="Path 134" d="M10120.334,2103.538l-.865,3.518-.4-2.187Z" fill="#cd6116"/>
      <path id="Path_135" data-name="Path 135" d="M10119.03,2104.857l1.375-1.45-.941,3.833Zm.083.024.361,1.992.787-3.2Z" fill="#cd6116"/>
    </g>
    <g id="Group_88" data-name="Group 88">
      <path id="Path_136" data-name="Path 136" d="M10133.145,2092.425l-7,3.679,11.372-10.525Z" fill="#763d16"/>
      <path id="Path_137" data-name="Path 137" d="M10137.713,2085.349l-4.536,7.1,0,.009-7.264,3.818Zm-.385.46-10.943,10.126,6.733-3.54Z" fill="#763d16"/>
    </g>
    <g id="Group_89" data-name="Group 89">
      <path id="Path_138" data-name="Path 138" d="M10129.956,2114.537l2.264-4.872,9.591.4Z" fill="#e4761b"/>
      <path id="Path_139" data-name="Path 139" d="M10132.2,2109.625l9.8.407-12.119,4.574Zm.048.079-2.214,4.764,11.592-4.375Z" fill="#e4761b"/>
    </g>
    <g id="Group_90" data-name="Group 90">
      <path id="Path_140" data-name="Path 140" d="M10127.508,2109.435l4.712.23-2.264,4.872Z" fill="#cd6116"/>
      <path id="Path_141" data-name="Path 141" d="M10127.474,2109.452l-.027-.058,4.774.232.058,0-2.322,5Zm.1.025,2.385,4.97,2.206-4.747Z" fill="#cd6116"/>
    </g>
    <g id="Group_91" data-name="Group 91">
      <path id="Path_142" data-name="Path 142" d="M10115.66,2111.745l1.354-3.189,2.455-1.5Zm22.893-9.477,3.258,7.794-10.471-6.57Zm-7.213,1.224,10.471,6.57-9.591-.4Zm-8.6,2.5-3.029-.176.628-2.279Zm-2.4-2.455,3.342.115-.94,2.34Z" fill="#f6851b"/>
      <path id="Path_143" data-name="Path 143" d="M10116.984,2108.529l2.654-1.621-4.12,5.071Zm.06.053-1.243,2.929,3.5-4.306Zm24.755,1.518-9.581-.4h-.032l-.881-6.187-.069-.044.062-.01-.007-.045.058.036,7.229-1.226,3.266,7.81.111.071-.083,0,.022.056Zm-9.546-.472,9.416.39-10.28-6.45Zm-.808-6.115,10.283,6.453-3.2-7.655Zm-8.728,2.518-3.061-.178.634-2.3-.052-.052.065,0,.01-.035.035.036,3.383.116-.952,2.368.052.053-.072,0-.011.029Zm-2.962-.249,2.883.167-2.286-2.337Zm.672-2.2,2.294,2.345.9-2.236Z" fill="#f6851b"/>
    </g>
    <g id="Group_92" data-name="Group 92">
      <path id="Path_144" data-name="Path 144" d="M10120.991,2116.044l8.965-1.507-2.578,1.01Z" fill="#c0ad9e"/>
      <path id="Path_145" data-name="Path 145" d="M10130.313,2114.438l-2.922,1.144,0,0-7.25.565Zm-.716.2-7.752,1.3,5.523-.43Z" fill="#c0ad9e"/>
    </g>
    <g id="Group_93" data-name="Group 93">
      <path id="Path_146" data-name="Path 146" d="M10139.463,2099.844l.559.543-1.469,1.881Z" fill="#763d16"/>
      <path id="Path_147" data-name="Path 147" d="M10139.448,2099.776l.625.607-1.645,2.106Zm.029.136-.8,2.136,1.294-1.658Z" fill="#763d16"/>
    </g>
    <g id="Group_94" data-name="Group 94">
      <path id="Path_148" data-name="Path 148" d="M10129.956,2114.537l-8.965,1.507-1.018-1.117Z" fill="#d7c1b3"/>
      <path id="Path_149" data-name="Path 149" d="M10119.89,2114.892l10.663-.417-9.555,1.606-.021,0Zm.168.07.948,1.041,8.353-1.4Z" fill="#d7c1b3"/>
    </g>
    <g id="Group_95" data-name="Group 95">
      <path id="Path_150" data-name="Path 150" d="M10127.508,2109.435l2.448,5.1-10.464-2.348Z" fill="#e4761b"/>
      <path id="Path_151" data-name="Path 151" d="M10119.352,2112.2l8.145-2.8.032-.011,2.5,5.2Zm.28-.015,10.255,2.3-2.4-5Z" fill="#e4761b"/>
    </g>
    <g id="Group_96" data-name="Group 96">
      <path id="Path_152" data-name="Path 152" d="M10119.974,2114.927l-.481-2.738,10.464,2.348Z" fill="#d7c1b3"/>
      <path id="Path_153" data-name="Path 153" d="M10119.445,2112.139l10.8,2.425-10.308.4Zm.095.1.466,2.648,9.656-.377Z" fill="#d7c1b3"/>
    </g>
    <g id="Group_97" data-name="Group 97">
      <path id="Path_154" data-name="Path 154" d="M10133.145,2092.425l7.4-1.66-.344,5.882Zm6.647,5.683.688.7-1.018,1.033Z" fill="#763d16"/>
      <path id="Path_155" data-name="Path 155" d="M10139.768,2098.028l.767.783-1.132,1.149Zm.049.159-.292,1.54.9-.916Zm-6.691-5.73-.082-.049,7.54-1.692-.351,6Zm.122-.016,6.916,4.14.337-5.768Z" fill="#763d16"/>
    </g>
    <g id="Group_98" data-name="Group 98">
      <path id="Path_156" data-name="Path 156" d="M10123.921,2107.355l-.245-3.7,1.713,1.514Z" fill="#cd6116"/>
      <path id="Path_157" data-name="Path 157" d="M10123.632,2103.563l1.809,1.6-1.551,2.308Zm.088.18.232,3.5,1.387-2.066Z" fill="#cd6116"/>
    </g>
    <g id="Group_99" data-name="Group 99">
      <path id="Path_158" data-name="Path 158" d="M10127.883,2106.46l-2.494-1.293-1.713-1.514Z" fill="#cd6116"/>
      <path id="Path_159" data-name="Path 159" d="M10125.372,2105.2l0,0-2.141-1.891,5.254,3.5Zm.039-.066,1.874.972-3.161-2.109Z" fill="#cd6116"/>
    </g>
    <g id="Group_100" data-name="Group 100">
      <path id="Path_160" data-name="Path 160" d="M10119.469,2107.056l-3.342,4.345-.467.344Z" fill="#f6851b"/>
      <path id="Path_161" data-name="Path 161" d="M10119.44,2107.032l.06.048-3.343,4.344,0,0-.713.525Zm-1.764,2.291-1.8,2.213.221-.163Z" fill="#f6851b"/>
    </g>
    <g id="Group_101" data-name="Group 101">
      <path id="Path_162" data-name="Path 162" d="M10123.676,2103.653l7.664-.161-3.457,2.968Z" fill="#cd6116"/>
      <path id="Path_163" data-name="Path 163" d="M10123.554,2103.617l7.785-.163.107,0-3.561,3.056Zm.244.071,4.082,2.724,3.354-2.879Z" fill="#cd6116"/>
    </g>
    <g id="Group_102" data-name="Group 102">
      <path id="Path_164" data-name="Path 164" d="M10122.735,2105.993l.94-2.34.245,3.7Z" fill="#e4751f"/>
      <path id="Path_165" data-name="Path 165" d="M10122.691,2106l1.012-2.518.263,3.982Zm.088-.015,1.1,1.258-.226-3.421Z" fill="#e4751f"/>
    </g>
    <g id="Group_103" data-name="Group 103">
      <path id="Path_166" data-name="Path 166" d="M10139.792,2098.108l.405-1.461.62.581Z" fill="#763d16"/>
      <path id="Path_167" data-name="Path 167" d="M10140.177,2096.575l.7.654-1.153.989Zm.04.143-.354,1.279.9-.77Z" fill="#763d16"/>
    </g>
    <g id="Group_104" data-name="Group 104">
      <path id="Path_168" data-name="Path 168" d="M10125.389,2105.167l2.494,1.293-3.962.9Z" fill="#233447"/>
      <path id="Path_169" data-name="Path 169" d="M10125.377,2105.118l2.616,1.356-4.158.939Zm.025.1-1.4,2.079,3.767-.85Z" fill="#233447"/>
    </g>
    <g id="Group_105" data-name="Group 105">
      <path id="Path_170" data-name="Path 170" d="M10137.52,2085.579l3.021,5.186-7.4,1.66Z" fill="#763d16"/>
      <path id="Path_171" data-name="Path 171" d="M10137.522,2085.506l3.078,5.285-7.537,1.691Zm0,.146-4.292,6.715,7.256-1.628Z" fill="#763d16"/>
    </g>
    <g id="Group_106" data-name="Group 106">
      <path id="Path_172" data-name="Path 172" d="M10127.378,2115.547l-6.807,1.644.42-1.147Z" fill="#c0ad9e"/>
      <path id="Path_173" data-name="Path 173" d="M10120.964,2116.007l6.889-.536-7.343,1.774Zm.055.073-.388,1.057,6.272-1.515Z" fill="#c0ad9e"/>
    </g>
    <g id="Group_107" data-name="Group 107">
      <path id="Path_174" data-name="Path 174" d="M10123.921,2107.355l3.962-.9-.375,2.975Z" fill="#f6851b"/>
      <path id="Path_175" data-name="Path 175" d="M10123.817,2107.339l4.11-.928-.389,3.086Zm.207.032,3.452,2,.361-2.864Z" fill="#f6851b"/>
    </g>
    <g id="Group_108" data-name="Group 108">
      <path id="Path_176" data-name="Path 176" d="M10127.508,2109.435l.375-2.975,3.457-2.968Z" fill="#e4751f"/>
      <path id="Path_177" data-name="Path 177" d="M10127.845,2106.455l0-.015,3.668-3.148-4.065,6.3Zm.074.024-.352,2.794,3.6-5.58Z" fill="#e4751f"/>
    </g>
    <g id="Group_109" data-name="Group 109">
      <path id="Path_178" data-name="Path 178" d="M10116.127,2111.4l3.579-5.584,3.029.176Zm16.093-1.736-4.712-.23,3.832-5.943Z" fill="#f6851b"/>
      <path id="Path_179" data-name="Path 179" d="M10119.674,2105.8l.012-.019,3.149.183-6.87,5.622Zm.052.06-3.437,5.362,6.346-5.193Zm7.715,3.613,3.923-6.085.894,6.274.007.046Zm.136-.07,4.6.224-.857-6.025Z" fill="#f6851b"/>
    </g>
    <g id="Group_110" data-name="Group 110">
      <path id="Path_180" data-name="Path 180" d="M10123.921,2107.355l-4.949,4.367,3.764-5.729Z" fill="#e4751f"/>
      <path id="Path_181" data-name="Path 181" d="M10122.7,2105.972l.028-.042,1.243,1.428-5.191,4.582Zm.036.084-3.578,5.449,4.706-4.154Z" fill="#e4751f"/>
    </g>
    <g id="Group_111" data-name="Group 111">
      <path id="Path_182" data-name="Path 182" d="M10119.492,2112.189l-.521-.467,4.949-4.367Z" fill="#f6851b"/>
      <path id="Path_183" data-name="Path 183" d="M10118.915,2111.722l5.521-4.873-4.94,5.393Zm.115,0,.46.413,3.916-4.275Z" fill="#f6851b"/>
    </g>
    <g id="Group_112" data-name="Group 112">
      <path id="Path_184" data-name="Path 184" d="M10123.921,2107.355l3.587,2.08-8.016,2.754Zm-1.186-1.362-3.764,5.729-2.845-.321Z" fill="#f6851b"/>
      <path id="Path_185" data-name="Path 185" d="M10123.893,2107.329l.021-.023,3.687,2.138-8.237,2.83Zm.035.074-4.306,4.7,7.794-2.678Zm-7.9,4.026,6.872-5.623-3.913,5.957Zm.188-.056,2.732.309,3.613-5.5Z" fill="#f6851b"/>
    </g>
    <g id="Group_113" data-name="Group 113">
      <path id="Path_186" data-name="Path 186" d="M10120.571,2117.191l-3.971-.643-1.224-2.455Zm-.6-2.264,1.018,1.117-.42,1.147Z" fill="#c0ad9e"/>
      <path id="Path_187" data-name="Path 187" d="M10120.54,2117.225l-3.945-.639-.02,0-1.29-2.589,5.225,3.116-.612-2.324,1.138,1.249-.418,1.139.145.087-.166-.027-.03.084Zm-3.914-.711,3.753.607-4.909-2.928Zm3.425-1.446.526,2,.37-1.012Z" fill="#c0ad9e"/>
    </g>
    <g id="Group_114" data-name="Group 114">
      <path id="Path_188" data-name="Path 188" d="M10120.571,2117.191l-1.348-2.562.75.3Zm-5.194-3.1,3.847.536,1.348,2.562Z" fill="#c0ad9e"/>
      <path id="Path_189" data-name="Path 189" d="M10120.542,2117.218l-5.347-3.189,3.961.552-.014-.026.092.036.015,0,0,0,.754.3.6,2.278.061.116-.037-.021.063.235Zm-4.983-3.061,4.915,2.932-1.273-2.425Zm3.747.545,1.143,2.173-.506-1.92Z" fill="#c0ad9e"/>
    </g>
    <g id="Group_115" data-name="Group 115">
      <path id="Path_190" data-name="Path 190" d="M10118.047,2112.319l-2.861-.344.941-.574Z" fill="#161616"/>
      <path id="Path_191" data-name="Path 191" d="M10115.072,2112l1.053-.642,2.148,1.028Zm.228-.049,2.521.3-1.691-.809Z" fill="#161616"/>
    </g>
    <g id="Group_116" data-name="Group 116">
      <path id="Path_192" data-name="Path 192" d="M10116.127,2111.4l2.845.321-.925.6Zm-.75,2.692-.482-1.744,3.48.421Z" fill="#161616"/>
      <path id="Path_193" data-name="Path 193" d="M10114.843,2112.3l3.675.444-3.166,1.4Zm.1.089.455,1.646,2.831-1.249Zm.958-1.057,3.178.359-1.034.666Zm.442.127,1.7.811.817-.527Z" fill="#161616"/>
    </g>
    <g id="Group_117" data-name="Group 117">
      <path id="Path_194" data-name="Path 194" d="M10118.375,2112.77l.849,1.859-3.847-.536Zm1.117-.581.481,2.738-.75-.3Zm-1.445.13.925-.6.521.467Zm.328.451-3.48-.421.291-.374Z" fill="#161616"/>
      <path id="Path_195" data-name="Path 195" d="M10119.215,2114.666l-3.976-.553,2.994-1.322-3.409-.412.347-.448,3.2.8.022-.01.009.017.579.145-.543-.066.763,1.671.247-2.256-1.555.14,1.081-.7.486.437.021-.193.045.251.055.05-.046,0,.487,2.765Zm.051-.062.658.262-.423-2.407Zm-3.75-.53,3.646.507-.8-1.761Zm-.549-1.754,2.8.338-2.567-.64Zm4-.55-.77.5,1.2-.108Z" fill="#161616"/>
    </g>
    <g id="Group_118" data-name="Group 118">
      <path id="Path_196" data-name="Path 196" d="M10115.186,2111.975l2.861.344.328.451Zm4.038,2.654-.849-1.859,1.117-.581Z" fill="#161616"/>
      <path id="Path_197" data-name="Path 197" d="M10118.348,2112.8l-3.766-.94,3.469.418.018,0,.318.438,1.151-.6-.291,2.649Zm.085-.02.035.05-.024-.007.759,1.661.244-2.231Zm-2.643-.7,2.493.621-.258-.352Z" fill="#161616"/>
    </g>
    <g id="Group_119" data-name="Group 119">
      <path id="Path_198" data-name="Path 198" d="M10119.492,2112.189l-1.117.581-.328-.451Z" fill="#161616"/>
      <path id="Path_199" data-name="Path 199" d="M10117.976,2112.287l1.705-.154-1.316.686Zm.142.064.27.37.916-.477Z" fill="#161616"/>
    </g>
  </g>
</svg>
