<svg xmlns="http://www.w3.org/2000/svg" width="20.161" height="20.25" viewBox="0 0 20.161 20.25">
  <g id="OpenLink" transform="translate(-8508.839 -561.413)">
    <g id="Group_582" data-name="Group 582">
      <path id="Path_647" data-name="Path 647" d="M8526.587,580.717h-14.478a2.416,2.416,0,0,1-2.413-2.413V563.826a2.416,2.416,0,0,1,2.413-2.413h5.248a.965.965,0,1,1,0,1.93h-5.248a.483.483,0,0,0-.482.483V578.3a.482.482,0,0,0,.482.482h14.478a.484.484,0,0,0,.483-.482V574a.965.965,0,1,1,1.93,0V578.3A2.416,2.416,0,0,1,8526.587,580.717Z" fill="#bb12ee"/>
      <path id="Path_648" data-name="Path 648" d="M8528.99,562.283c0-.031,0-.061-.009-.092a1.194,1.194,0,0,0-.035-.119c-.007-.02-.012-.041-.02-.061a1.01,1.01,0,0,0-.065-.125c-.009-.013-.015-.028-.022-.041a.987.987,0,0,0-.27-.27c-.019-.012-.037-.02-.057-.031a1.037,1.037,0,0,0-.109-.058c-.028-.011-.058-.017-.086-.026a.737.737,0,0,0-.095-.028.894.894,0,0,0-.179-.018H8521.7a.965.965,0,0,0,0,1.93h4l-7.039,7.039a.965.965,0,1,0,1.365,1.365l7.04-7.039v4.638a.965.965,0,1,0,1.93,0v-6.968A.762.762,0,0,0,8528.99,562.283Z" fill="#ecb42a"/>
    </g>
    <g id="Group_583" data-name="Group 583" opacity="0.15">
      <path id="Path_649" data-name="Path 649" d="M8525.73,581.663h-14.479a2.416,2.416,0,0,1-2.413-2.413V564.772a2.415,2.415,0,0,1,2.413-2.413h5.248a.965.965,0,0,1,0,1.93h-5.248a.484.484,0,0,0-.483.483V579.25a.484.484,0,0,0,.483.482h14.479a.482.482,0,0,0,.481-.482v-4.307a.965.965,0,1,1,1.931,0v4.307A2.416,2.416,0,0,1,8525.73,581.663Z" fill="#ff6ad3"/>
      <path id="Path_650" data-name="Path 650" d="M8527.178,571.257a.966.966,0,0,1-.966-.965v-6h-5.369a.965.965,0,0,1,0-1.93h6.335a.965.965,0,0,1,.965.965v6.968A.965.965,0,0,1,8527.178,571.257Z" fill="#ff6ad3"/>
      <path id="Path_651" data-name="Path 651" d="M8518.49,572.976a.966.966,0,0,1-.683-1.648l8.688-8.686a.965.965,0,0,1,1.364,1.364l-8.687,8.687A.96.96,0,0,1,8518.49,572.976Z" fill="#ff6ad3"/>
    </g>
  </g>
</svg>
