<svg width="20" height="20" viewBox="0 0 20 20" fill="none" xmlns="http://www.w3.org/2000/svg">
<path d="M16.8906 19.304H2.41309C1.77336 19.3032 1.15938 19.0487 0.707031 18.5964C0.254678 18.144 0.000793867 17.5307 0 16.891V2.41296C0.000793867 1.77324 0.254678 1.15993 0.707031 0.707581C1.15938 0.255227 1.77336 0.000793867 2.41309 0H7.66113C7.78786 -4.27286e-08 7.91319 0.0249295 8.03027 0.0734253C8.14735 0.121921 8.25316 0.192984 8.34277 0.282593C8.43238 0.372201 8.50424 0.478624 8.55273 0.595703C8.60123 0.712782 8.62598 0.83824 8.62598 0.964966C8.62598 1.09169 8.60123 1.21721 8.55273 1.33429C8.50424 1.45137 8.43238 1.55773 8.34277 1.64734C8.25316 1.73695 8.14735 1.80801 8.03027 1.85651C7.91319 1.905 7.78786 1.92999 7.66113 1.92999H2.41309C2.28516 1.93026 2.16263 1.98123 2.07227 2.07178C1.9819 2.16233 1.93066 2.28504 1.93066 2.41296V16.887C1.93066 17.0148 1.98187 17.1374 2.07227 17.2278C2.16266 17.3182 2.28525 17.369 2.41309 17.369H16.8906C17.0185 17.3687 17.141 17.3179 17.2314 17.2276C17.3219 17.1373 17.3735 17.0148 17.374 16.887V12.587C17.374 12.331 17.4753 12.0856 17.6562 11.9046C17.8372 11.7236 18.0829 11.6219 18.3389 11.6219C18.5948 11.6219 18.8405 11.7236 19.0215 11.9046C19.2025 12.0856 19.3037 12.331 19.3037 12.587V16.887C19.304 17.5274 19.0501 18.1417 18.5977 18.5949C18.1452 19.0481 17.531 19.3032 16.8906 19.304Z" fill="url(#paint0_linear)"/>
<path d="M19.2939 0.869995C19.2939 0.838995 19.2942 0.808954 19.2852 0.777954C19.2756 0.737708 19.2637 0.69803 19.25 0.658997C19.243 0.638997 19.2375 0.617962 19.2295 0.597962C19.2108 0.554833 19.1896 0.513064 19.165 0.472962C19.156 0.459962 19.1496 0.444946 19.1426 0.431946C19.071 0.325229 18.9798 0.233554 18.873 0.161987C18.854 0.149987 18.8354 0.141982 18.8154 0.130982C18.7803 0.1095 18.7445 0.0901494 18.707 0.0729982C18.679 0.0619982 18.6491 0.0559972 18.6211 0.0469972C18.5901 0.0355443 18.5576 0.0261747 18.5254 0.0189821C18.4665 0.0069786 18.4068 0.000942704 18.3467 0.000976705H12.0039C11.748 0.000976705 11.5023 0.102658 11.3213 0.283631C11.1403 0.464603 11.0391 0.71007 11.0391 0.966004C11.0391 1.22194 11.1403 1.46734 11.3213 1.64832C11.5023 1.82929 11.748 1.93097 12.0039 1.93097H16.0039L8.96484 8.96997C8.87522 9.0596 8.80437 9.16598 8.75586 9.28308C8.70735 9.40018 8.68164 9.52571 8.68164 9.65247C8.68164 9.77922 8.70735 9.90475 8.75586 10.0219C8.80437 10.139 8.87522 10.2453 8.96484 10.335C9.05447 10.4246 9.16122 10.4957 9.27832 10.5442C9.39542 10.5927 9.52071 10.6177 9.64746 10.6177C9.77421 10.6177 9.8995 10.5927 10.0166 10.5442C10.1337 10.4957 10.2405 10.4246 10.3301 10.335L17.3701 3.29596V7.93396C17.3701 8.18989 17.4714 8.43536 17.6523 8.61633C17.8333 8.79731 18.079 8.89899 18.335 8.89899C18.5909 8.89899 18.8356 8.79731 19.0166 8.61633C19.1976 8.43536 19.2998 8.18989 19.2998 7.93396V0.966004C19.2998 0.933909 19.298 0.901837 19.2939 0.869995V0.869995Z" fill="url(#paint1_linear)"/>
<g opacity="0.15">
<path opacity="0.15" d="M16.8926 19.304H2.41309C1.77336 19.3032 1.16036 19.0487 0.708008 18.5964C0.255655 18.144 0.000793867 17.5307 0 16.891V2.41296C0.00052964 1.77316 0.254621 1.15975 0.707031 0.707336C1.15944 0.254926 1.77328 0.00052964 2.41309 0H7.66113C7.91707 8.62944e-08 8.16278 0.101681 8.34375 0.282654C8.52472 0.463626 8.62598 0.709032 8.62598 0.964966C8.62598 1.2209 8.52472 1.46637 8.34375 1.64734C8.16278 1.82831 7.91707 1.92999 7.66113 1.92999H2.41309C2.28507 1.93026 2.16279 1.98125 2.07227 2.07178C1.98174 2.1623 1.92995 2.28495 1.92969 2.41296V16.891C1.93022 17.0188 1.98177 17.1413 2.07227 17.2316C2.16276 17.3219 2.28524 17.3727 2.41309 17.373H16.8926C17.0202 17.3727 17.1422 17.3218 17.2324 17.2314C17.3226 17.1411 17.373 17.0187 17.373 16.891V12.584C17.373 12.3279 17.4752 12.0824 17.6562 11.9013C17.8373 11.7202 18.0828 11.6185 18.3389 11.6185C18.5949 11.6185 18.8404 11.7202 19.0215 11.9013C19.2026 12.0824 19.3037 12.3279 19.3037 12.584V16.891C19.3029 17.5305 19.0488 18.1437 18.5967 18.596C18.1445 19.0483 17.5321 19.303 16.8926 19.304Z" fill="url(#paint2_linear)"/>
<path opacity="0.15" d="M18.3398 8.89795C18.0838 8.89795 17.8384 8.7963 17.6572 8.61536C17.4761 8.43441 17.3743 8.18895 17.374 7.93292V1.93292H12.0049C11.7489 1.93292 11.5032 1.83124 11.3223 1.65027C11.1413 1.4693 11.04 1.22389 11.04 0.967957C11.04 0.712023 11.1413 0.466556 11.3223 0.285583C11.5032 0.104611 11.7489 0.00292969 12.0049 0.00292969H18.3398C18.4666 0.00292969 18.5919 0.0279202 18.709 0.076416C18.8261 0.124912 18.9329 0.195975 19.0225 0.285583C19.1121 0.375192 19.1829 0.481554 19.2314 0.598633C19.2799 0.715712 19.3047 0.841231 19.3047 0.967957V7.93591C19.3039 8.19133 19.2024 8.43601 19.0215 8.61633C18.8406 8.79666 18.5953 8.89795 18.3398 8.89795Z" fill="url(#paint3_linear)"/>
<path opacity="0.15" d="M9.65232 10.6169C9.46149 10.6167 9.27481 10.5599 9.11619 10.4538C8.95757 10.3477 8.83378 10.197 8.76072 10.0207C8.68766 9.8444 8.66897 9.65046 8.70603 9.46326C8.7431 9.27606 8.834 9.10403 8.96873 8.96888L17.6572 0.282903C17.84 0.111588 18.0825 0.0180415 18.333 0.0220994C18.5835 0.0261572 18.8219 0.127486 18.999 0.304631C19.1761 0.481777 19.2781 0.720829 19.2822 0.971318C19.2863 1.22181 19.1928 1.46406 19.0215 1.64686L10.334 10.3339C10.2446 10.4237 10.1385 10.495 10.0215 10.5436C9.90441 10.5922 9.77905 10.6171 9.65232 10.6169V10.6169Z" fill="url(#paint4_linear)"/>
</g>
<defs>
<linearGradient id="paint0_linear" x1="9.65186" y1="0" x2="9.65186" y2="19.304" gradientUnits="userSpaceOnUse">
<stop stop-color="#CFA8F7"/>
<stop offset="1" stop-color="#CFA8F7"/>
</linearGradient>
<linearGradient id="paint1_linear" x1="13.9907" y1="0.000976562" x2="13.9907" y2="10.6177" gradientUnits="userSpaceOnUse">
<stop stop-color="#CFB3F7"/>
<stop offset="1" stop-color="#CFA8F7"/>
</linearGradient>
<linearGradient id="paint2_linear" x1="9.65186" y1="0" x2="9.65186" y2="19.304" gradientUnits="userSpaceOnUse">
<stop stop-color="#CFB4F7"/>
<stop offset="1" stop-color="#CFA8F7"/>
</linearGradient>
<linearGradient id="paint3_linear" x1="15.1724" y1="0.00292969" x2="15.1724" y2="8.89795" gradientUnits="userSpaceOnUse">
<stop stop-color="#CFB4F7"/>
<stop offset="1" stop-color="#CFA8F7"/>
</linearGradient>
<linearGradient id="paint4_linear" x1="13.9849" y1="0.0219727" x2="13.9849" y2="10.6169" gradientUnits="userSpaceOnUse">
<stop stop-color="#CFB4F7"/>
<stop offset="1" stop-color="#CFA8F7"/>
</linearGradient>
</defs>
</svg>
