<svg xmlns="http://www.w3.org/2000/svg" width="28" height="28" viewBox="0 0 28 28">
  <g id="RecentIcon" transform="translate(-11005.5 -320)">
    <path id="Path_589" data-name="Path 589" d="M11018.5,346a13,13,0,1,1,13-13A13.015,13.015,0,0,1,11018.5,346Zm0-23a10,10,0,1,0,10,10A10.012,10.012,0,0,0,11018.5,323Z" fill="#bb12ee"/>
    <path id="Path_590" data-name="Path 590" d="M11024,334.5h-5.5a1.5,1.5,0,0,1-1.5-1.5v-8a1.5,1.5,0,0,1,3,0v6.5h4a1.5,1.5,0,0,1,0,3Z" fill="#ecb42a"/>
    <path id="Path_591" data-name="Path 591" d="M11020.5,348a13,13,0,1,1,13-13A13.015,13.015,0,0,1,11020.5,348Zm0-23a10,10,0,1,0,10,10A10.012,10.012,0,0,0,11020.5,325Z" fill="#ff6ad3" opacity="0.1"/>
    <path id="Path_592" data-name="Path 592" d="M11026,336.5h-5.5a1.5,1.5,0,0,1-1.5-1.5v-8a1.5,1.5,0,0,1,3,0v6.5h4a1.5,1.5,0,0,1,0,3Z" fill="#ff6ad3" opacity="0.1"/>
  </g>
</svg>
