<svg width="26" height="26" viewBox="0 0 26 26" fill="none" xmlns="http://www.w3.org/2000/svg">
<g clip-path="url(#clip0)">
<path d="M12.9999 26C10.4288 26 7.91511 25.2376 5.77727 23.8091C3.63944 22.3807 1.97313 20.3503 0.989189 17.9749C0.0052495 15.5995 -0.251677 12.9856 0.249931 10.4638C0.751539 7.94209 1.98947 5.62571 3.80755 3.80763C5.62563 1.98954 7.94205 0.751405 10.4638 0.249797C12.9856 -0.251811 15.5991 0.00563413 17.9745 0.989573C20.35 1.97351 22.381 3.63976 23.8095 5.7776C25.238 7.91544 25.9999 10.4289 25.9999 13C25.996 16.4466 24.6255 19.7509 22.1884 22.188C19.7513 24.6251 16.4465 25.996 12.9999 26V26ZM12.9999 3.00001C11.0221 3.00001 9.08876 3.5865 7.44427 4.68531C5.79978 5.78413 4.51755 7.34591 3.76067 9.17317C3.0038 11.0004 2.80646 13.0111 3.19231 14.9509C3.57817 16.8907 4.53012 18.6726 5.92864 20.0711C7.32717 21.4696 9.10895 22.422 11.0488 22.8079C12.9886 23.1937 14.9998 22.9957 16.8271 22.2388C18.6543 21.4819 20.2156 20.2002 21.3144 18.5557C22.4132 16.9112 22.9999 14.9778 22.9999 13C22.9968 10.3488 21.942 7.80712 20.0673 5.93244C18.1926 4.05777 15.6511 3.00319 12.9999 3.00001Z" fill="#C637C1"/>
<path d="M18.5 14.5H13C12.6022 14.5 12.2208 14.342 11.9395 14.0607C11.6581 13.7794 11.5 13.3978 11.5 13V5C11.5 4.60218 11.6581 4.22064 11.9395 3.93933C12.2208 3.65803 12.6022 3.5 13 3.5C13.3978 3.5 13.7792 3.65803 14.0605 3.93933C14.3419 4.22064 14.5 4.60218 14.5 5V11.5H18.5C18.8978 11.5 19.2792 11.658 19.5605 11.9393C19.8419 12.2206 20 12.6022 20 13C20 13.3978 19.8419 13.7794 19.5605 14.0607C19.2792 14.342 18.8978 14.5 18.5 14.5Z" fill="#E8A839"/>
<path opacity="0.1" d="M12.9999 26C10.4288 26 7.91511 25.2376 5.77727 23.8091C3.63944 22.3807 1.97313 20.3503 0.989189 17.9749C0.0052495 15.5995 -0.251677 12.9856 0.249931 10.4638C0.751539 7.94209 1.98947 5.62571 3.80755 3.80763C5.62563 1.98954 7.94205 0.751405 10.4638 0.249797C12.9856 -0.251811 15.5991 0.00563413 17.9745 0.989573C20.35 1.97351 22.381 3.63976 23.8095 5.7776C25.238 7.91544 25.9999 10.4289 25.9999 13C25.996 16.4466 24.6255 19.7509 22.1884 22.188C19.7513 24.6251 16.4465 25.996 12.9999 26ZM12.9999 3.00001C11.0221 3.00001 9.08876 3.5865 7.44427 4.68531C5.79978 5.78413 4.51755 7.34591 3.76067 9.17317C3.0038 11.0004 2.80646 13.0111 3.19231 14.9509C3.57817 16.8907 4.53012 18.6726 5.92864 20.0711C7.32717 21.4696 9.10895 22.422 11.0488 22.8079C12.9886 23.1937 14.9998 22.9957 16.8271 22.2388C18.6543 21.4819 20.2156 20.2002 21.3144 18.5557C22.4132 16.9112 22.9999 14.9778 22.9999 13C22.9968 10.3488 21.942 7.80712 20.0673 5.93244C18.1926 4.05777 15.6511 3.00319 12.9999 3.00001Z" fill="#FF6AD3"/>
<path opacity="0.1" d="M18.5 14.5H13C12.6022 14.5 12.2208 14.342 11.9395 14.0607C11.6581 13.7794 11.5 13.3978 11.5 13V5C11.5 4.60218 11.6581 4.22064 11.9395 3.93933C12.2208 3.65803 12.6022 3.5 13 3.5C13.3978 3.5 13.7792 3.65803 14.0605 3.93933C14.3419 4.22064 14.5 4.60218 14.5 5V11.5H18.5C18.8978 11.5 19.2792 11.658 19.5605 11.9393C19.8419 12.2206 20 12.6022 20 13C20 13.3978 19.8419 13.7794 19.5605 14.0607C19.2792 14.342 18.8978 14.5 18.5 14.5Z" fill="#FF6AD3"/>
</g>
<defs>
<clipPath id="clip0">
<rect width="26" height="26" fill="white"/>
</clipPath>
</defs>
</svg>
