<svg width="329" height="224" viewBox="0 0 329 224" fill="none" xmlns="http://www.w3.org/2000/svg">
<path d="M196.351 111.985C193.325 108.958 189.22 107.258 184.945 107.258C180.669 107.258 176.564 108.958 173.539 111.985L116.419 169.215V16.17C116.419 11.8815 114.718 7.76896 111.691 4.73657C108.665 1.70418 104.565 0 100.285 0C96.0053 0 91.8958 1.70418 88.8694 4.73657C85.8429 7.76896 84.1513 11.8815 84.1513 16.17V168.579L27.0321 111.348C23.9663 108.537 19.9284 107.019 15.7737 107.111C11.619 107.203 7.66137 108.897 4.72218 111.841C1.78299 114.785 0.0975113 118.751 0.00410168 122.913C-0.0893079 127.076 1.41565 131.115 4.21983 134.188L87.5298 217.643C89.0212 219.614 90.9444 221.213 93.1541 222.316C95.3637 223.419 97.7971 223.995 100.266 224H100.551C104.826 223.998 108.923 222.297 111.948 219.27L196.292 134.754C199.295 131.732 200.991 127.644 201 123.38C201.009 119.115 199.341 115.02 196.351 111.985V111.985Z" fill="url(#paint0_linear)"/>
<path d="M132.649 112.015C135.675 115.042 139.78 116.742 144.055 116.742C148.331 116.742 152.436 115.042 155.461 112.015L212.581 54.7849V207.83C212.581 212.118 214.282 216.231 217.309 219.263C220.335 222.296 224.435 224 228.715 224C232.995 224 237.104 222.296 240.131 219.263C243.157 216.231 244.849 212.118 244.849 207.83V55.4214L301.968 112.652C305.034 115.463 309.072 116.981 313.226 116.889C317.381 116.797 321.339 115.103 324.278 112.159C327.217 109.215 328.902 105.249 328.996 101.087C329.089 96.9238 327.584 92.8853 324.78 89.8123L241.47 6.35695C239.979 4.38599 238.056 2.78654 235.846 1.68391C233.636 0.581288 231.203 0.00501046 228.734 -1.04113e-05H228.449C224.174 0.00197443 220.077 1.70311 217.052 4.72978L132.708 89.2461C129.705 92.2677 128.009 96.3559 128 100.62C127.991 104.885 129.659 108.98 132.649 112.015V112.015Z" fill="url(#paint1_linear)"/>
<defs>
<linearGradient id="paint0_linear" x1="0" y1="112" x2="201" y2="112" gradientUnits="userSpaceOnUse">
<stop stop-color="#CFC5F7"/>
<stop offset="0.894" stop-color="#CFA8F7"/>
</linearGradient>
<linearGradient id="paint1_linear" x1="329" y1="112" x2="128" y2="112" gradientUnits="userSpaceOnUse">
<stop stop-color="#CFC5F7"/>
<stop offset="0.894" stop-color="#CFA8F7"/>
</linearGradient>
</defs>
</svg>
