<svg xmlns="http://www.w3.org/2000/svg" xmlns:xlink="http://www.w3.org/1999/xlink" width="281.72" height="327.702" viewBox="0 0 281.72 327.702">
  <defs>
    <clipPath id="clip-path">
      <path id="Path_1" data-name="Path 1" d="M131.851,343.851V327.564a40.163,40.163,0,0,1-40-40V136.278H59.839L131.852,35.119l72.013,101.159H171.856v71.157H147.748a12.085,12.085,0,0,0-10.845,6.251,11.068,11.068,0,0,0,.705,12.1L176.347,280.2l41.66,58.52a12.586,12.586,0,0,0,20.281,0l41.659-58.52,38.738-54.418a11.069,11.069,0,0,0,.707-12.1,12.086,12.086,0,0,0-10.846-6.251H284.439V72.44a56.456,56.456,0,0,0-56.291-56.291V32.436a40.163,40.163,0,0,1,40,40V223.721H300.16l-72.013,101.16-72.013-101.16h32.01V152.565h24.107a12.084,12.084,0,0,0,10.846-6.251,11.069,11.069,0,0,0-.706-12.1L183.652,79.8,141.993,21.28a12.587,12.587,0,0,0-20.282,0L80.052,79.8,41.314,134.218a11.067,11.067,0,0,0-.706,12.1,12.084,12.084,0,0,0,10.846,6.251H75.56V287.56a56.457,56.457,0,0,0,56.291,56.291" fill="none" clip-rule="evenodd"/>
    </clipPath>
    <linearGradient id="linear-gradient" x1="0.01" y1="0.5" x2="0.99" y2="0.5" gradientUnits="objectBoundingBox">
      <stop offset="0" stop-color="#cfc5f7"/>
      <stop offset="0.89" stop-color="#cfa8f7"/>
      <stop offset="1" stop-color="#cfa8f7"/>
    </linearGradient>
  </defs>
  <g id="swap" transform="translate(-39.14 -16.149)" clip-path="url(#clip-path)">
    <rect id="Rectangle_1" data-name="Rectangle 1" width="283.145" height="327.702" transform="translate(38.427 16.149)" fill="url(#linear-gradient)"/>
  </g>
</svg>
