<svg xmlns="http://www.w3.org/2000/svg" xmlns:xlink="http://www.w3.org/1999/xlink" viewBox="0 0 192 12.48"><defs><style>.cls-1{fill:none;clip-rule:evenodd;}.cls-2,.cls-3{fill:#fff;}.cls-2{fill-rule:evenodd;}.cls-4{clip-path:url(#clip-path);}.cls-5{fill:url(#linear-gradient);}</style><clipPath id="clip-path"><path class="cls-1" d="M23.07,12.37h6.14c-1.06-2-2-4.09-3.1-6.14-1.07,2.06-2,4.08-3,6.14"/></clipPath><linearGradient id="linear-gradient" x1="26.14" y1="6.23" x2="26.14" y2="12.37" gradientUnits="userSpaceOnUse"><stop offset="0" stop-color="#ecb42a"/><stop offset="0.41" stop-color="#e8a839"/><stop offset="0.71" stop-color="#c637c1"/><stop offset="1" stop-color="#bb12ee"/></linearGradient></defs><title>Asset 1</title><g id="Layer_2" data-name="Layer 2"><g id="Layer_1-2" data-name="Layer 1"><path class="cls-2" d="M59.15.07v12.3H53L46.55,2.74v9.63H42.92V.07H49l6.33,9.61V.07ZM40.22.07v12.3H36.61V.07Zm-11.5,0,6.37,12.3H31.18c-1.74-3.34-3.29-6.69-5.07-10-1.75,3.36-3.31,6.67-5,10h-4L23.37.07Zm-12.3,8c0,1.73-.37,2.88-1.13,3.44a5.42,5.42,0,0,1-3.25.84q-.91,0-2.28.06l-1.39.05c-3,0-5.21-.32-6.47-1S0,9.53,0,7.59V5.3Q0,2,1.82,1t6-1H9.43a13.72,13.72,0,0,1,5.44.75c1,.5,1.54,1.58,1.54,3.25H12.57a1.41,1.41,0,0,0-.46-1.21,2.92,2.92,0,0,0-1.67-.35H6.7c-1.23,0-2,.23-2.3.69A4,4,0,0,0,3.94,5.3V7.65c0,1.1.26,1.76.77,2A11.61,11.61,0,0,0,8.37,10a21.21,21.21,0,0,0,3.26-.17c.68-.11,1-.74,1-1.9H8V5.7h8.46Z"/><path class="cls-3" d="M192,12.48H180.65V0h1.65V11.11H192ZM177.31,7.53V5.88a17.37,17.37,0,0,0-.1-2.28A2.64,2.64,0,0,0,176.48,2a2.19,2.19,0,0,0-1.15-.47,11.44,11.44,0,0,0-1.81-.11h-4.69c-1.07,0-1.74,0-2,.05a2,2,0,0,0-1.4.6,3.58,3.58,0,0,0-.65,1.66,18.1,18.1,0,0,0-.07,2V7.48a8.25,8.25,0,0,0,.18,1.8,2.81,2.81,0,0,0,.5,1.16,1.94,1.94,0,0,0,1.17.51,19.8,19.8,0,0,0,2.59.13h4.34a16.08,16.08,0,0,0,1.71-.08,2.74,2.74,0,0,0,1.3-.38,2.35,2.35,0,0,0,.66-1.3A8.3,8.3,0,0,0,177.31,7.53Zm1.67.38a7.86,7.86,0,0,1-.25,2.08,3.49,3.49,0,0,1-1,1.69,2.89,2.89,0,0,1-1.36.59,14.32,14.32,0,0,1-2.84.21h-5.8a9.34,9.34,0,0,1-2-.19,2.87,2.87,0,0,1-1.87-1.06,4.56,4.56,0,0,1-.61-1.38A9,9,0,0,1,163,7.63V5.22a10.26,10.26,0,0,1,.28-2.57,3.41,3.41,0,0,1,1-1.85,3.9,3.9,0,0,1,1.91-.65A15.6,15.6,0,0,1,168.46,0h5.28a15.19,15.19,0,0,1,2,.11,3.65,3.65,0,0,1,2.21.93,3.9,3.9,0,0,1,.81,1.71A11.91,11.91,0,0,1,179,5.31Zm-17.61,1.4a4.63,4.63,0,0,1-.11,1.07,2.39,2.39,0,0,1-.44.87,3.21,3.21,0,0,1-2,1.05,10.6,10.6,0,0,1-2.1.18H152a9.65,9.65,0,0,1-3.11-.37,3,3,0,0,1-1.17-.81,4.33,4.33,0,0,1-.8-2.13,12.22,12.22,0,0,1-.18-2V5.48a13.06,13.06,0,0,1,.18-2.35,3.87,3.87,0,0,1,1-2.21,3.13,3.13,0,0,1,1.59-.77,10.59,10.59,0,0,1,2-.13h4.62a10.54,10.54,0,0,1,3.29.36,2.4,2.4,0,0,1,1.3,1,2.72,2.72,0,0,1,.38.93,3.94,3.94,0,0,1,.08.8v1h-1.58V3.26a3.51,3.51,0,0,0-.05-.78,1.14,1.14,0,0,0-.41-.63,2,2,0,0,0-1-.38,11.26,11.26,0,0,0-1.58-.08h-5.32a7.14,7.14,0,0,0-1.42.1,1.28,1.28,0,0,0-.77.48,3.11,3.11,0,0,0-.61,1.67,19.84,19.84,0,0,0-.09,2.25V7.35a11.51,11.51,0,0,0,.1,1.52,3.91,3.91,0,0,0,.5,1.51,1.91,1.91,0,0,0,1.22.6,8.38,8.38,0,0,0,1.59.13h4.43c.65,0,1.17,0,1.55-.06a3.4,3.4,0,0,0,1.44-.41,1.33,1.33,0,0,0,.53-1c0-.18,0-.44,0-.79v-.6h1.63Zm-18-1.78V5.88a17.37,17.37,0,0,0-.1-2.28A2.59,2.59,0,0,0,142.5,2a2.19,2.19,0,0,0-1.15-.47,11.44,11.44,0,0,0-1.81-.11h-4.69c-1.06,0-1.73,0-2,.05a2,2,0,0,0-1.4.6,3.57,3.57,0,0,0-.64,1.66,17.38,17.38,0,0,0-.08,2V7.48a7.65,7.65,0,0,0,.19,1.8,2.68,2.68,0,0,0,.5,1.16,1.93,1.93,0,0,0,1.16.51,20,20,0,0,0,2.6.13h4.33A15.81,15.81,0,0,0,141.2,11a2.7,2.7,0,0,0,1.3-.38,2.35,2.35,0,0,0,.67-1.3A8.36,8.36,0,0,0,143.33,7.53Zm1.68.38a7.84,7.84,0,0,1-.26,2.08,3.48,3.48,0,0,1-1,1.69,2.93,2.93,0,0,1-1.37.59,14.32,14.32,0,0,1-2.84.21h-5.8a9.24,9.24,0,0,1-2-.19,2.89,2.89,0,0,1-1.88-1.06,4.31,4.31,0,0,1-.6-1.38,8.49,8.49,0,0,1-.25-2.22V5.22a10.74,10.74,0,0,1,.28-2.57,3.54,3.54,0,0,1,1-1.85,3.94,3.94,0,0,1,1.92-.65A15.45,15.45,0,0,1,134.48,0h5.28a15.19,15.19,0,0,1,2,.11,3.65,3.65,0,0,1,2.21.93,3.9,3.9,0,0,1,.81,1.71A11.26,11.26,0,0,1,145,5.31ZM127.75,1.39h-6.09V12.48h-1.43V1.39h-6.3V0h13.82ZM111,7.53V5.88a16.92,16.92,0,0,0-.11-2.28A2.59,2.59,0,0,0,110.13,2,2.12,2.12,0,0,0,109,1.5a11.66,11.66,0,0,0-1.82-.11h-4.69c-1.06,0-1.73,0-2,.05a2,2,0,0,0-1.4.6,3.57,3.57,0,0,0-.64,1.66,17.38,17.38,0,0,0-.08,2V7.48a7.65,7.65,0,0,0,.19,1.8,2.68,2.68,0,0,0,.5,1.16,1.93,1.93,0,0,0,1.16.51,20,20,0,0,0,2.6.13h4.33a15.81,15.81,0,0,0,1.71-.08,2.7,2.7,0,0,0,1.3-.38,2.35,2.35,0,0,0,.67-1.3A8.3,8.3,0,0,0,111,7.53Zm1.67.38a7.84,7.84,0,0,1-.26,2.08,3.4,3.4,0,0,1-1,1.69,2.93,2.93,0,0,1-1.36.59,14.5,14.5,0,0,1-2.85.21h-5.79a9.28,9.28,0,0,1-2-.19,2.89,2.89,0,0,1-1.88-1.06,4.55,4.55,0,0,1-.6-1.38,8.49,8.49,0,0,1-.25-2.22V5.22A10.22,10.22,0,0,1,97,2.65,3.47,3.47,0,0,1,98,.8,3.94,3.94,0,0,1,99.9.15,15.45,15.45,0,0,1,102.11,0h5.28a15.19,15.19,0,0,1,2,.11,3.65,3.65,0,0,1,2.21.93,3.9,3.9,0,0,1,.81,1.71,11.26,11.26,0,0,1,.25,2.54ZM93.43,4.42V3.73a3.12,3.12,0,0,0-.13-1,2,2,0,0,0-.61-.83A2.46,2.46,0,0,0,92,1.53a2.28,2.28,0,0,0-.82-.14H82.67V6.2h8.5a4.19,4.19,0,0,0,1-.09,1.58,1.58,0,0,0,.69-.38,2,2,0,0,0,.48-.6A1.55,1.55,0,0,0,93.43,4.42Zm1.56,0a3.5,3.5,0,0,1-.16,1.09,1.68,1.68,0,0,1-.53.79,3.69,3.69,0,0,1-.75.46l-.6.18a4.24,4.24,0,0,1,.84.37,2.37,2.37,0,0,1,.71.62,2.27,2.27,0,0,1,.38.74,3.09,3.09,0,0,1,.11.92v2.89H93.3V9.24a1.46,1.46,0,0,0-.17-.71,2.91,2.91,0,0,0-.54-.64,1,1,0,0,0-.52-.25,4.1,4.1,0,0,0-.74,0H82.66v4.89H81V0h10.4a4.18,4.18,0,0,1,2.65.79A2.16,2.16,0,0,1,94.8,2,4.72,4.72,0,0,1,95,3.35Zm-17.28-.8a3.15,3.15,0,0,0-.16-1.08A1.67,1.67,0,0,0,77,1.75a1.39,1.39,0,0,0-.6-.27,3.55,3.55,0,0,0-.82-.09H66.92V6.2h8.3a7.11,7.11,0,0,0,1,0,2.37,2.37,0,0,0,.9-.39,1.2,1.2,0,0,0,.47-.56,2.29,2.29,0,0,0,.13-.79Zm1.62.85a3.78,3.78,0,0,1-.15,1.09,2.43,2.43,0,0,1-.75,1.17,4,4,0,0,1-1.06.64,3.09,3.09,0,0,1-1.2.22H66.92v4.89H65.29V0H75.85a7.5,7.5,0,0,1,1.47.12A2.32,2.32,0,0,1,78.4.69a2.35,2.35,0,0,1,.71,1.06,4.56,4.56,0,0,1,.22,1.5Z"/><g class="cls-4"><rect class="cls-5" x="23.07" y="6.23" width="6.14" height="6.14"/></g></g></g></svg>