<svg width="431" height="27" viewBox="0 0 431 27" fill="none" xmlns="http://www.w3.org/2000/svg">
<g clip-path="url(#clip0)">
<path fill-rule="evenodd" clip-rule="evenodd" d="M36.8711 17.4498C36.8711 21.1843 36.0194 23.66 34.3158 24.8738C32.6122 26.0875 30.1796 26.6944 27.0198 26.6944C25.6621 26.6944 23.9585 26.7348 21.9074 26.8142C19.8563 26.8951 18.817 26.934 18.7895 26.934C11.9445 26.934 7.10205 26.2276 4.26058 24.8131C1.42073 23.3986 0 20.5977 0 16.4087V11.4464C0 6.72377 1.36416 3.63498 4.0941 2.18161C6.82404 0.728244 11.2931 0 17.4997 0H21.1574C27.0052 0 31.0783 0.539944 33.3783 1.62141C35.6783 2.70133 36.8291 5.04321 36.8291 8.64551H28.2239C28.2239 7.39132 27.8764 6.51837 27.1846 6.02354C26.4912 5.53027 25.2451 5.28285 23.4429 5.28285H15.0462C12.2742 5.28285 10.5496 5.77768 9.87077 6.76423C9.19193 7.75078 8.8525 9.31151 8.8525 11.4464V16.5286C8.8525 18.9031 9.42791 20.3378 10.5771 20.8311C11.7279 21.3244 14.4643 21.5718 18.7879 21.5718C22.1418 21.5718 24.5808 21.452 26.1049 21.2123C27.6291 20.9727 28.392 19.5987 28.392 17.0903H17.8747V12.3272H36.8728V17.4498H36.8711ZM64.4744 0.16028L78.7738 26.7333H70.0022C66.0988 19.51 62.6156 12.2665 58.6121 5.00277C54.686 12.2727 51.1884 19.4369 47.4288 26.7333H38.4082L52.4588 0.16028H64.4728H64.4744ZM90.2884 0.16028V26.7333H82.1826V0.16028H90.2884ZM132.773 0.16028V26.7333H118.971L104.505 5.92239V26.7333H96.3576V0.16028H110.033L124.25 20.9307V0.16028H132.771H132.773Z" fill="#4B4B4B"/>
<path d="M178.077 9.66004C178.077 10.5128 177.963 11.3017 177.728 12.0253C177.386 13.099 176.818 13.9455 176.041 14.5539C175.259 15.1685 174.468 15.626 173.667 15.9341C172.865 16.2422 171.968 16.3916 170.967 16.3916H150.207V26.9698H146.558V0.0357373H170.256C171.582 0.0357373 172.684 0.122873 173.558 0.303377C174.438 0.477657 175.246 0.871352 175.986 1.47978C176.728 2.09442 177.258 2.86623 177.588 3.78742C177.913 4.71484 178.076 5.79476 178.076 7.01783V9.65692L178.077 9.66004ZM174.426 7.82077C174.426 6.91047 174.313 6.12775 174.077 5.47732C173.848 4.82843 173.427 4.25892 172.812 3.7781C172.504 3.51668 172.058 3.32061 171.48 3.19301C170.901 3.06075 170.287 2.99539 169.635 2.99539H150.207V13.4008H168.847C169.907 13.4008 170.647 13.3666 171.076 13.2904C171.767 13.1565 172.443 12.878 173.093 12.4485C173.599 12.1186 173.943 11.7125 174.135 11.2363C174.328 10.7602 174.425 10.1922 174.425 9.51999V7.81921L174.426 7.82077ZM213.234 9.55579C213.234 10.3914 213.108 11.1741 212.86 11.9055C212.607 12.6368 212.215 13.211 211.674 13.6171C211.139 14.0279 210.578 14.3594 209.999 14.6192C209.114 14.8807 208.663 15.0083 208.643 15.0083C209.24 15.1763 209.865 15.4377 210.523 15.8034C211.175 16.1629 211.711 16.6032 212.127 17.1307C212.537 17.6582 212.825 18.1982 212.988 18.7428C213.15 19.2875 213.235 19.9488 213.235 20.7268V26.9729H209.44V19.9784C209.44 19.3808 209.308 18.8704 209.047 18.4363C208.789 18.0006 208.391 17.5431 207.85 17.0623C207.543 16.7837 207.15 16.6048 206.675 16.5239C206.204 16.4367 205.652 16.3963 205.013 16.3963H185.548V26.9744H181.897V0.0404101H205.241C207.687 0.0404101 209.668 0.614592 211.186 1.76297C211.915 2.30137 212.456 3.13232 212.801 4.24025C213.09 5.15055 213.235 6.15421 213.235 7.24968V9.55733L213.234 9.55579ZM209.728 9.54956V8.07129C209.728 7.12676 209.631 6.38917 209.439 5.86789C209.191 5.20034 208.727 4.59658 208.058 4.05818C207.691 3.77964 207.21 3.53067 206.613 3.31593C206.017 3.10119 205.403 2.99695 204.769 2.99695H185.577L185.546 13.4024H204.625C205.493 13.4024 206.204 13.3386 206.759 13.2048C207.318 13.0772 207.837 12.8049 208.318 12.3816C208.794 11.963 209.149 11.5398 209.384 11.0994C209.613 10.6637 209.728 10.1487 209.728 9.55112V9.54956ZM252.849 17.0887C252.849 18.7537 252.657 20.2491 252.271 21.5842C251.813 23.1792 251.089 24.396 250.108 25.2503C249.512 25.7887 248.493 26.2073 247.048 26.5154C245.602 26.8235 243.475 26.9729 240.669 26.9729C240.519 26.9729 240.397 26.9729 240.325 26.9729C239.938 26.9729 239.571 26.9729 239.222 26.9729C238.88 26.9729 238.542 26.9729 238.217 26.9729H228.548C228.453 26.9729 228.325 26.9729 228.168 26.9729C228.018 26.9729 227.843 26.9729 227.651 26.9729C225.957 26.9729 224.457 26.8344 223.151 26.5559C221.073 26.1155 219.67 25.3546 218.934 24.2824C218.338 23.4126 217.887 22.4152 217.578 21.2901C217.211 19.9566 217.03 18.3554 217.03 16.4881V11.2752C217.03 9.14653 217.24 7.29636 217.662 5.72473C218.162 3.88078 218.928 2.54569 219.946 1.73497C220.772 1.06742 222.206 0.597472 224.247 0.320492C225.615 0.135319 227.265 0.0419676 229.211 0.0419676C229.615 0.0419676 229.982 0.0419676 230.307 0.0419676C230.632 0.0419676 230.932 0.0419676 231.205 0.0419676H241.073C242.862 0.0419676 244.344 0.12288 245.519 0.290935C247.941 0.64572 249.597 1.31172 250.483 2.29204C251.309 3.19612 251.91 4.43163 252.292 5.99704C252.665 7.56245 252.851 9.38929 252.851 11.4775V17.0918L252.849 17.0887ZM249.09 16.2656V12.7037C249.09 10.407 249.012 8.7653 248.86 7.77875C248.589 6.10909 248.041 4.93113 247.215 4.24646C246.576 3.72517 245.721 3.38752 244.643 3.23191C243.565 3.07631 242.209 2.99383 240.577 2.99383H230.04C227.654 2.99383 226.15 3.02806 225.51 3.10431C223.956 3.28948 222.907 3.72519 222.366 4.41608C221.617 5.37929 221.136 6.5728 220.926 7.99972C220.811 8.79954 220.751 10.2451 220.751 12.3443V16.1551C220.751 17.5991 220.89 18.8984 221.167 20.0468C221.451 21.2014 221.824 22.0355 222.293 22.5692C222.763 23.0967 223.636 23.4562 224.907 23.6538C226.179 23.8452 228.118 23.9432 230.732 23.9432H238.642H240.462C241.997 23.9432 243.281 23.8856 244.299 23.7752C245.763 23.6071 246.733 23.3286 247.215 22.9395C247.908 22.3825 248.408 21.4488 248.715 20.1324C248.962 19.0774 249.088 17.7843 249.088 16.264L249.09 16.2656ZM286.759 2.99539H273.097V26.9713H269.88V2.99539H255.747V0.0372949H286.759V2.99539ZM325.512 17.0887C325.512 18.7537 325.32 20.2491 324.933 21.5842C324.476 23.1792 323.752 24.396 322.771 25.2503C322.174 25.7887 321.156 26.2073 319.711 26.5154C318.264 26.8235 316.137 26.9729 313.331 26.9729C313.181 26.9729 313.06 26.9729 312.987 26.9729C312.602 26.9729 312.234 26.9729 311.885 26.9729C311.542 26.9729 311.204 26.9729 310.88 26.9729H301.211C301.115 26.9729 300.988 26.9729 300.831 26.9729C300.681 26.9729 300.506 26.9729 300.314 26.9729C298.621 26.9729 297.12 26.8344 295.814 26.5559C293.735 26.1155 292.331 25.3546 291.597 24.2824C291.001 23.4126 290.55 22.4152 290.241 21.2901C289.874 19.9566 289.693 18.3554 289.693 16.4881V11.2752C289.693 9.14653 289.903 7.29636 290.325 5.72473C290.824 3.88078 291.591 2.54569 292.609 1.73497C293.435 1.06742 294.868 0.597472 296.91 0.320492C298.277 0.135319 299.927 0.0419676 301.873 0.0419676C302.278 0.0419676 302.644 0.0419676 302.969 0.0419676C303.294 0.0419676 303.595 0.0419676 303.868 0.0419676H313.736C315.525 0.0419676 317.007 0.12288 318.182 0.290935C320.603 0.64572 322.26 1.31172 323.146 2.29204C323.97 3.19612 324.573 4.43163 324.953 5.99704C325.326 7.56245 325.512 9.38929 325.512 11.4775V17.0918V17.0887ZM321.752 16.2656V12.7037C321.752 10.407 321.675 8.7653 321.523 7.77875C321.251 6.10909 320.703 4.93113 319.877 4.24646C319.239 3.72517 318.384 3.38752 317.306 3.23191C316.228 3.07631 314.872 2.99383 313.239 2.99383H302.703C300.317 2.99383 298.812 3.02806 298.172 3.10431C296.619 3.28948 295.57 3.72519 295.028 4.41608C294.282 5.37929 293.798 6.5728 293.588 7.99972C293.474 8.79954 293.414 10.2451 293.414 12.3443V16.1551C293.414 17.5991 293.553 18.8984 293.829 20.0468C294.112 21.2014 294.485 22.0355 294.956 22.5692C295.426 23.0967 296.299 23.4562 297.569 23.6538C298.841 23.8452 300.781 23.9432 303.394 23.9432H311.305H313.125C314.66 23.9432 315.943 23.8856 316.962 23.7752C318.426 23.6071 319.396 23.3286 319.877 22.9395C320.571 22.3825 321.07 21.4488 321.377 20.1324C321.625 19.0774 321.751 17.7843 321.751 16.264L321.752 16.2656ZM362.241 20.1215C362.241 21.0318 362.157 21.7974 361.994 22.4292C361.83 23.0609 361.499 23.688 360.999 24.3136C360.149 25.4044 358.645 26.1575 356.469 26.5808C355.155 26.8422 353.59 26.9698 351.757 26.9698C351.3 26.9698 351.011 26.9698 350.89 26.9698H341.19C338.051 26.9698 335.727 26.7037 334.201 26.1637C333.243 25.8276 332.359 25.2472 331.563 24.4116C330.762 23.576 330.172 22.051 329.785 19.8243C329.514 18.2698 329.381 16.8086 329.381 15.4346V13.2126C329.381 13.0274 329.381 12.8235 329.381 12.5979C329.381 12.3785 329.381 12.128 329.381 11.8494C329.381 9.84833 329.514 8.14909 329.785 6.76263C330.207 4.53589 330.967 2.94714 332.063 1.97771C332.984 1.14833 334.177 0.591259 335.641 0.312723C336.6 0.12755 338.075 0.0341797 340.051 0.0341797H341.9H347.61C348.067 0.0341797 348.531 0.0341797 349.008 0.0341797C349.478 0.0341797 349.954 0.0341797 350.435 0.0341797C353.893 0.0341797 356.357 0.2956 357.815 0.812216C359.104 1.25258 360.075 1.97149 360.731 2.96893C361.135 3.58358 361.425 4.25736 361.593 4.99338C361.707 5.50844 361.767 6.0842 361.767 6.71596C361.767 7.13921 361.767 7.42396 361.767 7.5749V8.84621H358.224V7.56401C358.224 7.32593 358.224 7.14543 358.224 7.0365C358.224 6.21801 358.189 5.66249 358.11 5.36528C357.977 4.82688 357.663 4.36783 357.188 3.99593C356.627 3.56646 355.898 3.29416 355.008 3.17278C354.109 3.05141 352.936 2.99227 351.471 2.99227C351.032 2.99227 350.7 2.99227 350.49 2.99227H339.527C338.105 2.99227 337.033 3.06697 336.322 3.21324C335.611 3.36418 335.032 3.70652 334.592 4.24492C333.899 5.04007 333.448 6.24602 333.236 7.85811C333.097 8.8789 333.031 10.4972 333.031 12.724V15.8906C333.031 17.0981 333.109 18.1935 333.26 19.1739C333.495 20.6008 333.868 21.6854 334.387 22.4276C334.827 23.036 335.743 23.4717 337.128 23.7332C338.147 23.9183 339.328 24.0117 340.678 24.0117C340.985 24.0117 341.261 24.0117 341.515 24.0117C341.762 24.0117 341.99 24.0117 342.208 24.0117H349.732C350.101 24.0117 350.395 24.0117 350.629 24.0117C352.087 24.0117 353.251 23.965 354.117 23.8732C355.575 23.7285 356.647 23.4328 357.335 22.9971C358.016 22.5614 358.413 21.8145 358.528 20.7579C358.57 20.3689 358.588 19.8072 358.588 19.0649V17.7594H362.238V20.1199L362.241 20.1215ZM401.784 17.0887C401.784 18.7537 401.591 20.2491 401.205 21.5842C400.748 23.1792 400.024 24.396 399.042 25.2503C398.446 25.7887 397.428 26.2073 395.983 26.5154C394.536 26.8235 392.409 26.9729 389.603 26.9729C389.453 26.9729 389.332 26.9729 389.259 26.9729C388.873 26.9729 388.506 26.9729 388.157 26.9729C387.814 26.9729 387.476 26.9729 387.151 26.9729H377.483C377.387 26.9729 377.26 26.9729 377.103 26.9729C376.952 26.9729 376.778 26.9729 376.586 26.9729C374.892 26.9729 373.392 26.8344 372.086 26.5559C370.007 26.1155 368.604 25.3546 367.869 24.2824C367.272 23.4126 366.821 22.4152 366.513 21.2901C366.146 19.9566 365.965 18.3554 365.965 16.4881V11.2752C365.965 9.14653 366.175 7.29636 366.597 5.72473C367.096 3.88078 367.862 2.54569 368.879 1.73497C369.705 1.06742 371.139 0.597472 373.18 0.320492C374.547 0.135319 376.198 0.0419676 378.144 0.0419676C378.548 0.0419676 378.915 0.0419676 379.24 0.0419676C379.564 0.0419676 379.865 0.0419676 380.138 0.0419676H390.006C391.795 0.0419676 393.277 0.12288 394.452 0.290935C396.873 0.64572 398.53 1.31172 399.416 2.29204C400.242 3.19612 400.843 4.43163 401.224 5.99704C401.598 7.56245 401.784 9.38929 401.784 11.4775V17.0918V17.0887ZM398.024 16.2656V12.7037C398.024 10.407 397.945 8.7653 397.795 7.77875C397.523 6.10909 396.975 4.93113 396.149 4.24646C395.511 3.72517 394.656 3.38752 393.578 3.23191C392.5 3.07631 391.144 2.99383 389.511 2.99383H378.974C376.589 2.99383 375.084 3.02806 374.444 3.10431C372.891 3.28948 371.842 3.72519 371.3 4.41608C370.552 5.37929 370.07 6.5728 369.86 7.99972C369.745 8.79954 369.686 10.2451 369.686 12.3443V16.1551C369.686 17.5991 369.825 18.8984 370.101 20.0468C370.385 21.2014 370.757 22.0355 371.227 22.5692C371.698 23.0967 372.571 23.4562 373.841 23.6538C375.113 23.8452 377.053 23.9432 379.666 23.9432H387.576H389.396C390.932 23.9432 392.215 23.8856 393.233 23.7752C394.698 23.6071 395.668 23.3286 396.149 22.9395C396.843 22.3825 397.342 21.4488 397.649 20.1324C397.896 19.0774 398.023 17.7843 398.023 16.264L398.024 16.2656ZM431 26.9713H405.513V0.0372949H409.235V24.0132H431V26.9713Z" fill="#4B4B4B"/>
<path fill-rule="evenodd" clip-rule="evenodd" d="M51.778 26.7349H65.5587C63.1762 22.325 61.0491 17.9026 58.6053 13.4678C56.2083 17.9057 54.0732 22.2814 51.778 26.7349Z" fill="url(#paint0_linear)"/>
</g>
<defs>
<linearGradient id="paint0_linear" x1="58.615" y1="13.4678" x2="58.6165" y2="26.7349" gradientUnits="userSpaceOnUse">
<stop stop-color="#ECB42A"/>
<stop offset="0.411765" stop-color="#E8A839"/>
<stop offset="0.709804" stop-color="#C637C1"/>
<stop offset="1" stop-color="#BB12EE"/>
</linearGradient>
<clipPath id="clip0">
<rect width="431" height="26.9745" fill="white"/>
</clipPath>
</defs>
</svg>
