<?xml version="1.0" encoding="UTF-8"?>
<!DOCTYPE svg PUBLIC "-//W3C//DTD SVG 1.1//EN" "http://www.w3.org/Graphics/SVG/1.1/DTD/svg11.dtd">
<!-- Creator: CorelDRAW 2019 (64-Bit) -->
<svg xmlns="http://www.w3.org/2000/svg" xml:space="preserve" width="4.63763in" height="4.63759in" version="1.1" style="shape-rendering:geometricPrecision; text-rendering:geometricPrecision; image-rendering:optimizeQuality; fill-rule:evenodd; clip-rule:evenodd"
viewBox="0 0 211.27 211.27"
 xmlns:xlink="http://www.w3.org/1999/xlink">
 <defs>
  <style type="text/css">
   <![CDATA[
    .fil1 {fill:white}
    .fil0 {fill:url(#id0)}
   ]]>
  </style>
  <linearGradient id="id0" gradientUnits="userSpaceOnUse" x1="169.43" y1="221.82" x2="74.25" y2="24.84">
   <stop offset="0" style="stop-opacity:1; stop-color:#ECB42A"/>
   <stop offset="0.478431" style="stop-opacity:1; stop-color:#E8A839"/>
   <stop offset="0.811765" style="stop-opacity:1; stop-color:#C637C1"/>
   <stop offset="1" style="stop-opacity:1; stop-color:#BB12EE"/>
  </linearGradient>
 </defs>
 <g id="Layer_x0020_1">
  <metadata id="CorelCorpID_0Corel-Layer"/>
  <g id="_1092823440">
   <path class="fil0" d="M121.53 99.74l2.43 2.43 -18.56 18.56 -2.43 -2.43 18.56 -18.56zm-27.4 -3.91l2.43 2.43 -6.82 6.82 -2.43 -2.43 6.82 -6.82zm7.83 0l2.43 2.43 -10.73 10.73 -2.43 -2.43 10.73 -10.73zm7.83 0l2.43 2.43 -14.65 14.65 -2.43 -2.43 14.65 -14.65zm-53.19 57.18l-9.62 0.79 -1.03 -22.98 9.66 -0.07 1 22.25zm61.02 -57.18l2.43 2.43 -18.56 18.56 -2.43 -2.43 18.56 -18.56zm-59.35 -37.9l10.68 -0.48 17.07 -0.77c4.89,-0.22 9.07,3.76 9.2,6.48l28.57 -2.36 0.89 19.93 -0 0 -28.66 0.21c-0.59,4.57 -6.82,8.17 -13.75,11.88 -0.07,-2.24 -0.17,-5.38 -0.23,-7.62l-0.11 0 -15.17 0.68 -12.57 0.56c-1.61,0.07 -2.99,-1.19 -3.06,-2.79l0 0c-0.07,-1.61 1.19,-2.99 2.8,-3.06l13.29 -0.6 0.13 -1.63 -11.7 0.52c-1.61,0.07 -2.98,-1.19 -3.06,-2.8l0 0c-0.07,-1.61 1.19,-2.98 2.79,-3.06l12.42 -0.56 0.13 -1.63 -10.83 0.49c-1.61,0.07 -2.99,-1.19 -3.06,-2.8l0 0c-0.07,-1.61 1.19,-2.98 2.8,-3.06l11.55 -0.52 0.13 -1.63 -9.96 0.45c-1.61,0.07 -2.99,-1.19 -3.06,-2.8l0 0c-0.07,-1.61 1.19,-2.98 2.79,-3.06zm95.08 0.34l0.48 10.68 0.77 17.07c0.22,4.89 -3.76,9.07 -6.48,9.2l2.36 28.57 -19.93 0.89 0 -0 -0.21 -28.66c-4.57,-0.59 -8.17,-6.82 -11.88,-13.75 2.24,-0.07 5.38,-0.17 7.62,-0.23l-0 -0.11 -0.68 -15.17 -0.56 -12.57c-0.07,-1.61 1.19,-2.99 2.79,-3.06l0 0c1.61,-0.07 2.99,1.19 3.06,2.8l0.6 13.29 1.63 0.13 -0.52 -11.7c-0.07,-1.61 1.19,-2.98 2.8,-3.06l0 0c1.61,-0.07 2.98,1.19 3.06,2.79l0.56 12.42 1.63 0.13 -0.49 -10.83c-0.07,-1.61 1.19,-2.99 2.8,-3.06l0 0c1.61,-0.07 2.98,1.19 3.06,2.8l0.52 11.55 1.63 0.13 -0.45 -9.96c-0.07,-1.61 1.19,-2.99 2.8,-3.06l0 0c1.61,-0.07 2.98,1.19 3.06,2.79zm1.33 -0.01l9.62 -0.79 1.03 22.98 -9.66 0.07 -1 -22.25zm-1.67 95.08l-10.68 0.48 -17.07 0.77c-4.89,0.22 -9.07,-3.76 -9.2,-6.48l-28.57 2.36 -0.89 -19.93 0 0 28.66 -0.21c0.59,-4.57 6.82,-8.17 13.75,-11.88 0.07,2.24 0.17,5.38 0.23,7.62l0.11 -0 15.17 -0.68 12.57 -0.56c1.61,-0.07 2.99,1.19 3.06,2.79l0 0c0.07,1.61 -1.19,2.99 -2.8,3.06l-13.29 0.6 -0.13 1.63 11.7 -0.52c1.61,-0.07 2.98,1.19 3.06,2.8l0 0c0.07,1.61 -1.19,2.98 -2.79,3.06l-12.42 0.56 -0.13 1.63 10.83 -0.49c1.61,-0.07 2.99,1.19 3.06,2.8l0 0c0.07,1.61 -1.19,2.98 -2.8,3.06l-11.55 0.52 -0.13 1.63 9.96 -0.45c1.61,-0.07 2.99,1.19 3.06,2.8l0 0c0.07,1.61 -1.19,2.98 -2.79,3.06zm0.01 1.33l0.79 9.62 -22.98 1.03 -0.07 -9.66 22.25 -1zm-95.08 -1.67l-0.48 -10.68 -0.77 -17.07c-0.22,-4.89 3.76,-9.07 6.48,-9.2l-2.36 -28.57 19.93 -0.89 0 0 0.21 28.66c4.57,0.59 8.17,6.82 11.88,13.75 -2.24,0.07 -5.38,0.17 -7.62,0.23l0.01 0.11 0.68 15.17 0.56 12.57c0.07,1.61 -1.19,2.99 -2.79,3.06l0 0c-1.61,0.07 -2.99,-1.19 -3.06,-2.8l-0.6 -13.29 -1.63 -0.13 0.52 11.7c0.07,1.61 -1.19,2.98 -2.8,3.06l0 0c-1.61,0.07 -2.98,-1.19 -3.06,-2.79l-0.56 -12.42 -1.63 -0.13 0.49 10.83c0.07,1.61 -1.19,2.99 -2.8,3.06l0 0c-1.61,0.07 -2.98,-1.19 -3.06,-2.8l-0.52 -11.55 -1.63 -0.13 0.45 9.96c0.07,1.61 -1.19,2.99 -2.8,3.06l0 0c-1.61,0.07 -2.98,-1.19 -3.06,-2.79zm0.33 -96.4l-0.79 -9.62 22.98 -1.03 0.07 9.66 -22.25 1z"/>
   <path class="fil1" d="M211.27 105.64c0,-58.34 -47.3,-105.64 -105.64,-105.64 -58.34,0 -105.64,47.29 -105.64,105.64 0,58.34 47.3,105.64 105.64,105.64 58.34,0 105.64,-47.29 105.64,-105.64zm-105.64 -98.55c54.43,0 98.55,44.12 98.55,98.55 0,54.43 -44.12,98.55 -98.55,98.55 -54.43,0 -98.55,-44.12 -98.55,-98.55 0,-54.43 44.12,-98.55 98.55,-98.55z"/>
  </g>
 </g>
</svg>
