<?xml version="1.0" encoding="UTF-8"?>
<!DOCTYPE svg PUBLIC "-//W3C//DTD SVG 1.1//EN" "http://www.w3.org/Graphics/SVG/1.1/DTD/svg11.dtd">
<!-- Creator: CorelDRAW 2019 (64-Bit) -->
<svg xmlns="http://www.w3.org/2000/svg" xml:space="preserve" width="4.63763in" height="4.6376in" version="1.1" style="shape-rendering:geometricPrecision; text-rendering:geometricPrecision; image-rendering:optimizeQuality; fill-rule:evenodd; clip-rule:evenodd"
viewBox="0 0 211.27 211.27"
 xmlns:xlink="http://www.w3.org/1999/xlink">
 <defs>
  <style type="text/css">
   <![CDATA[
    .fil1 {fill:white}
    .fil0 {fill:url(#id0)}
   ]]>
  </style>
  <linearGradient id="id0" gradientUnits="userSpaceOnUse" x1="181.54" y1="232.79" x2="62" y2="19.33">
   <stop offset="0" style="stop-opacity:1; stop-color:#ECB42A"/>
   <stop offset="0.478431" style="stop-opacity:1; stop-color:#E8A839"/>
   <stop offset="0.811765" style="stop-opacity:1; stop-color:#C637C1"/>
   <stop offset="1" style="stop-opacity:1; stop-color:#BB12EE"/>
  </linearGradient>
 </defs>
 <g id="Layer_x0020_1">
  <metadata id="CorelCorpID_0Corel-Layer"/>
  <g id="_1091917888">
   <path class="fil0" d="M155.55 109.58l2.78 2.57 -21.2 36.21 -2.78 -2.57 21.2 -36.21zm-31.3 6.37l2.78 2.57 -7.79 13.31 -2.78 -2.57 7.79 -13.3zm8.94 -3.5l2.78 2.57 -12.26 20.94 -2.78 -2.57 12.26 -20.94zm8.94 -3.5l2.78 2.57 -16.74 28.59 -2.78 -2.57 16.74 -28.59zm8.94 -3.5l2.78 2.57 -21.2 36.21 -2.78 -2.57 21.2 -36.21zm-53.97 -18.45l0 -6.71 11.54 0 0 6.71 -11.54 0zm12.05 13.27l50.71 -29.34c1.94,-1.12 1.7,-3.1 -0.54,-4.39l-49.63 -28.71c-2.24,-1.29 -5.65,-1.44 -7.59,-0.31l-50.71 29.34c-1.94,1.12 -1.7,3.1 0.54,4.39l49.63 28.71c2.24,1.29 5.65,1.43 7.59,0.31zm-0.19 -23.64l-11.86 0c0,-2.91 0.49,-4.86 1.46,-5.86 0.97,-1 3.4,-1.94 7.29,-2.81 3.89,-0.87 6.42,-1.47 7.61,-1.8 1.18,-0.33 1.77,-1.42 1.77,-3.26 0,-1.6 -0.6,-2.68 -1.81,-3.23 -1.21,-0.55 -3.37,-0.83 -6.5,-0.83l-1.39 0c-3.72,0 -6.23,0.24 -7.54,0.73 -1.31,0.48 -1.97,1.59 -1.97,3.33l0 1.55 -11.41 0 0.06 -1.65c0,-1.77 0.21,-3.2 0.63,-4.28 0.42,-1.09 1.52,-2.03 3.3,-2.83 1.77,-0.8 4.13,-1.35 7.07,-1.65 2.94,-0.3 5.99,-0.45 9.16,-0.45 7.69,0 13.25,0.55 16.67,1.65 3.42,1.1 5.13,3.47 5.13,7.11 0,1.67 -0.2,3.04 -0.6,4.11 -0.4,1.07 -1.24,1.98 -2.51,2.73 -1.27,0.75 -4.01,1.57 -8.24,2.46 -4.23,0.88 -6.34,2.15 -6.34,3.78l0 1.2zm-9.22 28.33l-49.95 -29.57c-1.98,-1.17 -3.6,0.06 -3.6,2.73l0 59.39c0,2.68 1.62,5.82 3.6,7l49.95 29.57c1.98,1.17 3.6,-0.06 3.6,-2.73l0 -59.39c0,-2.68 -1.62,-5.82 -3.6,-7zm-25.55 8.23c5.57,2.98 9.59,5.64 12.07,7.98 2.48,2.34 3.72,5.17 3.72,8.51 0,1.53 -0.14,2.71 -0.44,3.53 -0.29,0.82 -0.89,1.33 -1.81,1.53 -0.92,0.2 -2.91,-0.12 -5.97,-0.95 -3.06,-0.83 -4.59,-0.5 -4.59,1l0 1.1 -8.58 -4.6c0,-2.66 0.35,-4.26 1.06,-4.8 0.7,-0.54 2.46,-0.46 5.28,0.26 2.82,0.71 4.65,1.15 5.51,1.3 0.86,0.15 1.29,-0.61 1.29,-2.3 0,-1.47 -0.44,-2.69 -1.31,-3.66 -0.87,-0.97 -2.44,-2.06 -4.7,-3.28l-1.01 -0.54c-2.69,-1.44 -4.51,-2.2 -5.46,-2.26 -0.95,-0.06 -1.42,0.7 -1.42,2.29l0 1.42 -8.26 -4.43 0.05 -1.49c0,-1.62 0.15,-2.85 0.46,-3.68 0.31,-0.83 1.1,-1.27 2.39,-1.31 1.29,-0.05 2.99,0.36 5.12,1.23 2.13,0.86 4.34,1.91 6.63,3.14zm-5.6 21.46l8.35 4.48 0 6.15 -8.35 -4.48 0 -6.15zm92.87 -59.27l-49.94 29.57c-1.98,1.17 -3.6,4.32 -3.6,7l0 59.39c0,2.68 1.62,3.9 3.6,2.73l49.94 -29.57c1.98,-1.17 3.6,-4.32 3.6,-7l0 -59.39c0,-2.68 -1.62,-3.9 -3.6,-2.73z"/>
   <path class="fil1" d="M211.27 105.64c0,-58.34 -47.3,-105.64 -105.64,-105.64 -58.34,0 -105.64,47.29 -105.64,105.64 0,58.34 47.3,105.64 105.64,105.64 58.34,0 105.64,-47.29 105.64,-105.64zm-105.64 -98.55c54.43,0 98.55,44.12 98.55,98.55 0,54.43 -44.12,98.55 -98.55,98.55 -54.43,0 -98.55,-44.12 -98.55,-98.55 0,-54.43 44.12,-98.55 98.55,-98.55z"/>
  </g>
 </g>
</svg>
