<svg xmlns="http://www.w3.org/2000/svg" xmlns:xlink="http://www.w3.org/1999/xlink" width="101.693" height="101.692" viewBox="0 0 101.693 101.692">
  <defs>
    <clipPath id="clip-path">
      <path id="Path_11" data-name="Path 11" d="M369.185,363.983c1.5-1.458,4.755-.543,7.264,2.043s3.323,5.866,1.82,7.324-4.754.544-7.264-2.043-3.323-5.866-1.82-7.324m3.95,1.3.75.211,1.434,5.771-.75-.211Zm-.9.878.749.21,1.133,4.556-.749-.21Zm-.9.877.749.211.83,3.337-.75-.211Zm-.9.878.75.21.527,2.12-.75-.21Zm3.921-2.294.75.211,1.434,5.771-.75-.21Zm10.529,63.34,22.286-9.179V404.067l-15.892,6.546-6.394-10.158-6.394,10.158-15.893-6.546v15.719Zm-4.918-72.7c1-.4,2.887,2,4.213,5.347s1.591,6.387.59,6.783-2.887-2-4.213-5.347S378.952,356.663,379.953,356.268Zm2.292,3.055.438.551.443,5.355-.438-.552Zm-.611.242.437.551.35,4.227-.438-.551Zm-.612.242.438.55.257,3.1-.439-.551Zm-.611.242.438.551.162,1.967-.437-.55Zm2.539.161.437.551.443,5.354-.437-.55Zm-3.553-5.347c1.455-.576,3.96,2.3,5.593,6.426s1.778,7.938.322,8.514-3.96-2.3-5.593-6.426S377.941,355.44,379.4,354.863Zm-16.185,22.051c-.585.9,1.39,3.225,4.414,5.185s5.949,2.816,6.534,1.913-1.391-3.224-4.414-5.184S363.8,376.011,363.212,376.914Zm2.545,2.849.453.538,5.163,1.488-.454-.537Zm.357-.552.454.538,4.076,1.175-.455-.537Zm.358-.551.454.537,2.985.862-.454-.538Zm.358-.553.453.539,1.9.546-.454-.537Zm-.343,2.522.454.537,5.162,1.488-.454-.537Zm26.779-22.556c-2.074-.3-4.167,2.356-4.676,5.923s.759,6.7,2.832,6.994,4.167-2.356,4.676-5.923S395.339,358.369,393.266,358.073Zm-2.43,3.375-.483.612,2.232,5.512.482-.611Zm1.247.179-.482.611,1.762,4.351.483-.611Zm1.248.178-.482.611,1.291,3.188.482-.612Zm1.248.177-.482.612.819,2.025.482-.611Zm-4.52.451-.483.611,2.233,5.512.482-.611Zm3.419-5.855c-2.8-.4-5.586,2.836-6.213,7.229s1.139,8.277,3.944,8.677,5.587-2.836,6.214-7.228S396.284,356.979,393.478,356.578Zm-6.517,22.778a6.524,6.524,0,1,1-8.271,4.09A6.526,6.526,0,0,1,386.961,379.356Zm1.962,4.555.423.854-6.518,3.222-.422-.853Zm-2.054-.7.422.853-5.145,2.544-.421-.853Zm-2.054-.694.422.853-3.768,1.863-.422-.853Zm-2.053-.7.422.854-2.394,1.184-.423-.853Zm6.84,3.459.423.854-6.517,3.222-.422-.853Zm-2.157-7.358a8.034,8.034,0,1,1-10.184,5.035c.03-.089.062-.178.1-.265l-1.887.778a1.544,1.544,0,0,1-.041,1.358c-.852,1.314-4.561.423-8.284-1.991s-6.05-5.436-5.2-6.749c.439-.677,1.634-.768,3.2-.368l6.007-2.474a12.415,12.415,0,0,1-1.106-1.013c-3.09-3.184-3.945-7.365-1.911-9.338s6.186-.991,9.276,2.2,3.944,7.365,1.91,9.339a3.41,3.41,0,0,1-1.065.7l3.9,2.636a8.109,8.109,0,0,0-1.676,1.043A8.024,8.024,0,0,1,387.445,377.927Zm15.532-5.991c-1.666-1.27-4.787.024-6.971,2.889s-2.606,6.217-.94,7.488,4.786-.025,6.971-2.89S404.643,373.206,402.977,371.936Zm-3.768,1.761-.72.3-.74,5.9.719-.3Zm1,.764-.719.3-.585,4.657.719-.3Zm1,.765-.719.3-.429,3.413.72-.3Zm1,.763-.719.3-.272,2.168.719-.3Zm-4.164-1.812-.72.3-.74,5.9.719-.3Zm5.842-3.442c-1.863-1.42-4.922-.664-7.447,1.633l-.54-.222-7.826,5.288.029.009a8.028,8.028,0,0,1,5.215,5.641l.614.253c.069.061.139.12.212.176,2.254,1.718,6.261.25,8.952-3.279S406.145,372.453,403.893,370.735ZM362.584,388.78l7.9-3.255a20.036,20.036,0,0,1-3.821-1.96c-3.314-2.149-5.523-4.779-5.366-6.257l-9.752,4.015,11.035,7.457-6.869,10.914L378,408.873l6.87-10.914,6.869,10.914,22.286-9.179-6.869-10.914,11.035-7.457-12.064-4.968a13.072,13.072,0,0,1-2.159,4.126c-2.015,2.643-4.617,4.245-6.606,4.266l9.794,4.033-22.286,9.179Z" fill="none" clip-rule="evenodd"/>
    </clipPath>
    <linearGradient id="linear-gradient" x1="0.967" y1="1.643" x2="0.26" y2="-0.089" gradientUnits="objectBoundingBox">
      <stop offset="0" stop-color="#ecb42a"/>
      <stop offset="0.48" stop-color="#e8a839"/>
      <stop offset="0.81" stop-color="#c637c1"/>
      <stop offset="1" stop-color="#bb12ee"/>
    </linearGradient>
  </defs>
  <g id="Winners" transform="translate(-334.024 -341.031)">
    <path id="Path_10" data-name="Path 10" d="M384.87,344.441a47.436,47.436,0,1,1-47.435,47.436,47.437,47.437,0,0,1,47.435-47.436m50.847,47.436a50.847,50.847,0,1,0-50.847,50.846A50.847,50.847,0,0,0,435.717,391.877Z" fill="#fff" fill-rule="evenodd"/>
    <g id="Group_4" data-name="Group 4">
      <g id="Group_3" data-name="Group 3" clip-path="url(#clip-path)">
        <rect id="Rectangle_3" data-name="Rectangle 3" width="66.644" height="74.678" transform="translate(351.549 354.287)" fill="url(#linear-gradient)"/>
      </g>
    </g>
  </g>
</svg>
