<?xml version="1.0" encoding="UTF-8"?>
<!DOCTYPE svg PUBLIC "-//W3C//DTD SVG 1.1//EN" "http://www.w3.org/Graphics/SVG/1.1/DTD/svg11.dtd">
<!-- Creator: CorelDRAW 2019 (64-Bit) -->
<svg xmlns="http://www.w3.org/2000/svg" xml:space="preserve" width="2.76389in" height="2.76389in" version="1.1" style="shape-rendering:geometricPrecision; text-rendering:geometricPrecision; image-rendering:optimizeQuality; fill-rule:evenodd; clip-rule:evenodd"
viewBox="0 0 78.76 78.76"
 xmlns:xlink="http://www.w3.org/1999/xlink">
 <defs>
  <style type="text/css">
   <![CDATA[
    .str0 {stroke:white;stroke-width:0.79;stroke-miterlimit:10}
    .fil0 {fill:none;fill-rule:nonzero}
    .fil1 {fill:white}
   ]]>
  </style>
 </defs>
 <g id="Layer_x0020_1">
  <metadata id="CorelCorpID_0Corel-Layer"/>
  <g id="_12275041632">
   <path class="fil0 str0" d="M78.36 39.38c0,21.53 -17.45,38.98 -38.98,38.98 -21.53,0 -38.98,-17.45 -38.98,-38.98 0,-21.53 17.45,-38.98 38.98,-38.98 21.53,0 38.98,17.45 38.98,38.98z"/>
   <g>
    <path class="fil1" d="M44.62 18.97l-18.69 0c-1.04,0 -1.89,0.85 -1.89,1.89l0 37.05c0,1.04 0.85,1.89 1.89,1.89l26.9 0c1.04,0 1.89,-0.85 1.89,-1.89l0 -28.84 0 -0 -0.58 -0.58 -0.37 -0.37 0 -0 -8.18 -8.18 0 -0 -0.36 -0.36 -0.6 -0.6 0 -0zm7.79 9.14l-5.9 0c-0.51,0 -0.93,-0.42 -0.93,-0.93l0 -5.9 6.84 6.84zm1.35 -0l0 0zm0 0.96l0 28.84c0,0.51 -0.42,0.93 -0.93,0.93l-26.9 0c-0.51,0 -0.93,-0.42 -0.93,-0.93l0 -37.05c0,-0.51 0.42,-0.93 0.93,-0.93l18.69 0 0 7.25c0,1.04 0.85,1.89 1.89,1.89l7.25 0z"/>
    <path class="fil1" d="M46.67 32.82c-2.43,-0.22 -4.86,-0.44 -7.29,-0.66 -2.43,0.22 -4.86,0.44 -7.29,0.66 0,3.37 0,6.11 0,9.48 0,3.54 4.74,5.91 7.29,7.11 2.55,-1.21 7.29,-3.57 7.29,-7.11 0,-3.37 0,-6.11 0,-9.48zm-7.29 15.4c2.31,-1.12 6.21,-3.21 6.21,-5.92 0,-2.83 0,-5.66 0,-8.49 -2.07,-0.19 -4.14,-0.37 -6.21,-0.56 -2.07,0.19 -4.14,0.37 -6.21,0.56 0,2.83 0,5.66 0,8.49 0,2.71 3.9,4.8 6.21,5.92z"/>
    <path class="fil1" d="M36.27 39.08l0.56 0 0 -2.01c0,-1.4 1.14,-2.54 2.54,-2.54l0 0c1.4,0 2.54,1.14 2.54,2.54l0 2.01 0.56 0c0.17,0 0.3,0.14 0.3,0.3l0 5.12c0,0.17 -0.14,0.3 -0.3,0.3l-6.21 0c-0.17,0 -0.3,-0.14 -0.3,-0.3l0 -5.12c0,-0.17 0.14,-0.3 0.3,-0.3zm1.47 0l3.27 0 0 -2.01c0,-0.9 -0.74,-1.63 -1.63,-1.63 -0.9,0 -1.63,0.74 -1.63,1.63l0 2.01z"/>
   </g>
  </g>
 </g>
</svg>
