<?xml version="1.0" encoding="UTF-8"?>
<!DOCTYPE svg PUBLIC "-//W3C//DTD SVG 1.1//EN" "http://www.w3.org/Graphics/SVG/1.1/DTD/svg11.dtd">
<!-- Creator: CorelDRAW 2019 (64-Bit) -->
<svg xmlns="http://www.w3.org/2000/svg" xml:space="preserve" width="2.76389in" height="2.76389in" version="1.1" style="shape-rendering:geometricPrecision; text-rendering:geometricPrecision; image-rendering:optimizeQuality; fill-rule:evenodd; clip-rule:evenodd"
viewBox="0 0 65.45 65.45"
 xmlns:xlink="http://www.w3.org/1999/xlink">
 <defs>
  <style type="text/css">
   <![CDATA[
    .str0 {stroke:white;stroke-width:0.66;stroke-miterlimit:10}
    .fil0 {fill:none;fill-rule:nonzero}
    .fil1 {fill:white}
   ]]>
  </style>
 </defs>
 <g id="Layer_x0020_1">
  <metadata id="CorelCorpID_0Corel-Layer"/>
  <g id="_6997151104">
   <path class="fil0 str0" d="M65.12 32.73c0,17.89 -14.5,32.4 -32.4,32.4 -17.89,0 -32.4,-14.5 -32.4,-32.4 0,-17.89 14.5,-32.4 32.4,-32.4 17.89,0 32.4,14.5 32.4,32.4z"/>
   <g>
    <path class="fil1" d="M34.24 16.24l0.53 1.01c0.34,0.64 0.87,1.06 1.56,1.25 0.7,0.19 1.37,0.09 1.98,-0.3l0.96 -0.61c0.55,-0.35 1.2,-0.36 1.77,-0.03 0.56,0.33 0.88,0.9 0.85,1.55l-0.04 1.14c-0.03,0.72 0.22,1.35 0.73,1.86 0.51,0.51 1.14,0.76 1.86,0.73l1.14 -0.05c0.65,-0.03 1.22,0.29 1.55,0.85 0.33,0.56 0.31,1.22 -0.03,1.77l-0.61 0.96c-0.39,0.61 -0.49,1.28 -0.3,1.98 0.19,0.7 0.61,1.23 1.25,1.56l1.01 0.53c0.58,0.3 0.91,0.86 0.91,1.51 0,0.65 -0.34,1.21 -0.91,1.51l-1.01 0.53c-0.64,0.34 -1.06,0.87 -1.25,1.56 -0.19,0.7 -0.08,1.37 0.3,1.98l0.61 0.96c0.35,0.55 0.36,1.2 0.03,1.77 -0.33,0.56 -0.9,0.88 -1.55,0.85l-1.14 -0.04c-0.72,-0.03 -1.35,0.22 -1.86,0.73 -0.51,0.51 -0.76,1.14 -0.73,1.86l0.04 1.14c0.03,0.65 -0.29,1.22 -0.85,1.55 -0.56,0.33 -1.22,0.31 -1.77,-0.03l-0.96 -0.61c-0.14,-0.09 -0.29,-0.16 -0.44,-0.22 1.55,-3.14 6.82,-6.83 6.82,-13.54 0,-6.61 -5.36,-11.97 -11.97,-11.97 -6.61,0 -11.97,5.36 -11.97,11.97 0,6.71 5.27,10.4 6.82,13.54 -0.15,0.06 -0.29,0.13 -0.44,0.22l-0.96 0.61c-0.55,0.35 -1.2,0.36 -1.77,0.03 -0.56,-0.33 -0.88,-0.9 -0.85,-1.55l0.04 -1.14c0.03,-0.72 -0.22,-1.35 -0.73,-1.86 -0.51,-0.51 -1.14,-0.76 -1.86,-0.73l-1.14 0.04c-0.65,0.03 -1.22,-0.29 -1.55,-0.85 -0.33,-0.56 -0.31,-1.22 0.03,-1.77l0.61 -0.96c0.39,-0.61 0.49,-1.28 0.3,-1.98 -0.19,-0.7 -0.61,-1.23 -1.25,-1.56l-1.01 -0.53c-0.58,-0.3 -0.91,-0.86 -0.91,-1.51 0,-0.65 0.34,-1.21 0.91,-1.51l1.01 -0.53c0.64,-0.34 1.06,-0.87 1.25,-1.56 0.19,-0.7 0.08,-1.37 -0.3,-1.98l-0.61 -0.96c-0.35,-0.55 -0.36,-1.2 -0.03,-1.77 0.33,-0.56 0.9,-0.88 1.55,-0.85l1.14 0.05c0.72,0.03 1.35,-0.22 1.86,-0.73 0.51,-0.51 0.76,-1.14 0.73,-1.86l-0.04 -1.14c-0.03,-0.65 0.29,-1.22 0.85,-1.55 0.56,-0.33 1.22,-0.31 1.77,0.03l0.96 0.61c0.61,0.39 1.28,0.49 1.98,0.3 0.7,-0.19 1.23,-0.61 1.56,-1.25l0.53 -1.01c0.3,-0.58 0.86,-0.91 1.51,-0.91 0.65,0 1.21,0.34 1.51,0.91zm-6.32 30.06l9.6 0 0 0.12c0.01,-0.04 0.02,-0.08 0.03,-0.12 0.48,0.18 0.86,0.58 1,1.11 0.22,0.83 -0.24,1.68 -1.03,1.97l0 1.78c0,0.98 -0.8,1.77 -1.77,1.77l-1.32 0c0,0.03 0,0.07 0,0.1 0,0.94 -0.76,1.71 -1.71,1.71 -0.94,0 -1.71,-0.76 -1.71,-1.71 0,-0.03 0,-0.07 0,-0.1l-1.32 0c-0.98,0 -1.77,-0.8 -1.77,-1.77l0 -1.78c-0.8,-0.28 -1.26,-1.13 -1.03,-1.97 0.14,-0.53 0.53,-0.93 1,-1.11 0.01,0.04 0.02,0.08 0.03,0.12l0 -0.12zm-10.73 -29.88c0.42,-0.42 1.1,-0.42 1.52,0 0.42,0.42 0.42,1.1 0,1.52 -0.42,0.42 -1.1,0.42 -1.52,0 -0.42,-0.42 -0.42,-1.1 -0,-1.52zm29.54 29.54c0.42,-0.42 1.1,-0.42 1.52,0 0.42,0.42 0.42,1.1 0,1.52 -0.42,0.42 -1.1,0.42 -1.52,0 -0.42,-0.42 -0.42,-1.1 0,-1.52zm-19.7 -35.22c0.57,-0.15 1.16,0.19 1.31,0.76 0.15,0.57 -0.19,1.16 -0.76,1.31 -0.57,0.15 -1.16,-0.19 -1.31,-0.76 -0.15,-0.57 0.19,-1.16 0.76,-1.31zm26.9 26.9c-0.15,0.57 -0.74,0.91 -1.31,0.76 -0.57,-0.15 -0.91,-0.74 -0.76,-1.31 0.15,-0.57 0.74,-0.91 1.31,-0.76 0.57,0.15 0.91,0.74 0.76,1.31zm-40.35 -10.81c-0.15,0.57 -0.74,0.91 -1.31,0.76 -0.57,-0.15 -0.91,-0.74 -0.76,-1.31 0.15,-0.57 0.74,-0.91 1.31,-0.76 0.57,0.15 0.91,0.74 0.76,1.31zm40.35 -0.56c0.15,0.57 -0.19,1.16 -0.76,1.31 -0.57,0.15 -1.16,-0.19 -1.31,-0.76 -0.15,-0.57 0.19,-1.16 0.76,-1.31 0.57,-0.15 1.16,0.19 1.31,0.76zm-40.35 10.81c0.15,0.57 -0.19,1.16 -0.76,1.31 -0.57,0.15 -1.16,-0.19 -1.31,-0.76 -0.15,-0.57 0.19,-1.16 0.76,-1.31 0.57,-0.15 1.16,0.19 1.31,0.76zm34.67 -20.66c0.42,0.42 0.42,1.1 0,1.52 -0.42,0.42 -1.1,0.42 -1.52,0 -0.42,-0.42 -0.42,-1.1 0,-1.52 0.42,-0.42 1.1,-0.42 1.52,-0zm-29.54 29.54c0.42,0.42 0.42,1.1 0,1.52 -0.42,0.42 -1.1,0.42 -1.52,0 -0.42,-0.42 -0.42,-1.1 0,-1.52 0.42,-0.42 1.1,-0.42 1.52,0zm19.7 -35.22c0.57,0.15 0.91,0.74 0.76,1.31 -0.15,0.57 -0.74,0.91 -1.31,0.76 -0.57,-0.15 -0.91,-0.74 -0.76,-1.31 0.15,-0.57 0.74,-0.91 1.31,-0.76zm7.1 33.99c-0.64,0.64 -1.67,0.64 -2.31,-0 -0.64,-0.64 -0.64,-1.67 0,-2.31 0.64,-0.64 1.67,-0.64 2.31,-0 0.64,0.64 0.64,1.67 0,2.31zm-23.25 -23.25c-0.64,0.64 -1.67,0.64 -2.31,0 -0.64,-0.64 -0.64,-1.67 0,-2.31 0.64,-0.64 1.67,-0.64 2.31,0 0.64,0.64 0.64,1.67 -0,2.31zm27.92 15.14c-0.23,0.87 -1.13,1.39 -2,1.16 -0.87,-0.23 -1.39,-1.13 -1.16,-2 0.23,-0.87 1.13,-1.39 2,-1.16 0.87,0.23 1.39,1.13 1.16,2zm-31.75 -8.51c-0.23,0.87 -1.13,1.39 -2,1.16 -0.87,-0.23 -1.39,-1.13 -1.16,-2 0.23,-0.87 1.13,-1.39 2,-1.16 0.87,0.23 1.39,1.13 1.16,2zm31.75 -0.85c0.23,0.87 -0.28,1.77 -1.16,2 -0.87,0.23 -1.77,-0.28 -2,-1.16 -0.23,-0.87 0.28,-1.77 1.16,-2 0.87,-0.23 1.77,0.28 2,1.16zm-31.75 8.51c0.23,0.87 -0.28,1.77 -1.16,2 -0.87,0.23 -1.77,-0.28 -2,-1.16 -0.23,-0.87 0.28,-1.77 1.16,-2 0.87,-0.23 1.77,0.28 2,1.16zm27.08 -16.61c0.64,0.64 0.64,1.67 -0,2.31 -0.64,0.64 -1.67,0.64 -2.31,-0 -0.64,-0.64 -0.64,-1.67 -0,-2.31 0.64,-0.64 1.67,-0.64 2.31,0zm-23.25 23.25c0.64,0.64 0.64,1.67 0,2.31 -0.64,0.64 -1.67,0.64 -2.31,0 -0.64,-0.64 -0.64,-1.67 0,-2.31 0.64,-0.64 1.67,-0.64 2.31,0zm5.79 -27.92c0.87,-0.23 1.77,0.28 2,1.16 0.23,0.87 -0.28,1.77 -1.16,2 -0.87,0.23 -1.77,-0.28 -2,-1.16 -0.23,-0.87 0.28,-1.77 1.16,-2zm9.36 0c0.87,0.23 1.39,1.13 1.16,2 -0.23,0.87 -1.13,1.39 -2,1.16 -0.87,-0.23 -1.39,-1.13 -1.16,-2 0.23,-0.87 1.13,-1.39 2,-1.16zm5.92 35.81c-0.92,0.53 -2.09,0.22 -2.62,-0.7 -0.53,-0.92 -0.22,-2.09 0.7,-2.62 0.92,-0.53 2.09,-0.22 2.62,0.7 0.53,0.92 0.22,2.09 -0.7,2.62zm-19.28 -33.39c-0.92,0.53 -2.09,0.22 -2.62,-0.7 -0.53,-0.92 -0.22,-2.09 0.7,-2.62 0.92,-0.53 2.09,-0.22 2.62,0.7 0.53,0.92 0.22,2.09 -0.7,2.62zm27.04 25.63c-0.53,0.92 -1.7,1.23 -2.62,0.7 -0.92,-0.53 -1.23,-1.7 -0.7,-2.62 0.53,-0.92 1.7,-1.23 2.62,-0.7 0.92,0.53 1.23,1.7 0.7,2.62zm-33.39 -19.28c-0.53,0.92 -1.7,1.23 -2.62,0.7 -0.92,-0.53 -1.23,-1.7 -0.7,-2.62 0.53,-0.92 1.7,-1.23 2.62,-0.7 0.92,0.53 1.23,1.7 0.7,2.62zm36.23 8.68c0,1.06 -0.86,1.92 -1.92,1.92 -1.06,0 -1.92,-0.86 -1.92,-1.92 0,-1.06 0.86,-1.92 1.92,-1.92 1.06,0 1.92,0.86 1.92,1.92zm-38.56 0c0,1.06 -0.86,1.92 -1.92,1.92 -1.06,0 -1.92,-0.86 -1.92,-1.92 0,-1.06 0.86,-1.92 1.92,-1.92 1.06,0 1.92,0.86 1.92,1.92zm35.72 -10.6c0.53,0.92 0.22,2.09 -0.7,2.62 -0.92,0.53 -2.09,0.22 -2.62,-0.7 -0.53,-0.92 -0.22,-2.09 0.7,-2.62 0.92,-0.53 2.09,-0.22 2.62,0.7zm-33.39 19.28c0.53,0.92 0.22,2.09 -0.7,2.62 -0.92,0.53 -2.09,0.22 -2.62,-0.7 -0.53,-0.92 -0.22,-2.09 0.7,-2.62 0.92,-0.53 2.09,-0.22 2.62,0.7zm25.63 -27.04c0.92,0.53 1.23,1.7 0.7,2.62 -0.53,0.92 -1.7,1.23 -2.62,0.7 -0.92,-0.53 -1.23,-1.7 -0.7,-2.62 0.53,-0.92 1.7,-1.23 2.62,-0.7zm-19.28 33.39c0.92,0.53 1.23,1.7 0.7,2.62 -0.53,0.92 -1.7,1.23 -2.62,0.7 -0.92,-0.53 -1.23,-1.7 -0.7,-2.62 0.53,-0.92 1.7,-1.23 2.62,-0.7zm8.68 -36.23c1.06,0 1.92,0.86 1.92,1.92 0,1.06 -0.86,1.92 -1.92,1.92 -1.06,0 -1.92,-0.86 -1.92,-1.92 0,-1.06 0.86,-1.92 1.92,-1.92z"/>
    <path class="fil1" d="M38.51 31.99l0.88 0.88 -6.76 6.76 -0.88 -0.88 6.76 -6.76zm-9.97 -1.42l0.88 0.88 -2.48 2.48 -0.88 -0.88 2.48 -2.48zm2.85 0l0.88 0.88 -3.91 3.91 -0.88 -0.88 3.91 -3.91zm2.85 0l0.88 0.88 -5.33 5.33 -0.88 -0.88 5.33 -5.33zm2.85 0l0.88 0.88 -6.76 6.76 -0.88 -0.88 6.76 -6.76z"/>
   </g>
  </g>
 </g>
</svg>
