<?xml version="1.0" encoding="UTF-8"?>
<!DOCTYPE svg PUBLIC "-//W3C//DTD SVG 1.1//EN" "http://www.w3.org/Graphics/SVG/1.1/DTD/svg11.dtd">
<!-- Creator: CorelDRAW 2019 (64-Bit) -->
<svg xmlns="http://www.w3.org/2000/svg" xml:space="preserve" width="2.76389in" height="2.76389in" version="1.1" style="shape-rendering:geometricPrecision; text-rendering:geometricPrecision; image-rendering:optimizeQuality; fill-rule:evenodd; clip-rule:evenodd"
viewBox="0 0 71.49 71.49"
 xmlns:xlink="http://www.w3.org/1999/xlink">
 <defs>
  <style type="text/css">
   <![CDATA[
    .str0 {stroke:white;stroke-width:0.72;stroke-miterlimit:10}
    .fil0 {fill:none;fill-rule:nonzero}
    .fil1 {fill:white}
   ]]>
  </style>
 </defs>
 <g id="Layer_x0020_1">
  <metadata id="CorelCorpID_0Corel-Layer"/>
  <g id="_6997152704">
   <path class="fil0 str0" d="M71.13 35.75c0,19.54 -15.84,35.39 -35.39,35.39 -19.54,0 -35.39,-15.84 -35.39,-35.39 0,-19.54 15.84,-35.39 35.39,-35.39 19.54,0 35.39,15.84 35.39,35.39z"/>
   <path class="fil1" d="M30.52 16.06l1.07 1.07 -7.84 7.84 0 4.55 0 10.3c0,1.3 1.07,2.38 2.38,2.38l1.26 0 1.66 0 1.6 0c2.08,0 3.78,1.7 3.78,3.78l0 4.13 0 0.51 0 2.76c0,1.3 1.07,2.38 2.38,2.38l2.95 0 1.69 0 2.95 0c1.3,0 2.38,-1.07 2.38,-2.38l0 -1.93 -0 0 0 -14.2 0 -0 0 0 8.17 -8.17 1.07 1.07 -7.84 7.84 0 13.47 -0 0 0 1.93c0,2.08 -1.7,3.78 -3.78,3.78l-2.95 0 -1.69 0 -2.95 0c-2.08,0 -3.78,-1.7 -3.78,-3.78l0 -2.76 0 -0.51 0 -4.13c0,-1.3 -1.07,-2.38 -2.38,-2.38l-1.6 0 -1.66 0 -1.26 0c-2.08,0 -3.78,-1.7 -3.78,-3.78l0 -10.3 0 -4.8 0 -0.01 0 -0.47 0 0 8.17 -8.17zm12.38 11.29l1.07 1.07 -3 3 -1.07 -1.07 3 -3zm3.45 0l1.07 1.07 -4.73 4.73 -1.07 -1.07 4.73 -4.73zm3.45 0l1.07 1.07 -6.45 6.45 -1.07 -1.07 6.45 -6.45zm3.45 0l1.07 1.07 -8.17 8.17 -1.07 -1.07 8.17 -8.17zm-34.79 -13.02l1.07 1.07 -3 3 -1.07 -1.07 3 -3zm3.45 0l1.07 1.07 -4.73 4.73 -1.07 -1.07 4.73 -4.73zm3.45 0l1.07 1.07 -6.45 6.45 -1.07 -1.07 6.45 -6.45zm3.45 0l1.07 1.07 -8.17 8.17 -1.07 -1.07 8.17 -8.17z"/>
  </g>
 </g>
</svg>
