<?xml version="1.0" encoding="UTF-8"?>
<!DOCTYPE svg PUBLIC "-//W3C//DTD SVG 1.1//EN" "http://www.w3.org/Graphics/SVG/1.1/DTD/svg11.dtd">
<!-- Creator: CorelDRAW 2019 (64-Bit) -->
<svg xmlns="http://www.w3.org/2000/svg" xml:space="preserve" width="2.76389in" height="2.76389in" version="1.1" style="shape-rendering:geometricPrecision; text-rendering:geometricPrecision; image-rendering:optimizeQuality; fill-rule:evenodd; clip-rule:evenodd"
viewBox="0 0 78.76 78.76"
 xmlns:xlink="http://www.w3.org/1999/xlink">
 <defs>
  <style type="text/css">
   <![CDATA[
    .str0 {stroke:white;stroke-width:0.79;stroke-miterlimit:10}
    .fil0 {fill:none;fill-rule:nonzero}
    .fil1 {fill:white}
   ]]>
  </style>
 </defs>
 <g id="Layer_x0020_1">
  <metadata id="CorelCorpID_0Corel-Layer"/>
  <g id="_12700148432">
   <path class="fil0 str0" d="M78.36 39.38c0,21.53 -17.45,38.98 -38.98,38.98 -21.53,0 -38.98,-17.45 -38.98,-38.98 0,-21.53 17.45,-38.98 38.98,-38.98 21.53,0 38.98,17.45 38.98,38.98z"/>
   <g>
    <path class="fil1" d="M41.01 43.38l2.02 8.82 8.89 1.68 -7.76 4.65 1.15 8.98 -6.82 -5.95 -8.18 3.87 3.55 -8.32 -6.21 -6.58 9.01 0.8 4.34 -7.94zm2.5 11.67l0.53 0.7 -5.38 4.07 -0.53 -0.7 5.38 -4.07zm-6.83 -1.96l0.53 0.7 -1.97 1.49 -0.53 -0.7 1.97 -1.49zm1.99 0.28l0.53 0.7 -3.11 2.35 -0.53 -0.7 3.11 -2.35zm1.99 0.28l0.53 0.7 -4.24 3.21 -0.53 -0.7 4.24 -3.21zm1.99 0.28l0.53 0.7 -5.37 4.07 -0.53 -0.7 5.38 -4.07z"/>
    <path class="fil1" d="M23.35 29.51l3.65 6.08 7.03 -0.91 -4.66 5.35 3.04 6.41 -6.52 -2.78 -5.16 4.87 0.62 -7.06 -6.22 -3.4 6.91 -1.59 1.31 -6.97zm4.7 8.09l0.57 0.4 -3.02 4.33 -0.57 -0.4 3.02 -4.33zm-5.57 0.2l0.57 0.4 -1.11 1.59 -0.57 -0.4 1.11 -1.59zm1.55 -0.28l0.57 0.4 -1.75 2.51 -0.57 -0.4 1.75 -2.51zm1.55 -0.28l0.57 0.4 -2.38 3.42 -0.57 -0.4 2.38 -3.42zm1.55 -0.28l0.57 0.4 -3.02 4.33 -0.57 -0.4 3.02 -4.33z"/>
    <path class="fil1" d="M45.19 26.8l0.05 5.64 5.19 2.21 -5.34 1.79 -0.49 5.61 -3.36 -4.53 -5.49 1.26 3.27 -4.59 -2.9 -4.83 5.38 1.69 3.7 -4.25zm-0.03 7.44l0.23 0.5 -3.81 1.76 -0.23 -0.5 3.81 -1.76zm-3.89 -2.1l0.23 0.5 -1.4 0.65 -0.23 -0.5 1.4 -0.65zm1.17 0.43l0.23 0.5 -2.2 1.02 -0.23 -0.5 2.2 -1.02zm1.17 0.43l0.23 0.5 -3.01 1.39 -0.23 -0.5 3.01 -1.39zm1.17 0.43l0.23 0.5 -3.81 1.76 -0.23 -0.5 3.81 -1.76z"/>
    <path class="fil1" d="M28.17 18.01l2.3 3.84 4.44 -0.57 -2.94 3.37 1.92 4.04 -4.11 -1.75 -3.25 3.07 0.39 -4.45 -3.92 -2.14 4.36 -1 0.83 -4.4zm2.96 5.1l0.36 0.25 -1.9 2.73 -0.36 -0.25 1.9 -2.73zm-3.51 0.12l0.36 0.25 -0.7 1 -0.36 -0.25 0.7 -1zm0.98 -0.18l0.36 0.25 -1.1 1.58 -0.36 -0.25 1.1 -1.58zm0.98 -0.18l0.36 0.25 -1.5 2.16 -0.36 -0.25 1.5 -2.16zm0.98 -0.18l0.36 0.25 -1.9 2.73 -0.36 -0.25 1.9 -2.73z"/>
    <path class="fil1" d="M55.14 34.31l2.9 4.83 5.59 -0.72 -3.7 4.25 2.41 5.09 -5.19 -2.21 -4.1 3.87 0.5 -5.61 -4.95 -2.7 5.49 -1.26 1.04 -5.54zm3.73 6.43l0.45 0.31 -2.4 3.44 -0.45 -0.31 2.4 -3.44zm-4.42 0.16l0.45 0.31 -0.88 1.27 -0.45 -0.31 0.88 -1.27zm1.23 -0.22l0.45 0.31 -1.39 1.99 -0.45 -0.31 1.39 -1.99zm1.23 -0.22l0.45 0.31 -1.89 2.72 -0.45 -0.31 1.89 -2.72zm1.23 -0.22l0.45 0.31 -2.4 3.44 -0.45 -0.31 2.4 -3.44z"/>
    <path class="fil1" d="M56.1 20.83l0.04 4.47 4.12 1.75 -4.24 1.42 -0.39 4.45 -2.66 -3.59 -4.36 1 2.59 -3.64 -2.3 -3.83 4.27 1.34 2.94 -3.37zm-0.03 5.9l0.18 0.4 -3.02 1.39 -0.18 -0.4 3.02 -1.39zm-3.09 -1.67l0.18 0.4 -1.11 0.51 -0.18 -0.4 1.11 -0.51zm0.93 0.34l0.18 0.4 -1.75 0.81 -0.18 -0.4 1.75 -0.81zm0.93 0.34l0.18 0.4 -2.39 1.1 -0.18 -0.4 2.39 -1.1zm0.93 0.34l0.18 0.4 -3.02 1.39 -0.18 -0.4 3.02 -1.39z"/>
    <path class="fil1" d="M42.37 11.26l1.41 3.71 3.96 0.19 -3.09 2.48 1.04 3.82 -3.32 -2.17 -3.32 2.17 1.04 -3.82 -3.09 -2.48 3.96 -0.19 1.41 -3.71zm1.79 4.91l0.27 0.27 -2.09 2.09 -0.27 -0.27 2.09 -2.09zm-3.08 -0.44l0.27 0.27 -0.77 0.77 -0.27 -0.27 0.77 -0.77zm0.88 0l0.27 0.27 -1.21 1.21 -0.27 -0.27 1.21 -1.21zm0.88 0l0.27 0.27 -1.65 1.65 -0.27 -0.27 1.65 -1.65zm0.88 0l0.27 0.27 -2.09 2.09 -0.27 -0.27 2.09 -2.09z"/>
   </g>
  </g>
 </g>
</svg>
