<?xml version="1.0" encoding="UTF-8"?>
<!DOCTYPE svg PUBLIC "-//W3C//DTD SVG 1.1//EN" "http://www.w3.org/Graphics/SVG/1.1/DTD/svg11.dtd">
<!-- Creator: CorelDRAW 2019 (64-Bit) -->
<svg xmlns="http://www.w3.org/2000/svg" xml:space="preserve" width="2.76389in" height="2.76389in" version="1.1" style="shape-rendering:geometricPrecision; text-rendering:geometricPrecision; image-rendering:optimizeQuality; fill-rule:evenodd; clip-rule:evenodd"
viewBox="0 0 65.45 65.45"
 xmlns:xlink="http://www.w3.org/1999/xlink">
 <defs>
  <style type="text/css">
   <![CDATA[
    .str0 {stroke:white;stroke-width:0.66;stroke-miterlimit:10}
    .fil0 {fill:none;fill-rule:nonzero}
    .fil1 {fill:white}
   ]]>
  </style>
 </defs>
 <g id="Layer_x0020_1">
  <metadata id="CorelCorpID_0Corel-Layer"/>
  <g id="_12275032160">
   <path class="fil0 str0" d="M65.12 32.73c0,17.89 -14.5,32.4 -32.4,32.4 -17.89,0 -32.4,-14.5 -32.4,-32.4 0,-17.89 14.5,-32.4 32.4,-32.4 17.89,0 32.4,14.5 32.4,32.4z"/>
   <path class="fil1" d="M44.12 37.78c-1.67,0.87 -6.14,1.49 -11.4,1.49 -5.26,0 -9.73,-0.62 -11.4,-1.49l0 3.51c0.43,0.49 2.9,0.96 3.47,1.06 2.58,0.42 5.32,0.56 7.93,0.56 2.61,0 5.35,-0.13 7.93,-0.56 0.56,-0.09 3.04,-0.56 3.47,-1.06l0 -3.51zm-7.31 -16.33l0.63 0.63 -4.78 4.78 -0.63 -0.63 4.78 -4.78zm-7.05 -1.01l0.63 0.63 -1.76 1.76 -0.63 -0.63 1.76 -1.76zm2.01 0l0.63 0.63 -2.76 2.76 -0.63 -0.63 2.76 -2.76zm2.01 0l0.63 0.63 -3.77 3.77 -0.63 -0.63 3.77 -3.77zm2.01 0l0.63 0.63 -4.78 4.78 -0.63 -0.63 4.78 -4.78zm-3.08 -7.28c5.47,0 9.9,4.43 9.9,9.9 0,3.11 -1.44,5.89 -3.69,7.7 3.53,0.39 5.89,1.1 5.89,1.92l0 4.34 0 4.34 0 4.34 0 4.34c0,1.24 -5.42,2.24 -12.1,2.24 -6.68,0 -12.1,-1 -12.1,-2.24l0 -4.34 0 -4.34 0 -4.34 0 -4.34c0,-0.82 2.36,-1.53 5.89,-1.92 -2.25,-1.81 -3.69,-4.59 -3.69,-7.7 0,-5.47 4.43,-9.9 9.9,-9.9zm5.41 18.19c-1.56,1.02 -3.41,1.61 -5.41,1.61 -2,0 -3.86,-0.59 -5.41,-1.61 -3.4,0.26 -5.71,0.76 -5.71,1.34 0,0.84 4.98,1.53 11.12,1.53 6.14,0 11.12,-0.68 11.12,-1.53 0,-0.57 -2.3,-1.07 -5.71,-1.34zm-5.41 -17.4c5.03,0 9.11,4.08 9.11,9.11 0,3.17 -1.62,5.96 -4.07,7.59l-0 0 -0.02 0.01 -0.02 0.01 -0.02 0.01c-0.05,0.03 -0.1,0.06 -0.14,0.09l-0.02 0.01 -0.02 0.01 -0.02 0.01 -0.02 0.01 -0.11 0.07 -0.09 0.05 -0.1 0.06c-0.03,0.02 -0.07,0.04 -0.1,0.06l-0.08 0.04c-0.04,0.02 -0.08,0.04 -0.12,0.06l-0.08 0.04 -0.11 0.05 -0.02 0.01c-1.2,0.59 -2.55,0.91 -3.98,0.91 -1.43,0 -2.78,-0.33 -3.98,-0.91l-0 -0c-0.04,-0.02 -0.08,-0.04 -0.12,-0.06l-0.02 -0.01 -0.07 -0.04c-0.04,-0.02 -0.07,-0.04 -0.11,-0.06l-0.07 -0.04 -0.02 -0.01 -0.08 -0.05 -0.02 -0.01 -0.1 -0.06 -0.09 -0.05 -0.08 -0.05 -0.02 -0.01 -0.06 -0.04 -0.02 -0.01 -0.1 -0.06 -0.02 -0.01 -0.03 -0.02 -0.02 -0.01 -0.02 -0.01c-2.45,-1.63 -4.07,-4.42 -4.07,-7.59 0,-5.03 4.08,-9.11 9.11,-9.11zm-11.4 32.49l0 3.51c0.43,0.49 2.9,0.96 3.47,1.06 2.58,0.42 5.32,0.56 7.93,0.56 2.61,0 5.35,-0.13 7.93,-0.56 0.56,-0.09 3.04,-0.56 3.47,-1.06l0 -3.51c-1.67,0.87 -6.14,1.49 -11.4,1.49 -5.26,0 -9.73,-0.62 -11.4,-1.49zm0 -4.34l0 3.51c0.43,0.49 2.9,0.96 3.47,1.06 2.58,0.42 5.32,0.56 7.93,0.56 2.61,0 5.35,-0.13 7.93,-0.56 0.56,-0.09 3.04,-0.56 3.47,-1.06l0 -3.51c-1.67,0.87 -6.14,1.49 -11.4,1.49 -5.26,0 -9.73,-0.62 -11.4,-1.49zm0 -8.67l0 3.51c0.43,0.49 2.9,0.96 3.47,1.06 2.58,0.42 5.32,0.56 7.93,0.56 2.61,0 5.35,-0.13 7.93,-0.56 0.56,-0.09 3.04,-0.56 3.47,-1.06l0 -3.51c-1.67,0.87 -6.14,1.49 -11.4,1.49 -5.26,0 -9.73,-0.62 -11.4,-1.49z"/>
  </g>
 </g>
</svg>
