<?xml version="1.0" encoding="UTF-8"?>
<!DOCTYPE svg PUBLIC "-//W3C//DTD SVG 1.1//EN" "http://www.w3.org/Graphics/SVG/1.1/DTD/svg11.dtd">
<!-- Creator: CorelDRAW 2019 (64-Bit) -->
<svg xmlns="http://www.w3.org/2000/svg" xml:space="preserve" width="2.76389in" height="2.76389in" version="1.1" style="shape-rendering:geometricPrecision; text-rendering:geometricPrecision; image-rendering:optimizeQuality; fill-rule:evenodd; clip-rule:evenodd"
viewBox="0 0 71.49 71.49"
 xmlns:xlink="http://www.w3.org/1999/xlink">
 <defs>
  <style type="text/css">
   <![CDATA[
    .str0 {stroke:white;stroke-width:0.72;stroke-miterlimit:10}
    .fil0 {fill:none;fill-rule:nonzero}
    .fil1 {fill:white}
   ]]>
  </style>
 </defs>
 <g id="Layer_x0020_1">
  <metadata id="CorelCorpID_0Corel-Layer"/>
  <g id="_6997137568">
   <path class="fil0 str0" d="M71.13 35.75c0,19.54 -15.84,35.39 -35.39,35.39 -19.54,0 -35.39,-15.84 -35.39,-35.39 0,-19.54 15.84,-35.39 35.39,-35.39 19.54,0 35.39,15.84 35.39,35.39z"/>
   <g>
    <path class="fil1" d="M47.38 31.41l1.78 1.78 -13.59 13.59 -1.78 -1.78 13.59 -13.59zm-20.05 -2.86l1.78 1.78 -4.99 4.99 -1.78 -1.78 4.99 -4.99zm5.73 0l1.78 1.78 -7.86 7.86 -1.78 -1.78 7.86 -7.86zm5.73 0l1.78 1.78 -10.72 10.72 -1.78 -1.78 10.72 -10.72zm5.73 0l1.78 1.78 -13.59 13.59 -1.78 -1.78 13.59 -13.59z"/>
    <g>
     <polygon class="fil1" points="35.75,6.55 36.28,12.51 36.81,18.47 35.75,18.47 34.68,18.47 35.21,12.51 "/>
     <polygon class="fil1" points="35.75,64.94 36.28,58.98 36.81,53.02 35.75,53.02 34.68,53.02 35.21,58.98 "/>
    </g>
    <g>
     <polygon class="fil1" points="50.34,10.46 47.82,15.89 45.31,21.32 44.38,20.78 43.46,20.25 46.9,15.36 "/>
     <polygon class="fil1" points="21.15,61.03 24.59,56.13 28.03,51.24 27.11,50.71 26.18,50.17 23.67,55.6 "/>
    </g>
    <g>
     <polygon class="fil1" points="61.03,21.15 56.13,24.59 51.24,28.03 50.71,27.11 50.17,26.18 55.6,23.67 "/>
     <polygon class="fil1" points="10.46,50.34 15.89,47.82 21.32,45.31 20.78,44.38 20.25,43.46 15.36,46.9 "/>
    </g>
    <g>
     <polygon class="fil1" points="64.94,35.75 58.98,36.28 53.02,36.81 53.02,35.75 53.02,34.68 58.98,35.21 "/>
     <polygon class="fil1" points="6.55,35.75 12.51,36.28 18.47,36.81 18.47,35.75 18.47,34.68 12.51,35.21 "/>
    </g>
    <g>
     <polygon class="fil1" points="61.03,50.34 55.6,47.83 50.17,45.31 50.71,44.38 51.24,43.46 56.13,46.9 "/>
     <polygon class="fil1" points="10.46,21.15 15.36,24.59 20.25,28.03 20.78,27.11 21.32,26.18 15.89,23.67 "/>
    </g>
    <g>
     <polygon class="fil1" points="50.34,61.03 46.9,56.13 43.46,51.24 44.38,50.71 45.31,50.17 47.82,55.6 "/>
     <polygon class="fil1" points="21.15,10.46 23.67,15.89 26.18,21.32 27.11,20.78 28.03,20.25 24.59,15.36 "/>
    </g>
   </g>
  </g>
 </g>
</svg>
