<?xml version="1.0" encoding="UTF-8"?>
<!DOCTYPE svg PUBLIC "-//W3C//DTD SVG 1.1//EN" "http://www.w3.org/Graphics/SVG/1.1/DTD/svg11.dtd">
<!-- Creator: CorelDRAW 2019 (64-Bit) -->
<svg xmlns="http://www.w3.org/2000/svg" xml:space="preserve" width="2.76389in" height="2.76389in" version="1.1" style="shape-rendering:geometricPrecision; text-rendering:geometricPrecision; image-rendering:optimizeQuality; fill-rule:evenodd; clip-rule:evenodd"
viewBox="0 0 71.49 71.49"
 xmlns:xlink="http://www.w3.org/1999/xlink">
 <defs>
  <style type="text/css">
   <![CDATA[
    .str0 {stroke:white;stroke-width:0.72;stroke-miterlimit:10}
    .fil0 {fill:none;fill-rule:nonzero}
    .fil1 {fill:white}
   ]]>
  </style>
 </defs>
 <g id="Layer_x0020_1">
  <metadata id="CorelCorpID_0Corel-Layer"/>
  <g id="_12283872928">
   <path class="fil0 str0" d="M71.13 35.75c0,19.54 -15.84,35.39 -35.39,35.39 -19.54,0 -35.39,-15.84 -35.39,-35.39 0,-19.54 15.84,-35.39 35.39,-35.39 19.54,0 35.39,15.84 35.39,35.39z"/>
   <g>
    <path class="fil1" d="M21.87 34.47l0 17.81c0,2.19 1.8,3.99 3.99,3.99l27.74 0c-2.19,0 -3.99,-1.79 -3.99,-3.99l0 -0.99 0 -1.32 0 -15.5 -1 0 0 17.81c0,1.12 0.37,2.16 1,2.99l-23.76 0c-1.64,0 -2.99,-1.35 -2.99,-2.99l0 -17.81 -1 0z"/>
    <path class="fil1" d="M29.76 28.4l16.48 0c0.27,0 0.5,-0.22 0.5,-0.5l0 0c0,-0.27 -0.22,-0.5 -0.5,-0.5l-16.48 0c-0.27,0 -0.5,0.22 -0.5,0.5l0 0c0,0.27 0.22,0.5 0.5,0.5zm-4.51 13.31l20.99 0c0.27,0 0.5,-0.22 0.5,-0.5l0 0c0,-0.27 -0.22,-0.5 -0.5,-0.5l-20.99 0c-0.27,0 -0.5,0.22 -0.5,0.5l0 0c0,0.27 0.22,0.5 0.5,0.5zm0 5.89l20.99 0c0.27,0 0.5,-0.22 0.5,-0.5l0 0c0,-0.27 -0.22,-0.5 -0.5,-0.5l-20.99 0c-0.27,0 -0.5,0.22 -0.5,0.5l0 0c0,0.27 0.22,0.5 0.5,0.5zm0 -8.37l20.99 0c0.27,0 0.5,-0.22 0.5,-0.5l0 0c0,-0.27 -0.22,-0.5 -0.5,-0.5l-20.99 0c-0.27,0 -0.5,0.22 -0.5,0.5l0 0c0,0.27 0.22,0.5 0.5,0.5zm4.51 5.89l16.48 0c0.27,0 0.5,-0.22 0.5,-0.5l0 0c0,-0.27 -0.22,-0.5 -0.5,-0.5l-16.48 0c-0.27,0 -0.5,0.22 -0.5,0.5l0 0c0,0.27 0.22,0.5 0.5,0.5zm0 -8.37l16.48 0c0.27,0 0.5,-0.22 0.5,-0.5l0 0c0,-0.27 -0.22,-0.5 -0.5,-0.5l-16.48 0c-0.27,0 -0.5,0.22 -0.5,0.5l0 0c0,0.27 0.22,0.5 0.5,0.5zm-4.51 -3.42l20.99 0c0.27,0 0.5,-0.22 0.5,-0.5l0 0c0,-0.27 -0.22,-0.5 -0.5,-0.5l-20.99 0c-0.27,0 -0.5,0.22 -0.5,0.5l0 0c0,0.27 0.22,0.5 0.5,0.5zm0 -2.47l20.99 0c0.27,0 0.5,-0.22 0.5,-0.5l0 0c0,-0.27 -0.22,-0.5 -0.5,-0.5l-20.99 0c-0.27,0 -0.5,0.22 -0.5,0.5l0 0c0,0.27 0.22,0.5 0.5,0.5z"/>
    <path class="fil1" d="M49.62 37.02l0 -17.81c0,-2.19 -1.8,-3.99 -3.99,-3.99l-27.74 0c2.19,0 3.99,1.79 3.99,3.99l0 0.99 0 1.32 0 15.5 1 0 0 -17.81c0,-1.12 -0.37,-2.16 -1,-2.99l23.76 0c1.64,0 2.99,1.35 2.99,2.99l0 17.81 1 0z"/>
    <polygon class="fil1" points="26.99,26.12 27.33,27.18 28.44,27.18 27.54,27.83 27.89,28.88 26.99,28.23 26.09,28.88 26.44,27.83 25.54,27.18 26.65,27.18 "/>
    <polygon class="fil1" points="26.99,34.47 27.33,35.52 28.44,35.52 27.54,36.17 27.89,37.23 26.99,36.57 26.09,37.23 26.44,36.17 25.54,35.52 26.65,35.52 "/>
    <polygon class="fil1" points="26.99,42.82 27.33,43.87 28.44,43.87 27.54,44.52 27.89,45.58 26.99,44.92 26.09,45.58 26.44,44.52 25.54,43.87 26.65,43.87 "/>
    <g>
     <path class="fil1" d="M35.21 20.59l-5.43 3.13c-0.24,0.14 -0.32,0.44 -0.18,0.68 0.14,0.24 0.44,0.32 0.68,0.18l5.43 -3.13c0.24,-0.14 0.32,-0.44 0.18,-0.68 -0.14,-0.24 -0.44,-0.32 -0.68,-0.18z"/>
     <path class="fil1" d="M37.75 23.98l-1.86 -3.21c-0.14,-0.24 -0.44,-0.32 -0.68,-0.18 -0.24,0.14 -0.32,0.44 -0.18,0.68l1.86 3.21c0.14,0.24 0.44,0.32 0.68,0.18 0.24,-0.14 0.32,-0.44 0.18,-0.68z"/>
     <path class="fil1" d="M42.49 20.67l-5.43 3.13c-0.24,0.14 -0.32,0.44 -0.18,0.68 0.14,0.24 0.44,0.32 0.68,0.18l5.43 -3.13c0.24,-0.14 0.32,-0.44 0.18,-0.68 -0.14,-0.24 -0.44,-0.32 -0.68,-0.18z"/>
     <polygon class="fil1" points="44.59,20.04 43.91,21.07 43.24,22.11 42.68,21.14 42.12,20.16 43.35,20.1 "/>
    </g>
   </g>
  </g>
 </g>
</svg>
