<?xml version="1.0" encoding="UTF-8"?>
<!DOCTYPE svg PUBLIC "-//W3C//DTD SVG 1.1//EN" "http://www.w3.org/Graphics/SVG/1.1/DTD/svg11.dtd">
<!-- Creator: CorelDRAW 2019 (64-Bit) -->
<svg xmlns="http://www.w3.org/2000/svg" xml:space="preserve" width="2.76389in" height="2.76389in" version="1.1" style="shape-rendering:geometricPrecision; text-rendering:geometricPrecision; image-rendering:optimizeQuality; fill-rule:evenodd; clip-rule:evenodd"
viewBox="0 0 65.45 65.45"
 xmlns:xlink="http://www.w3.org/1999/xlink">
 <defs>
  <style type="text/css">
   <![CDATA[
    .str0 {stroke:white;stroke-width:0.66;stroke-miterlimit:10}
    .fil0 {fill:none;fill-rule:nonzero}
    .fil1 {fill:white}
   ]]>
  </style>
 </defs>
 <g id="Layer_x0020_1">
  <metadata id="CorelCorpID_0Corel-Layer"/>
  <g id="_12275035360">
   <path class="fil0 str0" d="M65.12 32.73c0,17.89 -14.5,32.4 -32.4,32.4 -17.89,0 -32.4,-14.5 -32.4,-32.4 0,-17.89 14.5,-32.4 32.4,-32.4 17.89,0 32.4,14.5 32.4,32.4z"/>
   <g>
    <path class="fil1" d="M57.58 36.49l-5.89 4.93 -5.3 4.43c-0.25,0.21 -0.58,0.25 -0.87,0.11 -0.3,-0.14 -0.47,-0.42 -0.47,-0.74l0 -3.24 -20.7 0 0 -12.24 20.7 0 0 -3.24c0,-0.33 0.18,-0.6 0.47,-0.74 0.3,-0.14 0.62,-0.1 0.87,0.11l5.3 4.43 5.89 4.93c0.19,0.16 0.29,0.38 0.29,0.63 0,0.25 -0.1,0.47 -0.29,0.63z"/>
    <path class="fil1" d="M18.98 34.28l0 3.37 -9.64 -8.06 9.64 -8.06 0 3.37 20.7 0 0 3.68 1.43 0 0 -5.11 -20.7 0 0 -3.24c0,-0.33 -0.18,-0.6 -0.47,-0.74 -0.3,-0.14 -0.62,-0.1 -0.87,0.11l-5.3 4.43 -5.89 4.93c-0.19,0.16 -0.29,0.38 -0.29,0.63 0,0.25 0.1,0.47 0.29,0.63l5.89 4.93 5.3 4.43c0.25,0.21 0.58,0.25 0.87,0.11 0.29,-0.14 0.47,-0.42 0.47,-0.74l0 -3.24 2.77 0 0 -1.43 -4.19 0z"/>
   </g>
  </g>
 </g>
</svg>
