<?xml version="1.0" encoding="UTF-8"?>
<!DOCTYPE svg PUBLIC "-//W3C//DTD SVG 1.1//EN" "http://www.w3.org/Graphics/SVG/1.1/DTD/svg11.dtd">
<!-- Creator: CorelDRAW 2019 (64-Bit) -->
<svg xmlns="http://www.w3.org/2000/svg" xml:space="preserve" width="2.76389in" height="2.76389in" version="1.1" style="shape-rendering:geometricPrecision; text-rendering:geometricPrecision; image-rendering:optimizeQuality; fill-rule:evenodd; clip-rule:evenodd"
viewBox="0 0 71.49 71.49"
 xmlns:xlink="http://www.w3.org/1999/xlink">
 <defs>
  <style type="text/css">
   <![CDATA[
    .str0 {stroke:white;stroke-width:0.72;stroke-miterlimit:10}
    .fil0 {fill:none;fill-rule:nonzero}
    .fil1 {fill:white}
   ]]>
  </style>
 </defs>
 <g id="Layer_x0020_1">
  <metadata id="CorelCorpID_0Corel-Layer"/>
  <g id="_12275021472">
   <path class="fil0 str0" d="M71.13 35.75c0,19.54 -15.84,35.39 -35.39,35.39 -19.54,0 -35.39,-15.84 -35.39,-35.39 0,-19.54 15.84,-35.39 35.39,-35.39 19.54,0 35.39,15.84 35.39,35.39z"/>
   <path class="fil1" d="M21.94 33.83l4.9 -2.02c-0.74,-0.27 -1.55,-0.69 -2.37,-1.21 -2.05,-1.33 -3.42,-2.96 -3.32,-3.88l-6.04 2.49 6.84 4.62 -4.26 6.76 13.81 5.69 4.26 -6.76 4.26 6.76 13.81 -5.69 -4.26 -6.76 6.84 -4.62 -7.47 -3.08c-0.25,0.83 -0.7,1.72 -1.34,2.56 -1.25,1.64 -2.86,2.63 -4.09,2.64l6.07 2.5 -13.81 5.69 -13.81 -5.69zm25.59 -11.18c-1.15,-0.88 -3.05,-0.41 -4.61,1.01l-0.33 -0.14 -4.85 3.28 0.02 0.01c1.66,0.56 2.83,1.91 3.23,3.49l0.38 0.16c0.04,0.04 0.09,0.07 0.13,0.11 1.4,1.06 3.88,0.15 5.54,-2.03 1.67,-2.19 1.89,-4.82 0.49,-5.88zm-3.62 2.13l-0.45 0.18 -0.46 3.66 0.45 -0.18 0.46 -3.66zm2.58 1.12l-0.45 0.18 -0.17 1.34 0.45 -0.18 0.17 -1.34zm-0.62 -0.47l-0.45 0.18 -0.27 2.11 0.45 -0.18 0.27 -2.11zm-0.62 -0.47l-0.45 0.18 -0.36 2.89 0.45 -0.18 0.36 -2.89zm-0.62 -0.47l-0.45 0.18 -0.46 3.66 0.45 -0.18 0.46 -3.66zm2.33 -1.09c-1.03,-0.79 -2.97,0.01 -4.32,1.79 -1.35,1.77 -1.61,3.85 -0.58,4.64 1.03,0.79 2.97,-0.01 4.32,-1.79 1.35,-1.77 1.61,-3.85 0.58,-4.64zm-9.62 3.71c2.6,0.88 4,3.71 3.12,6.31 -0.88,2.6 -3.71,4 -6.31,3.12 -2.6,-0.88 -4,-3.71 -3.12,-6.31 0.02,-0.06 0.04,-0.11 0.06,-0.16l-1.17 0.48c0.12,0.34 0.11,0.63 -0.03,0.84 -0.53,0.81 -2.83,0.26 -5.13,-1.23 -2.31,-1.5 -3.75,-3.37 -3.22,-4.18 0.27,-0.42 1.01,-0.48 1.98,-0.23l3.72 -1.53c-0.24,-0.19 -0.46,-0.4 -0.69,-0.63 -1.91,-1.97 -2.44,-4.56 -1.18,-5.79 1.26,-1.22 3.83,-0.61 5.75,1.36 1.91,1.97 2.44,4.56 1.18,5.79 -0.19,0.19 -0.42,0.33 -0.66,0.43l0 -0 2.42 1.63c-0.37,0.17 -0.72,0.39 -1.04,0.65 1.23,-0.8 2.81,-1.06 4.32,-0.55zm1.34 4.56l0.26 0.53 -4.04 2 -0.26 -0.53 4.04 -2zm-4.24 -2.14l0.26 0.53 -1.48 0.73 -0.26 -0.53 1.48 -0.73zm1.27 0.43l0.26 0.53 -2.33 1.15 -0.26 -0.53 2.33 -1.15zm1.27 0.43l0.26 0.53 -3.19 1.58 -0.26 -0.53 3.19 -1.58zm1.27 0.43l0.26 0.53 -4.04 2 -0.26 -0.53 4.04 -2zm-1.22 -2.82c2.11,0.72 3.25,3.01 2.53,5.12 -0.72,2.11 -3.01,3.25 -5.12,2.53 -2.11,-0.72 -3.25,-3.01 -2.53,-5.12 0.72,-2.11 3.01,-3.25 5.12,-2.53zm4.04 -14.11c-1.74,-0.25 -3.46,1.76 -3.85,4.48 -0.39,2.72 0.71,5.13 2.44,5.38 1.74,0.25 3.46,-1.76 3.85,-4.48 0.39,-2.72 -0.71,-5.13 -2.44,-5.38zm-2.12 3.63l-0.3 0.38 1.38 3.41 0.3 -0.38 -1.38 -3.41zm2.8 -0.28l-0.3 0.38 0.51 1.25 0.3 -0.38 -0.51 -1.25zm-0.77 -0.11l-0.3 0.38 0.8 1.97 0.3 -0.38 -0.8 -1.97zm-0.77 -0.11l-0.3 0.38 1.09 2.7 0.3 -0.38 -1.09 -2.7zm-0.77 -0.11l-0.3 0.38 1.38 3.41 0.3 -0.38 -1.38 -3.41zm1.51 -2.09c-1.28,-0.18 -2.58,1.46 -2.9,3.67 -0.32,2.21 0.47,4.15 1.75,4.33 1.28,0.18 2.58,-1.46 2.9,-3.67 0.32,-2.21 -0.47,-4.15 -1.75,-4.33zm-16.59 13.97l0.28 0.33 3.2 0.92 -0.28 -0.33 -3.2 -0.92zm0.21 -1.56l0.28 0.33 1.17 0.34 -0.28 -0.33 -1.18 -0.34zm-0.22 0.34l0.28 0.33 1.85 0.53 -0.28 -0.33 -1.85 -0.53zm-0.22 0.34l0.28 0.33 2.52 0.73 -0.28 -0.33 -2.52 -0.73zm-0.22 0.34l0.28 0.33 3.2 0.92 -0.28 -0.33 -3.2 -0.92zm-1.58 -1.76c-0.36,0.56 0.86,2 2.73,3.21 1.87,1.21 3.69,1.74 4.05,1.19 0.36,-0.56 -0.86,-2 -2.73,-3.21 -1.87,-1.21 -3.69,-1.74 -4.05,-1.19zm10.03 -13.66c0.9,-0.36 2.45,1.43 3.47,3.98 1.01,2.56 1.1,4.92 0.2,5.27 -0.9,0.36 -2.45,-1.43 -3.46,-3.98 -1.01,-2.56 -1.1,-4.92 -0.2,-5.27zm2.2 3.31l0.27 0.34 0.27 3.32 -0.27 -0.34 -0.27 -3.32zm-1.57 -0.1l0.27 0.34 0.1 1.22 -0.27 -0.34 -0.1 -1.22zm0.38 -0.15l0.27 0.34 0.16 1.92 -0.27 -0.34 -0.16 -1.92zm0.38 -0.15l0.27 0.34 0.22 2.62 -0.27 -0.34 -0.22 -2.62zm0.38 -0.15l0.27 0.34 0.27 3.32 -0.27 -0.34 -0.27 -3.32zm-1.42 -1.89c0.62,-0.25 1.79,1.24 2.61,3.31 0.82,2.08 0.99,3.96 0.37,4.2 -0.62,0.25 -1.79,-1.24 -2.61,-3.31 -0.82,-2.08 -0.99,-3.96 -0.37,-4.2zm3.05 45.04l13.81 -5.69 0 -9.74 -9.85 4.05 -3.96 -6.29 -3.96 6.29 -9.85 -4.05 0 9.74 13.81 5.69zm-6.52 -39.24l0.46 0.13 0.89 3.58 -0.46 -0.13 -0.89 -3.58zm-2.43 1.42l0.46 0.13 0.33 1.31 -0.46 -0.13 -0.33 -1.31zm0.56 -0.54l0.46 0.13 0.51 2.07 -0.46 -0.13 -0.51 -2.07zm0.56 -0.54l0.46 0.13 0.7 2.82 -0.46 -0.13 -0.7 -2.82zm0.56 -0.54l0.46 0.13 0.89 3.58 -0.46 -0.13 -0.89 -3.58zm-2.45 -0.81c0.93,-0.9 2.95,-0.34 4.5,1.27 1.55,1.6 2.06,3.63 1.13,4.54 -0.93,0.9 -2.95,0.34 -4.5,-1.27 -1.55,-1.6 -2.06,-3.63 -1.13,-4.54z"/>
  </g>
 </g>
</svg>
