<?xml version="1.0" encoding="UTF-8"?>
<!DOCTYPE svg PUBLIC "-//W3C//DTD SVG 1.1//EN" "http://www.w3.org/Graphics/SVG/1.1/DTD/svg11.dtd">
<!-- Creator: CorelDRAW 2019 (64-Bit) -->
<svg xmlns="http://www.w3.org/2000/svg" xml:space="preserve" width="2.76389in" height="2.76389in" version="1.1" style="shape-rendering:geometricPrecision; text-rendering:geometricPrecision; image-rendering:optimizeQuality; fill-rule:evenodd; clip-rule:evenodd"
viewBox="0 0 78.76 78.76"
 xmlns:xlink="http://www.w3.org/1999/xlink">
 <defs>
  <style type="text/css">
   <![CDATA[
    .str0 {stroke:white;stroke-width:0.79;stroke-miterlimit:10}
    .fil0 {fill:none;fill-rule:nonzero}
    .fil1 {fill:white}
   ]]>
  </style>
 </defs>
 <g id="Layer_x0020_1">
  <metadata id="CorelCorpID_0Corel-Layer"/>
  <g id="_12283845760">
   <path class="fil0 str0" d="M78.36 39.38c0,21.53 -17.45,38.98 -38.98,38.98 -21.53,0 -38.98,-17.45 -38.98,-38.98 0,-21.53 17.45,-38.98 38.98,-38.98 21.53,0 38.98,17.45 38.98,38.98z"/>
   <g>
    <path class="fil1" d="M24.1 37.97l0 19.62c0,2.42 1.98,4.39 4.39,4.39l30.56 0c-2.42,0 -4.39,-1.98 -4.39,-4.39l0 -1.1 0 -1.45 0 -17.07 -1.1 0 0 19.62c0,1.24 0.41,2.38 1.11,3.3l-26.18 0c-1.81,0 -3.3,-1.49 -3.3,-3.3l0 -19.62 -1.1 0z"/>
    <path class="fil1" d="M48.79 31.28l-20.97 0c-0.3,0 -0.55,-0.25 -0.55,-0.55l0 0c0,-0.3 0.25,-0.55 0.55,-0.55l20.97 0c0.3,0 0.55,0.25 0.55,0.55l0 0c0,0.3 -0.25,0.55 -0.55,0.55zm2.15 14.67l-23.12 0c-0.3,0 -0.55,-0.25 -0.55,-0.55l0 0c0,-0.3 0.25,-0.55 0.55,-0.55l23.12 0c0.3,0 0.55,0.25 0.55,0.55l0 0c0,0.3 -0.25,0.55 -0.55,0.55zm0 6.49l-23.12 0c-0.3,0 -0.55,-0.25 -0.55,-0.55l0 0c0,-0.3 0.25,-0.55 0.55,-0.55l23.12 0c0.3,0 0.55,0.25 0.55,0.55l0 0c0,0.3 -0.25,0.55 -0.55,0.55zm0 -9.22l-23.12 0c-0.3,0 -0.55,-0.25 -0.55,-0.55l0 0c0,-0.3 0.25,-0.55 0.55,-0.55l23.12 0c0.3,0 0.55,0.25 0.55,0.55l0 0c0,0.3 -0.25,0.55 -0.55,0.55zm-2.15 6.49l-20.97 0c-0.3,0 -0.55,-0.25 -0.55,-0.55l0 0c0,-0.3 0.25,-0.55 0.55,-0.55l20.97 0c0.3,0 0.55,0.25 0.55,0.55l0 0c0,0.3 -0.25,0.55 -0.55,0.55zm0 -9.22l-20.97 0c-0.3,0 -0.55,-0.25 -0.55,-0.55l0 0c0,-0.3 0.25,-0.55 0.55,-0.55l20.97 0c0.3,0 0.55,0.25 0.55,0.55l0 0c0,0.3 -0.25,0.55 -0.55,0.55zm2.15 -3.77l-23.12 0c-0.3,0 -0.55,-0.25 -0.55,-0.55l0 0c0,-0.3 0.25,-0.55 0.55,-0.55l23.12 0c0.3,0 0.55,0.25 0.55,0.55l0 0c0,0.3 -0.25,0.55 -0.55,0.55zm0 -2.72l-23.12 0c-0.3,0 -0.55,-0.25 -0.55,-0.55l0 0c0,-0.3 0.25,-0.55 0.55,-0.55l23.12 0c0.3,0 0.55,0.25 0.55,0.55l0 0c0,0.3 -0.25,0.55 -0.55,0.55z"/>
    <path class="fil1" d="M43.64 21.96l0.65 0.65 -4.98 4.98 -0.65 -0.65 4.98 -4.98zm-7.35 -1.05l0.65 0.65 -1.83 1.83 -0.65 -0.65 1.83 -1.83zm2.1 0l0.65 0.65 -2.88 2.88 -0.65 -0.65 2.88 -2.88zm2.1 0l0.65 0.65 -3.93 3.93 -0.65 -0.65 3.93 -3.93zm2.1 0l0.65 0.65 -4.98 4.98 -0.65 -0.65 4.98 -4.98z"/>
    <path class="fil1" d="M54.66 40.79l0 -19.62c0,-2.42 -1.98,-4.39 -4.39,-4.39l-30.56 0c2.42,0 4.39,1.98 4.39,4.39l0 1.09 0 1.45 0 17.07 1.1 0 0 -19.62c0,-1.24 -0.41,-2.38 -1.11,-3.3l26.18 0c1.81,0 3.3,1.49 3.3,3.3l0 19.62 1.1 0z"/>
   </g>
  </g>
 </g>
</svg>
