<svg xmlns="http://www.w3.org/2000/svg" xmlns:xlink="http://www.w3.org/1999/xlink" width="39.753" height="39.751" viewBox="0 0 39.753 39.751">
  <defs>
    <clipPath id="clip-path">
      <path id="Path_20" data-name="Path 20" d="M151.985,122a6.731,6.731,0,1,1-6.73,6.731,6.732,6.732,0,0,1,6.73-6.731m1.149,3.661.672.672-4.051,4.05-.673-.672Zm-2.164,0,.672.672-2.968,2.967-.672-.672Zm-2.164,0,.671.672-1.885,1.885-.672-.672Zm7.574,1.082.672.672-5.132,5.131-.672-.672Zm-1.082-1.082.672.672-5.132,5.131-.672-.672Zm-2.879-4.752a7.832,7.832,0,0,1,6.125,3.536l3.384-1.954a1.775,1.775,0,1,1,.432.75l-3.383,1.953a7.85,7.85,0,0,1,0,7.074l3.383,1.954a1.776,1.776,0,1,1-.432.749l-3.384-1.954a7.832,7.832,0,0,1-6.125,3.536v3.908a1.777,1.777,0,1,1-.866,0V136.55a7.83,7.83,0,0,1-6.125-3.536l-3.384,1.954a1.778,1.778,0,1,1-.433-.749l3.384-1.954a7.842,7.842,0,0,1,0-7.074l-3.384-1.953a1.777,1.777,0,1,1,.433-.75l3.384,1.954a7.83,7.83,0,0,1,6.125-3.536V117a1.777,1.777,0,1,1,.866,0Z" fill="none" clip-rule="evenodd"/>
    </clipPath>
    <linearGradient id="linear-gradient" x1="0.972" y1="1.643" x2="0.255" y2="-0.093" gradientUnits="objectBoundingBox">
      <stop offset="0" stop-color="#ecb42a"/>
      <stop offset="0.48" stop-color="#e8a839"/>
      <stop offset="0.81" stop-color="#c637c1"/>
      <stop offset="1" stop-color="#bb12ee"/>
    </linearGradient>
  </defs>
  <g id="Affiliates" transform="translate(-132.109 -108.853)">
    <path id="Path_19" data-name="Path 19" d="M151.985,110.185a18.544,18.544,0,1,1-18.542,18.543,18.542,18.542,0,0,1,18.542-18.543m19.877,18.543A19.877,19.877,0,1,0,151.985,148.6,19.876,19.876,0,0,0,171.862,128.728Z" fill="#fff" fill-rule="evenodd"/>
    <g id="Group_4" data-name="Group 4">
      <g id="Group_3" data-name="Group 3" clip-path="url(#clip-path)">
        <rect id="Rectangle_3" data-name="Rectangle 3" width="27.36" height="30.46" transform="translate(138.306 113.498)" fill="url(#linear-gradient)"/>
      </g>
    </g>
  </g>
</svg>
