<?xml version="1.0" encoding="UTF-8"?>
<!DOCTYPE svg PUBLIC "-//W3C//DTD SVG 1.1//EN" "http://www.w3.org/Graphics/SVG/1.1/DTD/svg11.dtd">
<!-- Creator: CorelDRAW 2019 (64-Bit) -->
<svg xmlns="http://www.w3.org/2000/svg" xml:space="preserve" width="4.63763in" height="4.63759in" version="1.1" style="shape-rendering:geometricPrecision; text-rendering:geometricPrecision; image-rendering:optimizeQuality; fill-rule:evenodd; clip-rule:evenodd"
viewBox="0 0 268.45 268.45"
 xmlns:xlink="http://www.w3.org/1999/xlink">
 <defs>
  <style type="text/css">
   <![CDATA[
    .fil1 {fill:#181822}
    .fil0 {fill:url(#id0)}
   ]]>
  </style>
  <linearGradient id="id0" gradientUnits="userSpaceOnUse" x1="204.3" y1="261.87" x2="99.75" y2="45.46">
   <stop offset="0" style="stop-opacity:1; stop-color:#ECB42A"/>
   <stop offset="0.478431" style="stop-opacity:1; stop-color:#E8A839"/>
   <stop offset="0.811765" style="stop-opacity:1; stop-color:#C637C1"/>
   <stop offset="1" style="stop-opacity:1; stop-color:#BB12EE"/>
  </linearGradient>
 </defs>
 <g id="Layer_x0020_1">
  <metadata id="CorelCorpID_0Corel-Layer"/>
  <g id="_1088256176">
   <path class="fil0" d="M134.23 100.46c-18.67,0 -33.78,15.1 -33.78,33.77 0,18.67 15.11,33.76 33.78,33.76 18.65,0 33.77,-15.1 33.77,-33.76 0,-18.67 -15.11,-33.77 -33.77,-33.77zm32.78 -23.02l0 0c0.92,0.52 1.26,1.72 0.72,2.63l-9.41 16.31c-0.53,0.93 -1.73,1.23 -2.65,0.71l0 0c-0.93,-0.54 -1.25,-1.73 -0.7,-2.65l9.41 -16.3c0.52,-0.92 1.72,-1.24 2.64,-0.7zm-32.78 -8.8l0 0c1.06,0 1.94,0.88 1.94,1.94l0 18.83c0,1.07 -0.88,1.94 -1.94,1.94l0 0c-1.07,0 -1.94,-0.86 -1.94,-1.94l0 -18.83c0,-1.06 0.86,-1.94 1.94,-1.94zm0 108.45l0 0c1.06,0 1.94,0.88 1.94,1.94l0 18.83c0,1.07 -0.88,1.94 -1.94,1.94l0 0c-1.07,0 -1.94,-0.86 -1.94,-1.94l0 -18.83c0,-1.06 0.86,-1.94 1.94,-1.94zm56.8 -10.09l0 0c-0.54,0.94 -1.74,1.26 -2.65,0.72l-16.31 -9.41c-0.93,-0.53 -1.23,-1.72 -0.7,-2.63l0 0c0.53,-0.94 1.71,-1.27 2.64,-0.73l16.3 9.41c0.93,0.53 1.25,1.73 0.73,2.64zm-93.93 -54.22l0 0c-0.54,0.93 -1.73,1.25 -2.65,0.72l-16.3 -9.41c-0.92,-0.53 -1.25,-1.73 -0.72,-2.65l0 0c0.53,-0.93 1.73,-1.25 2.65,-0.7l16.3 9.41c0.93,0.52 1.23,1.71 0.72,2.64zm102.7 21.43l0 0c0,1.07 -0.88,1.95 -1.94,1.95l-18.83 0c-1.06,0 -1.94,-0.88 -1.94,-1.94l0 0c0,-1.07 0.88,-1.94 1.94,-1.94l18.83 0c1.06,0 1.94,0.86 1.94,1.93zm-108.45 0.01l0 0c0,1.06 -0.88,1.94 -1.94,1.94l-18.83 0c-1.06,0 -1.94,-0.88 -1.94,-1.92l0 0c0,-1.09 0.88,-1.95 1.94,-1.95l18.83 0c1.06,0 1.94,0.86 1.94,1.94zm99.67 -32.79l0 0c0.53,0.92 0.21,2.12 -0.71,2.65l-16.3 9.41c-0.93,0.53 -2.11,0.21 -2.64,-0.73l0 0c-0.53,-0.91 -0.22,-2.11 0.7,-2.63l16.31 -9.41c0.91,-0.54 2.11,-0.22 2.64,0.7zm-93.92 54.25l0 0c0.52,0.91 0.21,2.1 -0.72,2.63l-16.3 9.41c-0.92,0.54 -2.12,0.22 -2.64,-0.72l0 0c-0.54,-0.91 -0.22,-2.11 0.7,-2.64l16.3 -9.41c0.93,-0.54 2.11,-0.21 2.65,0.73zm15.69 15.68l0 0c0.93,0.53 1.25,1.72 0.7,2.64l-9.41 16.3c-0.52,0.93 -1.72,1.26 -2.63,0.72l0 0c-0.94,-0.53 -1.26,-1.73 -0.73,-2.65l9.41 -16.3c0.53,-0.93 1.73,-1.23 2.65,-0.7zm54.22 19.65l0 0c-0.93,0.54 -2.12,0.21 -2.64,-0.72l-9.41 -16.3c-0.54,-0.92 -0.22,-2.11 0.7,-2.64l0 0c0.93,-0.53 2.12,-0.22 2.65,0.7l9.41 16.3c0.54,0.93 0.21,2.12 -0.72,2.65zm-54.23 -93.92l0 0c-0.91,0.52 -2.11,0.21 -2.64,-0.71l-9.41 -16.31c-0.53,-0.91 -0.21,-2.11 0.72,-2.63l0 0c0.92,-0.54 2.12,-0.22 2.64,0.7l9.41 16.3c0.54,0.93 0.22,2.11 -0.72,2.65z"/>
   <path class="fil1" d="M259.44 134.22c0,69.16 -56.06,125.22 -125.22,125.22 -69.16,0 -125.22,-56.06 -125.22,-125.22 0,-69.16 56.06,-125.22 125.22,-125.22 69.16,0 125.22,56.06 125.22,125.22zm9 0c0,-74.13 -60.1,-134.22 -134.22,-134.22 -74.13,0 -134.22,60.09 -134.22,134.22 0,74.13 60.09,134.22 134.22,134.22 74.13,0 134.22,-60.09 134.22,-134.22z"/>
  </g>
 </g>
</svg>
