<?xml version="1.0" encoding="UTF-8"?>
<!DOCTYPE svg PUBLIC "-//W3C//DTD SVG 1.1//EN" "http://www.w3.org/Graphics/SVG/1.1/DTD/svg11.dtd">
<!-- Creator: CorelDRAW 2019 (64-Bit) -->
<svg xmlns="http://www.w3.org/2000/svg" xml:space="preserve" width="4.63763in" height="4.63759in" version="1.1" style="shape-rendering:geometricPrecision; text-rendering:geometricPrecision; image-rendering:optimizeQuality; fill-rule:evenodd; clip-rule:evenodd"
viewBox="0 0 268.45 268.45"
 xmlns:xlink="http://www.w3.org/1999/xlink">
 <defs>
  <style type="text/css">
   <![CDATA[
    .fil1 {fill:#181822}
    .fil0 {fill:url(#id0)}
   ]]>
  </style>
  <linearGradient id="id0" gradientUnits="userSpaceOnUse" x1="215.28" y1="281.85" x2="94.34" y2="31.56">
   <stop offset="0" style="stop-opacity:1; stop-color:#ECB42A"/>
   <stop offset="0.478431" style="stop-opacity:1; stop-color:#E8A839"/>
   <stop offset="0.811765" style="stop-opacity:1; stop-color:#C637C1"/>
   <stop offset="1" style="stop-opacity:1; stop-color:#BB12EE"/>
  </linearGradient>
 </defs>
 <g id="Layer_x0020_1">
  <metadata id="CorelCorpID_0Corel-Layer"/>
  <g id="_1088258704">
   <path class="fil0" d="M154.42 126.73l3.09 3.09 -23.59 23.59 -3.09 -3.09 23.59 -23.59zm-34.82 -4.97l3.09 3.09 -8.67 8.67 -3.09 -3.09 8.67 -8.67zm9.95 0l3.09 3.09 -13.64 13.64 -3.09 -3.09 13.64 -13.64zm9.95 0l3.09 3.09 -18.62 18.62 -3.09 -3.09 18.62 -18.62zm-67.58 72.66l-12.23 1.01 -1.31 -29.2 12.27 -0.09 1.27 28.27zm77.53 -72.66l3.09 3.09 -23.59 23.59 -3.09 -3.09 23.59 -23.59zm-75.41 -48.16l13.56 -0.61 21.69 -0.97c6.21,-0.28 11.53,4.78 11.68,8.24l36.3 -2.99 1.14 25.32 -0 0 -36.42 0.26c-0.75,5.81 -8.67,10.38 -17.47,15.1 -0.08,-2.85 -0.21,-6.83 -0.3,-9.68l-0.14 0.01 -19.28 0.86 -15.97 0.72c-2.04,0.09 -3.79,-1.51 -3.89,-3.55l0 0c-0.09,-2.05 1.51,-3.79 3.55,-3.89l16.88 -0.76 0.16 -2.08 -14.87 0.66c-2.04,0.09 -3.79,-1.51 -3.88,-3.55l0 0c-0.09,-2.04 1.51,-3.79 3.55,-3.88l15.78 -0.71 0.16 -2.08 -13.76 0.62c-2.05,0.09 -3.79,-1.51 -3.89,-3.55l0 0c-0.09,-2.04 1.51,-3.79 3.55,-3.89l14.67 -0.66 0.16 -2.08 -12.65 0.57c-2.05,0.09 -3.79,-1.51 -3.89,-3.55l0 0c-0.09,-2.04 1.51,-3.79 3.55,-3.88zm120.8 0.43l0.61 13.56 0.97 21.69c0.28,6.21 -4.78,11.53 -8.24,11.68l2.99 36.3 -25.32 1.14 0 -0 -0.26 -36.42c-5.81,-0.75 -10.38,-8.67 -15.1,-17.47 2.85,-0.08 6.83,-0.22 9.68,-0.3l-0.01 -0.14 -0.86 -19.28 -0.72 -15.97c-0.09,-2.04 1.51,-3.79 3.55,-3.89l0 0c2.05,-0.09 3.79,1.51 3.89,3.55l0.76 16.88 2.08 0.16 -0.66 -14.87c-0.09,-2.04 1.51,-3.79 3.55,-3.88l0 0c2.04,-0.09 3.79,1.51 3.88,3.55l0.71 15.78 2.08 0.16 -0.62 -13.76c-0.09,-2.05 1.51,-3.79 3.55,-3.89l0 0c2.04,-0.09 3.79,1.51 3.89,3.55l0.66 14.67 2.08 0.16 -0.57 -12.65c-0.09,-2.05 1.51,-3.79 3.55,-3.89l0 0c2.04,-0.09 3.79,1.51 3.88,3.55zm1.69 -0.01l12.23 -1.01 1.31 29.2 -12.27 0.09 -1.27 -28.27zm-2.12 120.81l-13.56 0.61 -21.69 0.97c-6.21,0.28 -11.53,-4.78 -11.68,-8.24l-36.3 2.99 -1.14 -25.32 0 0 36.42 -0.26c0.75,-5.81 8.67,-10.38 17.47,-15.1 0.08,2.85 0.21,6.83 0.3,9.68l0.14 -0.01 19.28 -0.86 15.97 -0.72c2.04,-0.09 3.79,1.51 3.89,3.55l0 0c0.09,2.05 -1.51,3.79 -3.55,3.89l-16.88 0.76 -0.16 2.08 14.87 -0.66c2.04,-0.09 3.79,1.51 3.88,3.55l0 0c0.09,2.04 -1.51,3.79 -3.55,3.88l-15.78 0.71 -0.16 2.08 13.76 -0.62c2.05,-0.09 3.79,1.51 3.89,3.55l0 0c0.09,2.04 -1.51,3.79 -3.55,3.89l-14.67 0.66 -0.16 2.08 12.65 -0.57c2.05,-0.09 3.79,1.51 3.89,3.55l0 0c0.09,2.04 -1.51,3.79 -3.55,3.88zm0.01 1.69l1.01 12.23 -29.2 1.31 -0.09 -12.27 28.27 -1.27zm-120.81 -2.12l-0.61 -13.56 -0.97 -21.69c-0.28,-6.21 4.78,-11.53 8.24,-11.68l-2.99 -36.3 25.32 -1.14 0 0 0.26 36.42c5.81,0.75 10.38,8.67 15.1,17.47 -2.85,0.08 -6.83,0.22 -9.68,0.3l0.01 0.14 0.86 19.28 0.72 15.97c0.09,2.04 -1.51,3.79 -3.55,3.89l0 0c-2.05,0.09 -3.79,-1.51 -3.89,-3.55l-0.76 -16.88 -2.08 -0.16 0.67 14.87c0.09,2.04 -1.51,3.79 -3.55,3.88l0 0c-2.04,0.09 -3.79,-1.51 -3.88,-3.55l-0.71 -15.78 -2.08 -0.16 0.62 13.76c0.09,2.05 -1.51,3.79 -3.55,3.89l0 0c-2.04,0.09 -3.79,-1.51 -3.89,-3.55l-0.66 -14.67 -2.08 -0.16 0.57 12.65c0.09,2.05 -1.51,3.79 -3.55,3.89l0 0c-2.04,0.09 -3.79,-1.51 -3.88,-3.55zm0.42 -122.49l-1.01 -12.23 29.2 -1.31 0.09 12.27 -28.27 1.27z"/>
   <path class="fil1" d="M268.45 134.22c0,-74.13 -60.1,-134.22 -134.22,-134.22 -74.13,0 -134.22,60.09 -134.22,134.22 0,74.13 60.09,134.22 134.22,134.22 74.13,0 134.22,-60.09 134.22,-134.22zm-134.22 -125.22c69.16,0 125.22,56.06 125.22,125.22 0,69.16 -56.06,125.22 -125.22,125.22 -69.16,0 -125.22,-56.06 -125.22,-125.22 0,-69.16 56.06,-125.22 125.22,-125.22z"/>
  </g>
 </g>
</svg>
