<?xml version="1.0" encoding="UTF-8"?>
<!DOCTYPE svg PUBLIC "-//W3C//DTD SVG 1.1//EN" "http://www.w3.org/Graphics/SVG/1.1/DTD/svg11.dtd">
<!-- Creator: CorelDRAW 2019 (64-Bit) -->
<svg xmlns="http://www.w3.org/2000/svg" xml:space="preserve" width="4.63763in" height="4.6376in" version="1.1" style="shape-rendering:geometricPrecision; text-rendering:geometricPrecision; image-rendering:optimizeQuality; fill-rule:evenodd; clip-rule:evenodd"
viewBox="0 0 268.45 268.45"
 xmlns:xlink="http://www.w3.org/1999/xlink">
 <defs>
  <style type="text/css">
   <![CDATA[
    .fil1 {fill:#181822}
    .fil0 {fill:url(#id0)}
   ]]>
  </style>
  <linearGradient id="id0" gradientUnits="userSpaceOnUse" x1="230.67" y1="295.79" x2="78.78" y2="24.56">
   <stop offset="0" style="stop-opacity:1; stop-color:#ECB42A"/>
   <stop offset="0.478431" style="stop-opacity:1; stop-color:#E8A839"/>
   <stop offset="0.811765" style="stop-opacity:1; stop-color:#C637C1"/>
   <stop offset="1" style="stop-opacity:1; stop-color:#BB12EE"/>
  </linearGradient>
 </defs>
 <g id="Layer_x0020_1">
  <metadata id="CorelCorpID_0Corel-Layer"/>
  <g id="_1095398928">
   <path class="fil0" d="M197.65 139.24l3.53 3.26 -26.94 46.01 -3.53 -3.26 26.94 -46.01zm-39.77 8.1l3.53 3.26 -9.9 16.91 -3.53 -3.26 9.9 -16.91zm11.36 -4.45l3.53 3.26 -15.58 26.61 -3.53 -3.26 15.58 -26.61zm11.36 -4.45l3.53 3.26 -21.27 36.32 -3.53 -3.26 21.27 -36.32zm11.36 -4.45l3.53 3.26 -26.94 46.01 -3.53 -3.26 26.94 -46.01zm-68.58 -23.44l0 -8.53 14.66 0 0 8.53 -14.66 0zm15.31 16.86l64.43 -37.28c2.46,-1.43 2.15,-3.94 -0.69,-5.58l-63.06 -36.49c-2.84,-1.64 -7.18,-1.82 -9.64,-0.4l-64.43 37.28c-2.46,1.42 -2.15,3.93 0.69,5.58l63.06 36.49c2.84,1.64 7.18,1.82 9.64,0.4zm-0.25 -30.04l-15.06 0c0,-3.69 0.62,-6.17 1.85,-7.45 1.24,-1.27 4.32,-2.46 9.26,-3.56 4.94,-1.1 8.16,-1.87 9.66,-2.29 1.5,-0.43 2.25,-1.81 2.25,-4.14 0,-2.04 -0.76,-3.41 -2.3,-4.11 -1.53,-0.7 -4.28,-1.05 -8.26,-1.05l-1.77 0c-4.73,0 -7.92,0.31 -9.59,0.92 -1.67,0.62 -2.5,2.03 -2.5,4.23l0 1.97 -14.5 0 0.08 -2.1c0,-2.25 0.27,-4.06 0.81,-5.44 0.54,-1.38 1.93,-2.58 4.19,-3.6 2.25,-1.02 5.25,-1.72 8.98,-2.1 3.73,-0.38 7.61,-0.57 11.64,-0.57 9.77,0 16.84,0.7 21.18,2.1 4.35,1.4 6.52,4.41 6.52,9.04 0,2.12 -0.25,3.86 -0.76,5.22 -0.51,1.36 -1.57,2.51 -3.18,3.47 -1.61,0.96 -5.1,2 -10.47,3.12 -5.37,1.12 -8.05,2.73 -8.05,4.81l0 1.53zm-11.71 36l-63.46 -37.57c-2.52,-1.49 -4.58,0.07 -4.58,3.47l0 75.47c0,3.4 2.06,7.4 4.58,8.89l63.46 37.57c2.52,1.49 4.58,-0.07 4.58,-3.47l0 -75.46c0,-3.4 -2.06,-7.4 -4.58,-8.89zm-32.46 10.46c7.08,3.79 12.19,7.17 15.34,10.14 3.15,2.97 4.72,6.57 4.72,10.81 0,1.94 -0.18,3.44 -0.55,4.49 -0.37,1.05 -1.14,1.69 -2.3,1.94 -1.17,0.25 -3.69,-0.15 -7.58,-1.2 -3.89,-1.05 -5.83,-0.63 -5.83,1.28l0 1.4 -10.91 -5.84c0,-3.38 0.45,-5.42 1.34,-6.1 0.89,-0.69 3.13,-0.58 6.71,0.33 3.58,0.91 5.91,1.46 7,1.65 1.09,0.19 1.63,-0.78 1.63,-2.92 0,-1.87 -0.55,-3.42 -1.66,-4.65 -1.11,-1.24 -3.1,-2.62 -5.98,-4.17l-1.28 -0.69c-3.42,-1.83 -5.73,-2.79 -6.94,-2.87 -1.2,-0.08 -1.81,0.89 -1.81,2.91l0 1.81 -10.5 -5.63 0.06 -1.89c0,-2.06 0.19,-3.62 0.58,-4.67 0.39,-1.05 1.4,-1.61 3.03,-1.67 1.63,-0.06 3.8,0.46 6.5,1.56 2.7,1.1 5.51,2.43 8.43,3.99zm-7.12 27.27l10.61 5.69 0 7.82 -10.61 -5.69 0 -7.82zm118 -75.3l-63.46 37.57c-2.52,1.49 -4.58,5.49 -4.58,8.89l0 75.46c0,3.4 2.06,4.96 4.58,3.47l63.46 -37.57c2.52,-1.49 4.58,-5.49 4.58,-8.89l0 -75.47c0,-3.4 -2.06,-4.96 -4.58,-3.47z"/>
   <path class="fil1" d="M268.45 134.22c0,-74.13 -60.1,-134.22 -134.22,-134.22 -74.13,0 -134.22,60.09 -134.22,134.22 0,74.13 60.09,134.22 134.22,134.22 74.13,0 134.22,-60.09 134.22,-134.22zm-134.22 -125.22c69.16,0 125.22,56.06 125.22,125.22 0,69.16 -56.06,125.22 -125.22,125.22 -69.16,0 -125.22,-56.06 -125.22,-125.22 0,-69.16 56.06,-125.22 125.22,-125.22z"/>
  </g>
 </g>
</svg>
