<svg xmlns="http://www.w3.org/2000/svg" xmlns:xlink="http://www.w3.org/1999/xlink" width="101.693" height="101.692" viewBox="0 0 101.693 101.692">
  <defs>
    <clipPath id="clip-path">
      <path id="Path_7" data-name="Path 7" d="M145.168,363.983c1.5-1.458,4.756-.543,7.264,2.043s3.324,5.866,1.821,7.324-4.756.544-7.264-2.043-3.324-5.866-1.821-7.324m3.95,1.3.75.211,1.435,5.771-.75-.211Zm-.9.878.749.21,1.133,4.556-.75-.21Zm-.9.877.75.211.829,3.337-.749-.211Zm-.9.878.749.21.528,2.12-.75-.21Zm3.92-2.294.75.211,1.435,5.771-.75-.21Zm10.529,63.34,22.287-9.179V404.067l-15.894,6.546-6.393-10.158-6.393,10.158-15.894-6.546v15.719Zm-4.918-72.7c1-.4,2.888,2,4.214,5.347s1.59,6.387.589,6.783-2.887-2-4.213-5.347S154.935,356.663,155.936,356.268Zm2.292,3.055.438.551.443,5.355-.437-.552Zm-.611.242.438.551.349,4.227-.437-.551Zm-.612.242.438.55.257,3.1-.438-.551Zm-.611.242.438.551.163,1.967-.438-.55Zm2.539.161.438.551.442,5.354-.437-.55Zm-3.553-5.347c1.456-.576,3.96,2.3,5.594,6.426s1.777,7.938.321,8.514-3.96-2.3-5.593-6.426S153.925,355.44,155.38,354.863ZM139.2,376.914c-.586.9,1.391,3.225,4.414,5.185s5.949,2.816,6.535,1.913-1.391-3.224-4.415-5.184S139.781,376.011,139.2,376.914Zm2.545,2.849.454.538,5.162,1.488-.454-.537Zm.358-.552.454.538,4.074,1.175-.453-.537Zm.358-.551.453.537,2.985.862-.454-.538Zm.357-.553.454.539,1.9.546-.454-.537Zm-.342,2.522.453.537,5.163,1.488-.454-.537Zm26.778-22.556c-2.074-.3-4.167,2.356-4.676,5.923s.759,6.7,2.833,6.994,4.166-2.356,4.675-5.923S171.322,358.369,169.249,358.073Zm-2.43,3.375-.483.612,2.233,5.512.482-.611Zm1.248.179-.483.611,1.763,4.351.482-.611Zm1.247.178-.482.611,1.291,3.188.482-.612Zm1.248.177-.483.612.821,2.025.482-.611Zm-4.52.451-.482.611,2.231,5.512.483-.611Zm3.42-5.855c-2.805-.4-5.587,2.836-6.214,7.229s1.139,8.277,3.944,8.677,5.588-2.836,6.214-7.228S172.267,356.979,169.462,356.578Zm-6.518,22.778a6.524,6.524,0,1,1-8.27,4.09A6.525,6.525,0,0,1,162.944,379.356Zm1.963,4.555.422.854-6.518,3.222-.421-.853Zm-2.054-.7.422.853-5.145,2.544-.422-.853Zm-2.054-.694.422.853-3.769,1.863-.422-.853Zm-2.054-.7.422.854-2.394,1.184-.422-.853Zm6.841,3.459.422.854-6.517,3.222-.422-.853Zm-2.158-7.358a8.034,8.034,0,1,1-10.184,5.035c.03-.089.063-.178.1-.265l-1.887.778a1.538,1.538,0,0,1-.041,1.358c-.852,1.314-4.561.423-8.284-1.991s-6.05-5.436-5.2-6.749c.438-.677,1.633-.768,3.2-.368l6.006-2.474a12.558,12.558,0,0,1-1.106-1.013c-3.09-3.184-3.945-7.365-1.911-9.338s6.187-.991,9.276,2.2,3.945,7.365,1.911,9.339a3.415,3.415,0,0,1-1.066.7l3.9,2.636a8.082,8.082,0,0,0-1.676,1.043A8.021,8.021,0,0,1,163.428,377.927Zm15.532-5.991c-1.666-1.27-4.786.024-6.971,2.889s-2.6,6.217-.94,7.488,4.787-.025,6.971-2.89S180.625,373.206,178.96,371.936Zm-3.768,1.761-.719.3-.741,5.9.72-.3Zm1,.764-.719.3-.584,4.657.719-.3Zm1,.765-.719.3-.428,3.413.719-.3Zm1,.763-.72.3-.272,2.168.719-.3Zm-4.165-1.812-.72.3-.74,5.9.719-.3Zm5.841-3.442c-1.861-1.42-4.921-.664-7.446,1.633l-.54-.222-7.826,5.288.029.009a8.028,8.028,0,0,1,5.215,5.641l.615.253c.068.061.138.12.212.176,2.253,1.718,6.26.25,8.95-3.279S182.129,372.453,179.875,370.735ZM138.567,388.78l7.9-3.255a20.014,20.014,0,0,1-3.822-1.96c-3.314-2.149-5.523-4.779-5.366-6.257l-9.752,4.015,11.035,7.457L131.7,399.694l22.287,9.179,6.869-10.914,6.87,10.914,22.286-9.179-6.869-10.914,11.035-7.457-12.065-4.968a13.072,13.072,0,0,1-2.159,4.126c-2.015,2.643-4.618,4.245-6.6,4.266l9.794,4.033-22.287,9.179Z" fill="none" clip-rule="evenodd"/>
    </clipPath>
    <linearGradient id="linear-gradient" x1="0.967" y1="1.643" x2="0.26" y2="-0.089" gradientUnits="objectBoundingBox">
      <stop offset="0" stop-color="#ecb42a"/>
      <stop offset="0.48" stop-color="#e8a839"/>
      <stop offset="0.81" stop-color="#c637c1"/>
      <stop offset="1" stop-color="#bb12ee"/>
    </linearGradient>
  </defs>
  <g id="Winners" transform="translate(-110.007 -341.031)">
    <g id="Group_2" data-name="Group 2">
      <g id="Group_1" data-name="Group 1" clip-path="url(#clip-path)">
        <rect id="Rectangle_2" data-name="Rectangle 2" width="66.644" height="74.678" transform="translate(127.532 354.287)" fill="url(#linear-gradient)"/>
      </g>
    </g>
    <path id="Path_8" data-name="Path 8" d="M160.853,344.441a47.436,47.436,0,1,1-47.434,47.436,47.436,47.436,0,0,1,47.434-47.436M211.7,391.877a50.846,50.846,0,1,0-50.847,50.846A50.847,50.847,0,0,0,211.7,391.877Z" fill="#181822" fill-rule="evenodd"/>
  </g>
</svg>
